# Blender v2.91.0 OBJ File: 'islands.blend'
# www.blender.org
mtllib 1.mtl
o 1_foam_Curve.027
v -3.815012 0.000001 -3.477823
v -1.590618 0.000001 -5.027616
v -5.053167 0.000001 -0.726120
v -6.622297 0.000001 -6.036985
v -2.761075 0.000001 -8.727197
v -8.771548 0.000001 -1.260437
v -8.387086 0.000001 5.479276
v -4.671835 0.000001 9.648225
v -4.831684 0.000001 3.156536
v -2.691380 0.000001 5.558208
v 0.924265 0.000001 5.730269
v 4.271218 0.000001 3.572824
v 1.604385 0.000001 9.946899
v 7.414198 0.000001 6.201893
v 10.025104 0.000001 -0.002266
v 8.636062 0.000001 -5.962302
v 5.775324 0.000001 -0.001306
v 4.975115 0.000001 -3.434799
v 2.035935 0.000001 -5.350173
v 3.534082 0.000001 -9.287107
v -2.875048 0.000001 -4.375906
v -4.564242 0.000001 -2.293109
v -5.218655 0.000001 -4.757404
v -4.990656 0.000001 -7.595925
v -7.922848 0.000001 -3.980497
v -8.968774 0.000001 2.131836
v -6.912358 0.000001 -0.993279
v -6.944893 0.000001 8.033725
v -6.609385 0.000001 4.317906
v -5.166786 0.000001 1.228121
v -4.000858 0.000001 4.628117
v -0.974705 0.000001 5.939815
v -3.681608 0.000001 7.603216
v 2.749164 0.000001 4.908165
v 1.264325 0.000001 7.838585
v -1.691943 0.000001 10.310638
v 4.772139 0.000001 8.519849
v 9.200976 0.000001 3.243491
v 5.842708 0.000001 4.887359
v 9.842005 0.000001 -3.171809
v 7.900214 0.000001 -0.001786
v 5.300557 0.000001 1.868529
v 5.669843 0.000001 -1.827235
v 3.715981 0.000001 -4.660558
v 6.805588 0.000001 -4.698550
v 0.146092 0.000001 -5.415939
v 2.785008 0.000001 -7.318640
v 6.450392 0.000001 -8.090039
v 0.253595 0.000001 -9.401267
v -2.175847 0.000001 -6.877407
v -3.932852 0.000001 -5.985916
v -6.243545 0.000001 -3.136803
v -7.067780 0.000001 1.679978
v -5.472875 0.000001 6.330921
v -1.333324 0.000001 8.125227
v 3.760651 0.000001 6.714007
v 7.250767 0.000001 2.556010
v 7.755923 0.000001 -2.499522
v 5.083186 0.000001 -6.375299
v 0.199843 0.000001 -7.408603
vt 0.830261 0.000000
vt 0.865656 0.000000
vt 0.865656 0.500000
vt 0.830261 0.500000
vt 0.903995 0.000000
vt 0.903995 0.500000
vt 0.903995 1.000000
vt 0.865656 1.000000
vt 0.830261 1.000000
vt 0.746737 0.000000
vt 0.791998 0.000000
vt 0.791998 0.500000
vt 0.746737 0.500000
vt 0.791998 1.000000
vt 0.746737 1.000000
vt 0.638342 0.000000
vt 0.693011 0.000000
vt 0.693011 0.500000
vt 0.638342 0.500000
vt 0.693011 1.000000
vt 0.638342 1.000000
vt 0.543118 0.000000
vt 0.589733 0.000000
vt 0.589733 0.500000
vt 0.543118 0.500000
vt 0.589733 1.000000
vt 0.543118 1.000000
vt 0.439323 0.000000
vt 0.493011 0.000000
vt 0.493011 0.500000
vt 0.439323 0.500000
vt 0.493011 1.000000
vt 0.439323 1.000000
vt 0.326821 0.000000
vt 0.383384 0.000000
vt 0.383384 0.500000
vt 0.326821 0.500000
vt 0.383384 1.000000
vt 0.326821 1.000000
vt 0.217509 0.000000
vt 0.271195 0.000000
vt 0.271195 0.500000
vt 0.217509 0.500000
vt 0.271195 1.000000
vt 0.217509 1.000000
vt 0.113532 0.000000
vt 0.165890 0.000000
vt 0.165890 0.500000
vt 0.113532 0.500000
vt 0.165890 1.000000
vt 0.113532 1.000000
vt 0.000000 0.000000
vt 0.057837 0.000000
vt 0.057837 0.500000
vt 0.000000 0.500000
vt 0.057837 1.000000
vt 0.000000 1.000000
vt 0.949704 0.000000
vt 0.949704 0.500000
vt 1.000000 0.000000
vt 1.000000 0.500000
vt 1.000000 1.000000
vt 0.949704 1.000000
vn 0.0000 1.0000 0.0000
usemtl None
s off
f 1/1/1 21/2/1 51/3/1 23/4/1
f 21/2/1 2/5/1 50/6/1 51/3/1
f 51/3/1 50/6/1 5/7/1 24/8/1
f 23/4/1 51/3/1 24/8/1 4/9/1
f 3/10/1 22/11/1 52/12/1 27/13/1
f 22/11/1 1/1/1 23/4/1 52/12/1
f 52/12/1 23/4/1 4/9/1 25/14/1
f 27/13/1 52/12/1 25/14/1 6/15/1
f 9/16/1 30/17/1 53/18/1 29/19/1
f 30/17/1 3/10/1 27/13/1 53/18/1
f 53/18/1 27/13/1 6/15/1 26/20/1
f 29/19/1 53/18/1 26/20/1 7/21/1
f 10/22/1 31/23/1 54/24/1 33/25/1
f 31/23/1 9/16/1 29/19/1 54/24/1
f 54/24/1 29/19/1 7/21/1 28/26/1
f 33/25/1 54/24/1 28/26/1 8/27/1
f 11/28/1 32/29/1 55/30/1 35/31/1
f 32/29/1 10/22/1 33/25/1 55/30/1
f 55/30/1 33/25/1 8/27/1 36/32/1
f 35/31/1 55/30/1 36/32/1 13/33/1
f 12/34/1 34/35/1 56/36/1 39/37/1
f 34/35/1 11/28/1 35/31/1 56/36/1
f 56/36/1 35/31/1 13/33/1 37/38/1
f 39/37/1 56/36/1 37/38/1 14/39/1
f 17/40/1 42/41/1 57/42/1 41/43/1
f 42/41/1 12/34/1 39/37/1 57/42/1
f 57/42/1 39/37/1 14/39/1 38/44/1
f 41/43/1 57/42/1 38/44/1 15/45/1
f 18/46/1 43/47/1 58/48/1 45/49/1
f 43/47/1 17/40/1 41/43/1 58/48/1
f 58/48/1 41/43/1 15/45/1 40/50/1
f 45/49/1 58/48/1 40/50/1 16/51/1
f 19/52/1 44/53/1 59/54/1 47/55/1
f 44/53/1 18/46/1 45/49/1 59/54/1
f 59/54/1 45/49/1 16/51/1 48/56/1
f 47/55/1 59/54/1 48/56/1 20/57/1
f 2/5/1 46/58/1 60/59/1 50/6/1
f 46/58/1 19/60/1 47/61/1 60/59/1
f 60/59/1 47/61/1 20/62/1 49/63/1
f 50/6/1 60/59/1 49/63/1 5/7/1
o 1_Curve.028
v -3.772913 0.805906 -3.442704
v -1.580621 0.805916 -4.969642
v -4.993873 0.805916 -0.726617
v -3.467396 0.967100 -3.185043
v -1.433707 0.967102 -4.599062
v -4.603404 0.967102 -0.644912
v -1.748347 0.967103 -2.128234
v 3.742667 0.967103 -0.938919
v 2.260438 0.967103 2.113459
v -0.454202 0.967103 -3.716613
v -3.045348 0.967103 0.269164
v -0.232740 0.967103 4.237992
v -3.446082 0.967103 3.104072
v -2.262219 0.967103 4.708520
v -4.412027 0.967103 2.950523
v -2.501604 0.967103 5.111125
v -4.777458 0.805919 3.107690
v -2.675851 0.805919 5.468782
v 0.885426 0.805919 5.635357
v 4.189545 0.805919 3.504250
v 0.791065 0.967103 5.250594
v 3.883553 0.967103 3.249612
v 5.280385 0.967102 -0.051481
v 4.563459 0.967100 -3.177505
v 5.675593 0.805916 -0.023918
v 4.889402 0.805906 -3.405654
v 1.996921 0.805916 -5.288917
v 1.901694 0.967102 -4.902122
v 2.242504 0.967103 -3.962422
v 4.175150 0.967103 -2.907375
v -3.834752 0.000001 -3.494857
v -1.610357 0.000001 -5.044650
v -5.072906 0.000001 -0.743154
v -4.851423 0.000001 3.139502
v -2.711120 0.000001 5.541174
v 0.904525 0.000001 5.713236
v 4.251480 0.000001 3.555790
v 5.755586 0.000001 -0.018339
v 4.955376 0.000001 -3.451832
v 2.016195 0.000001 -5.367207
v -2.846883 0.805910 -4.327707
v -4.511549 0.805910 -2.274016
v -3.641966 0.946946 -3.332268
v -2.610209 0.967101 -4.005416
v -4.153686 0.967101 -2.095529
v -3.148766 0.967103 -2.957663
v 1.013942 0.967103 -1.380537
v 0.323669 0.967103 -0.055267
v -1.443930 0.967103 -3.233135
v -2.837833 0.967103 -1.286110
v -1.488046 0.967103 2.367829
v -0.476848 0.967103 1.150905
v -3.677329 0.967103 1.635596
v -4.263246 0.967103 -0.513428
v -2.102829 0.967103 3.663265
v -2.937454 0.967103 4.152317
v -4.131454 0.967103 2.900976
v -4.709314 0.967103 1.170344
v -3.674546 0.967103 4.283544
v -4.620831 0.946955 3.040327
v -5.106195 0.805919 1.204229
v -3.962345 0.805919 4.555947
v -0.986245 0.805919 5.842932
v -2.601167 0.946955 5.315488
v 2.686364 0.805919 4.823219
v 0.844982 0.946955 5.470445
v -0.945733 0.967103 5.448431
v 2.473618 0.967103 4.487691
v 0.641315 0.967103 4.970428
v 4.838133 0.967103 1.671356
v 4.058394 0.946955 3.395111
v 3.575590 0.967103 3.015566
v 5.189486 0.967101 -1.719351
v 5.506204 0.946953 -0.035732
v 4.954217 0.967103 -0.148173
v 5.206299 0.805919 1.821172
v 5.572566 0.805910 -1.823241
v 3.651109 0.805910 -4.611312
v 4.749701 0.946946 -3.307868
v 0.133049 0.805919 -5.352597
v 1.956106 0.946953 -5.123134
v 3.428132 0.967101 -4.283852
v 0.166137 0.967103 -4.955490
v 1.902645 0.967103 -4.615488
v 3.052340 0.967103 -2.713870
v 3.429896 0.967103 -3.542331
v 0.793883 0.967103 -4.047202
v 4.443427 0.967103 -2.003326
v 4.367013 0.967103 -3.040276
v -2.390904 0.967103 4.899745
v -1.311962 0.967103 4.817448
v 1.423935 0.967103 3.550287
v 1.310884 0.967103 -2.556439
v -1.247013 0.967103 -4.326674
v 3.530297 0.967103 0.934258
v -4.826515 0.946953 -0.691597
v -1.517653 0.946953 -4.810809
v -2.894787 0.000001 -4.392940
v -4.583982 0.000001 -2.310143
v -5.186526 0.000001 1.211087
v -4.020597 0.000001 4.611083
v -0.994445 0.000001 5.922781
v 2.729425 0.000001 4.891132
v 5.280818 0.000001 1.851496
v 5.650104 0.000001 -1.844269
v 3.696242 0.000001 -4.677592
v 0.126352 0.000001 -5.432973
v -3.827022 0.463395 -3.488338
v -1.606640 0.463402 -5.035274
v -5.063027 0.463402 -0.741087
v -4.842178 0.463404 3.135525
v -2.706711 0.463404 5.532125
v 0.902138 0.463404 5.703501
v 4.243737 0.463404 3.549348
v 5.745586 0.463402 -0.019037
v 4.947129 0.463395 -3.446060
v 2.013786 0.463402 -5.357420
v -2.745443 0.946948 -4.189570
v -4.358165 0.946948 -2.197515
v -2.361141 0.967103 -3.765205
v -3.832053 0.967103 -1.916464
v 1.799585 0.967103 -0.075866
v 0.205167 0.967103 -2.444063
v -1.133100 0.967103 -0.162032
v -0.048509 0.967103 2.437677
v -2.542253 0.967103 2.514590
v -4.404278 0.967103 1.211519
v -2.070096 0.967103 4.331406
v -3.459086 0.967103 4.146058
v -4.936089 0.946955 1.189705
v -3.838991 0.946955 4.439193
v -0.968881 0.946955 5.673845
v 2.595179 0.946955 4.679408
v -0.969494 0.967103 5.195448
v 2.248915 0.967103 4.224255
v 5.048501 0.946955 1.756960
v 4.515339 0.967103 1.512198
v 5.408374 0.946948 -1.778713
v 4.925793 0.967103 -1.704710
v 3.555540 0.946948 -4.470960
v 0.147231 0.946955 -5.182393
v 3.327961 0.967103 -4.050541
v 0.259076 0.967103 -4.668270
v 1.792992 0.967103 -3.088536
v 3.773701 0.967103 -2.718574
v -2.888799 0.463397 -4.384786
v -4.574928 0.463397 -2.305627
v -5.176485 0.463404 1.210230
v -4.013316 0.463404 4.604191
v -0.993420 0.463404 5.912800
v 2.724042 0.463404 4.882643
v 5.271503 0.463404 1.847705
v 5.640411 0.463397 -1.841640
v 3.690599 0.463397 -4.669307
v 0.127189 0.463403 -5.422925
vt 0.000000 0.000000
vt 0.000000 0.000000
vt 0.000000 0.000000
vt 0.000000 0.000000
vt 0.000000 0.000000
vt 0.000000 0.000000
vt 0.000000 0.000000
vt 0.000000 0.000000
vt 0.000000 0.000000
vt 0.000000 0.000000
vt 0.000000 0.000000
vt 0.000000 0.000000
vt 0.000000 0.000000
vt 0.000000 0.000000
vt 0.000000 0.000000
vt 0.000000 0.000000
vt 0.000000 0.000000
vt 0.000000 0.000000
vt 0.000000 0.000000
vt 0.000000 0.000000
vt 0.000000 0.000000
vt 0.000000 0.000000
vt 0.000000 0.000000
vt 0.000000 0.000000
vt 0.000000 0.000000
vt 0.000000 0.000000
vt 0.000000 0.000000
vt 0.000000 0.000000
vt 0.000000 0.000000
vt 0.000000 0.000000
vt 0.000000 0.000000
vt 0.000000 0.000000
vt 0.000000 0.000000
vt 0.000000 0.000000
vt 0.000000 0.000000
vt 0.000000 0.000000
vt 0.000000 0.000000
vt 0.000000 0.000000
vt 0.000000 0.000000
vt 0.000000 0.000000
vt 0.000000 0.000000
vt 0.000000 0.000000
vt 0.000000 0.000000
vt 0.000000 0.000000
vt 0.000000 0.000000
vt 0.000000 0.000000
vt 0.000000 0.000000
vt 0.000000 0.000000
vt 0.000000 0.000000
vt 0.000000 0.000000
vt 0.000000 0.000000
vt 0.000000 0.000000
vt 0.000000 0.000000
vt 0.000000 0.000000
vt 0.000000 0.000000
vt 0.000000 0.000000
vt 0.000000 0.000000
vt 0.000000 0.000000
vt 0.000000 0.000000
vt 0.000000 0.000000
vt 0.000000 0.000000
vt 0.000000 0.000000
vt 0.000000 0.000000
vt 0.000000 0.000000
vt 0.000000 0.000000
vt 0.000000 0.000000
vt 0.000000 0.000000
vt 0.000000 0.000000
vt 0.000000 0.000000
vt 0.000000 0.000000
vt 0.000000 0.000000
vt 0.000000 0.000000
vt 0.000000 0.000000
vt 0.000000 0.000000
vt 0.000000 0.000000
vt 0.000000 0.000000
vt 0.000000 0.000000
vt 0.000000 0.000000
vt 0.000000 0.000000
vt 0.000000 0.000000
vt 0.000000 0.000000
vt 0.000000 0.000000
vt 0.000000 0.000000
vt 0.000000 0.000000
vt 0.000000 0.000000
vt 0.000000 0.000000
vt 0.000000 0.000000
vt 0.000000 0.000000
vt 0.000000 0.000000
vt 0.000000 0.000000
vt 0.000000 0.000000
vt 0.000000 0.000000
vt 0.000000 0.000000
vt 0.000000 0.000000
vt 0.000000 0.000000
vt 0.000000 0.000000
vt 0.000000 0.000000
vt 0.000000 0.000000
vt 0.000000 0.000000
vt 0.000000 0.000000
vt 0.000000 0.000000
vt 0.000000 0.000000
vt 0.000000 0.000000
vt 0.000000 0.000000
vt 0.000000 0.000000
vt 0.000000 0.000000
vt 0.000000 0.000000
vt 0.000000 0.000000
vt 0.000000 0.000000
vt 0.000000 0.000000
vt 0.000000 0.000000
vt 0.000000 0.000000
vt 0.000000 0.000000
vt 0.000000 0.000000
vt 0.000000 0.000000
vt 0.000000 0.000000
vt 0.000000 0.000000
vt 0.000000 0.000000
vt 0.000000 0.000000
vt 0.000000 0.000000
vt 0.000000 0.000000
vt 0.000000 0.000000
vt 0.000000 0.000000
vt 0.000000 0.000000
vt 0.000000 0.000000
vt 0.000000 0.000000
vt 0.000000 0.000000
vt 0.000000 0.000000
vt 0.000000 0.000000
vt 0.000000 0.000000
vt 0.000000 0.000000
vt 0.000000 0.000000
vt 0.000000 0.000000
vt 0.000000 0.000000
vt 0.000000 0.000000
vt 0.000000 0.000000
vt 0.000000 0.000000
vt 0.000000 0.000000
vt 0.000000 0.000000
vt 0.000000 0.000000
vt 0.000000 0.000000
vt 0.000000 0.000000
vt 0.000000 0.000000
vt 0.000000 0.000000
vt 0.000000 0.000000
vt 0.000000 0.000000
vt 0.000000 0.000000
vt 0.000000 0.000000
vt 0.000000 0.000000
vt 0.000000 0.000000
vt 0.000000 0.000000
vt 0.000000 0.000000
vt 0.000000 0.000000
vt 0.000000 0.000000
vt 0.000000 0.000000
vn -0.0159 0.9988 -0.0449
vn -0.1342 0.9167 -0.3763
vn -0.2315 0.9159 -0.3278
vn -0.0276 0.9988 -0.0392
vn -0.2920 0.5041 -0.8127
vn -0.4991 0.5040 -0.7048
vn -0.6675 0.5057 -0.5465
vn -0.3082 0.9174 -0.2517
vn -0.0367 0.9989 -0.0299
vn -0.3628 0.9168 -0.1668
vn -0.0433 0.9988 -0.0198
vn -0.7834 0.5048 -0.3624
vn -0.8494 0.5044 -0.1549
vn -0.3927 0.9169 -0.0709
vn -0.0468 0.9988 -0.0084
vn 0.0000 1.0000 0.0000
vn -0.0475 0.9988 0.0025
vn -0.0464 0.9988 0.0159
vn -0.0375 0.9987 0.0334
vn -0.0198 0.9987 0.0456
vn -0.3989 0.9167 0.0219
vn -0.8627 0.5033 0.0491
vn -0.8160 0.4991 0.2915
vn -0.3847 0.9131 0.1346
vn -0.3077 0.9107 0.2757
vn -0.6443 0.4974 0.5809
vn -0.3522 0.4980 0.7924
vn -0.1653 0.9117 0.3761
vn -0.0204 0.9132 0.4068
vn -0.0023 0.9988 0.0490
vn -0.0473 0.4989 0.8653
vn 0.2282 0.4996 0.8356
vn 0.1079 0.9138 0.3916
vn 0.0131 0.9988 0.0470
vn 0.2190 0.9146 0.3398
vn 0.0263 0.9988 0.0407
vn 0.4683 0.5009 0.7278
vn 0.6635 0.5013 0.5554
vn 0.3099 0.9146 0.2596
vn 0.0372 0.9988 0.0311
vn 0.3725 0.9148 0.1562
vn 0.0446 0.9988 0.0187
vn 0.7983 0.5012 0.3338
vn 0.8620 0.5000 0.0825
vn 0.4035 0.9141 0.0396
vn 0.0485 0.9988 0.0049
vn 0.3974 0.9129 -0.0929
vn 0.0479 0.9988 -0.0111
vn 0.8431 0.4990 -0.2000
vn 0.7139 0.4983 -0.4919
vn 0.3380 0.9120 -0.2325
vn 0.0409 0.9987 -0.0281
vn 0.2243 0.9120 -0.3432
vn 0.0271 0.9987 -0.0416
vn 0.4757 0.4983 -0.7248
vn 0.1824 0.4995 -0.8469
vn 0.0846 0.9131 -0.3988
vn 0.0100 0.9988 -0.0481
vn -0.0374 0.9162 -0.3990
vn -0.0045 0.9988 -0.0476
vn -0.0800 0.5029 -0.8606
vn -0.5743 0.1119 -0.8109
vn -0.7689 0.1118 -0.6295
vn -0.3360 0.1113 -0.9352
vn -0.3379 0.0217 -0.9409
vn -0.5777 0.0219 -0.8159
vn -0.7736 0.0218 -0.6333
vn -0.9019 0.1118 -0.4172
vn -0.9776 0.1114 -0.1783
vn -0.9074 0.0218 -0.4197
vn -0.9836 0.0217 -0.1793
vn -0.9922 0.1108 0.0566
vn -0.9359 0.1107 0.3345
vn -0.9981 0.0216 0.0569
vn -0.9415 0.0216 0.3363
vn -0.7380 0.1112 0.6655
vn -0.4037 0.1110 0.9081
vn -0.7425 0.0218 0.6694
vn -0.4060 0.0217 0.9136
vn -0.0543 0.1104 0.9924
vn 0.2617 0.1105 0.9588
vn -0.0544 0.0216 0.9983
vn 0.2633 0.0216 0.9644
vn 0.5377 0.1108 0.8358
vn 0.7620 0.1110 0.6379
vn 0.5409 0.0216 0.8408
vn 0.7666 0.0217 0.6417
vn 0.9169 0.1108 0.3833
vn 0.9893 0.1105 0.0946
vn 0.9224 0.0216 0.3856
vn 0.9952 0.0216 0.0953
vn 0.9670 0.1108 -0.2295
vn 0.8183 0.1110 -0.5639
vn 0.9728 0.0217 -0.2307
vn 0.8232 0.0217 -0.5673
vn 0.5453 0.1109 -0.8308
vn 0.2093 0.1110 -0.9715
vn 0.5485 0.0217 -0.8358
vn 0.2105 0.0217 -0.9773
vn -0.0919 0.1109 -0.9896
vn -0.0924 0.0216 -0.9955
usemtl None
s 1
f 65/64/2 157/65/3 178/66/4 104/67/5
f 157/65/3 62/68/6 101/69/7 178/66/4
f 178/66/4 101/69/7 61/70/8 103/71/9
f 104/67/5 178/66/4 103/71/9 64/72/10
f 64/72/10 103/71/9 179/73/11 105/74/12
f 103/71/9 61/70/8 102/75/13 179/73/11
f 179/73/11 102/75/13 63/76/14 156/77/15
f 105/74/12 179/73/11 156/77/15 66/78/16
f 70/79/17 154/80/17 180/81/17 109/82/17
f 154/80/17 65/64/2 104/67/5 180/81/17
f 180/81/17 104/67/5 64/72/10 106/83/17
f 109/82/17 180/81/17 106/83/17 67/84/17
f 67/84/17 106/83/17 181/85/17 110/86/17
f 106/83/17 64/72/10 105/74/12 181/85/17
f 181/85/17 105/74/12 66/78/16 114/87/17
f 110/86/17 181/85/17 114/87/17 71/88/17
f 68/89/17 107/90/17 182/91/17 155/92/17
f 67/84/17 108/93/17 182/91/17 107/90/17
f 69/94/17 155/92/17 182/91/17 108/93/17
f 67/84/17 107/90/17 183/95/17 109/82/17
f 68/89/17 153/96/17 183/95/17 107/90/17
f 70/79/17 109/82/17 183/95/17 153/96/17
f 71/88/17 112/97/17 184/98/17 110/86/17
f 69/94/17 108/93/17 184/98/17 112/97/17
f 67/84/17 110/86/17 184/98/17 108/93/17
f 69/94/17 112/97/17 185/99/17 152/100/17
f 71/88/17 111/101/17 185/99/17 112/97/17
f 72/102/17 152/100/17 185/99/17 111/101/17
f 73/103/17 115/104/17 186/105/17 113/106/17
f 72/102/17 111/101/17 186/105/17 115/104/17
f 71/88/17 113/106/17 186/105/17 111/101/17
f 71/88/17 114/87/17 187/107/17 113/106/17
f 114/87/17 66/78/16 118/108/18 187/107/17
f 187/107/17 118/108/18 75/109/19 117/110/17
f 113/106/17 187/107/17 117/110/17 73/103/17
f 72/102/17 115/104/17 188/111/17 151/112/17
f 73/103/17 116/113/17 188/111/17 115/104/17
f 74/114/17 151/112/17 188/111/17 116/113/17
f 73/103/17 117/110/17 189/115/17 116/113/17
f 117/110/17 75/109/19 119/116/20 189/115/17
f 189/115/17 119/116/20 76/117/21 150/118/17
f 116/113/17 189/115/17 150/118/17 74/114/17
f 66/78/16 156/77/15 190/119/22 118/108/18
f 156/77/15 63/76/14 121/120/23 190/119/22
f 190/119/22 121/120/23 77/121/24 120/122/25
f 118/108/18 190/119/22 120/122/25 75/109/19
f 75/109/19 120/122/25 191/123/26 119/116/20
f 120/122/25 77/121/24 122/124/27 191/123/26
f 191/123/26 122/124/27 78/125/28 124/126/29
f 119/116/20 191/123/26 124/126/29 76/117/21
f 76/117/21 124/126/29 192/127/30 127/128/31
f 124/126/29 78/125/28 123/129/32 192/127/30
f 192/127/30 123/129/32 79/130/33 126/131/34
f 127/128/31 192/127/30 126/131/34 81/132/35
f 81/132/35 126/131/34 193/133/36 128/134/37
f 126/131/34 79/130/33 125/135/38 193/133/36
f 193/133/36 125/135/38 80/136/39 131/137/40
f 128/134/37 193/133/36 131/137/40 82/138/41
f 74/114/17 150/118/17 194/139/17 151/112/17
f 150/118/17 76/117/21 127/128/31 194/139/17
f 194/139/17 127/128/31 81/132/35 129/140/17
f 151/112/17 194/139/17 129/140/17 72/102/17
f 72/102/17 129/140/17 195/141/17 152/100/17
f 129/140/17 81/132/35 128/134/37 195/141/17
f 195/141/17 128/134/37 82/138/41 132/142/17
f 152/100/17 195/141/17 132/142/17 69/94/17
f 82/138/41 131/137/40 196/143/42 130/144/43
f 131/137/40 80/136/39 136/145/44 196/143/42
f 196/143/42 136/145/44 85/146/45 134/147/46
f 130/144/43 196/143/42 134/147/46 83/148/47
f 69/94/17 132/142/17 197/149/17 155/92/17
f 132/142/17 82/138/41 130/144/43 197/149/17
f 197/149/17 130/144/43 83/148/47 135/150/17
f 155/92/17 197/149/17 135/150/17 68/89/17
f 83/148/47 134/147/46 198/151/48 133/152/49
f 134/147/46 85/146/45 137/153/50 198/151/48
f 198/151/48 137/153/50 86/154/51 139/155/52
f 133/152/49 198/151/48 139/155/52 84/156/53
f 68/89/17 135/150/17 199/157/17 148/158/17
f 135/150/17 83/148/47 133/152/49 199/157/17
f 199/157/17 133/152/49 84/156/53 149/159/17
f 148/158/17 199/157/17 149/159/17 90/160/17
f 84/156/53 139/155/52 200/161/54 142/162/55
f 139/155/52 86/154/51 138/163/56 200/161/54
f 200/161/54 138/163/56 87/164/57 141/165/58
f 142/162/55 200/161/54 141/165/58 88/166/59
f 88/166/59 141/165/58 201/167/60 143/168/61
f 141/165/58 87/164/57 140/169/62 201/167/60
f 201/167/60 140/169/62 62/68/6 157/65/3
f 143/168/61 201/167/60 157/65/3 65/64/2
f 90/160/17 149/159/17 202/170/17 146/171/17
f 149/159/17 84/156/53 142/162/55 202/170/17
f 202/170/17 142/162/55 88/166/59 144/172/17
f 146/171/17 202/170/17 144/172/17 89/173/17
f 89/173/17 144/172/17 203/174/17 147/175/17
f 144/172/17 88/166/59 143/168/61 203/174/17
f 203/174/17 143/168/61 65/64/2 154/80/17
f 147/175/17 203/174/17 154/80/17 70/79/17
f 70/79/17 153/96/17 204/176/17 147/175/17
f 68/89/17 145/177/17 204/176/17 153/96/17
f 89/173/17 147/175/17 204/176/17 145/177/17
f 89/173/17 145/177/17 205/178/17 146/171/17
f 68/89/17 148/158/17 205/178/17 145/177/17
f 90/160/17 146/171/17 205/178/17 148/158/17
f 61/70/8 101/69/7 206/179/63 168/180/64
f 101/69/7 62/68/6 169/181/65 206/179/63
f 206/179/63 169/181/65 92/182/66 158/183/67
f 168/180/64 206/179/63 158/183/67 91/184/68
f 63/76/14 102/75/13 207/185/69 170/186/70
f 102/75/13 61/70/8 168/180/64 207/185/69
f 207/185/69 168/180/64 91/184/68 159/187/71
f 170/186/70 207/185/69 159/187/71 93/188/72
f 77/121/24 121/120/23 208/189/73 171/190/74
f 121/120/23 63/76/14 170/186/70 208/189/73
f 208/189/73 170/186/70 93/188/72 160/191/75
f 171/190/74 208/189/73 160/191/75 94/192/76
f 78/125/28 122/124/27 209/193/77 172/194/78
f 122/124/27 77/121/24 171/190/74 209/193/77
f 209/193/77 171/190/74 94/192/76 161/195/79
f 172/194/78 209/193/77 161/195/79 95/196/80
f 79/130/33 123/129/32 210/197/81 173/198/82
f 123/129/32 78/125/28 172/194/78 210/197/81
f 210/197/81 172/194/78 95/196/80 162/199/83
f 173/198/82 210/197/81 162/199/83 96/200/84
f 80/136/39 125/135/38 211/201/85 174/202/86
f 125/135/38 79/130/33 173/198/82 211/201/85
f 211/201/85 173/198/82 96/200/84 163/203/87
f 174/202/86 211/201/85 163/203/87 97/204/88
f 85/146/45 136/145/44 212/205/89 175/206/90
f 136/145/44 80/136/39 174/202/86 212/205/89
f 212/205/89 174/202/86 97/204/88 164/207/91
f 175/206/90 212/205/89 164/207/91 98/208/92
f 86/154/51 137/153/50 213/209/93 176/210/94
f 137/153/50 85/146/45 175/206/90 213/209/93
f 213/209/93 175/206/90 98/208/92 165/211/95
f 176/210/94 213/209/93 165/211/95 99/212/96
f 87/164/57 138/163/56 214/213/97 177/214/98
f 138/163/56 86/154/51 176/210/94 214/213/97
f 214/213/97 176/210/94 99/212/96 166/215/99
f 177/214/98 214/213/97 166/215/99 100/216/100
f 62/68/6 140/169/62 215/217/101 169/181/65
f 140/169/62 87/164/57 177/214/98 215/217/101
f 215/217/101 177/214/98 100/216/100 167/218/102
f 169/181/65 215/217/101 167/218/102 92/182/66
