# Blender v2.91.0 OBJ File: 'islands.blend'
# www.blender.org
mtllib 3.mtl
o 3_foam_Curve.012
v -4.727567 0.000001 2.073566
v -2.715965 0.000001 4.322645
v 0.921957 0.000001 5.697268
v 3.985925 0.000001 4.716946
v 5.611718 0.000001 1.482865
v 4.999678 0.000001 -2.451862
v 2.344566 0.000001 -5.278012
v -1.117972 0.000001 -5.941361
v -4.062041 0.000001 -4.033510
v -5.240284 0.000001 -0.588561
v -8.019937 0.000001 3.517639
v -4.607417 0.000001 7.333021
v 1.564026 0.000001 9.664957
v 6.761801 0.000001 8.001922
v 9.519826 0.000001 2.515563
v 8.481548 0.000001 -4.159384
v 3.977367 0.000001 -8.953719
v -1.896553 0.000001 -10.079039
v -6.890929 0.000001 -6.842524
v -8.889721 0.000001 -0.998445
v -5.166449 0.000001 0.849854
v -0.976332 0.000001 5.220222
v 5.031897 0.000001 3.303250
v 5.601699 0.000001 -0.518637
v 3.860382 0.000001 -4.084701
v -2.749491 0.000001 -5.288633
v -4.889734 0.000001 -2.333287
v 0.633193 0.000001 -5.923259
v -3.949291 0.000001 3.239405
v 2.604142 0.000001 5.535770
v -8.764465 0.000001 1.441709
v -1.656270 0.000001 8.855688
v 8.536207 0.000001 5.603700
v 9.502829 0.000001 -0.879824
v 6.548826 0.000001 -6.929363
v -4.664292 0.000001 -8.971736
v -8.295042 0.000001 -3.958232
v 1.074159 0.000001 -10.048328
v -6.699655 0.000001 5.495391
v 4.417716 0.000001 9.390991
v -1.507263 0.000001 -8.010201
v -5.476485 0.000001 -5.438017
v 5.373863 0.000001 6.359435
v 7.565772 0.000001 1.999214
v 1.242991 0.000001 7.681113
v -7.065002 0.000001 -0.793503
v 6.740613 0.000001 -3.305623
v -6.373752 0.000001 2.795602
v 3.160967 0.000001 -7.115866
v -3.661691 0.000001 5.827833
v -3.706891 0.000001 -7.130184
v 6.784051 0.000001 4.453475
v 3.510928 0.000001 7.463380
v -6.592388 0.000001 -3.145759
v 7.552263 0.000001 -0.699231
v -6.965457 0.000001 1.145782
v 0.853676 0.000001 -7.985794
v 5.204604 0.000001 -5.507032
v -1.316301 0.000001 7.037954
v -5.324473 0.000001 4.367398
vt 0.000000 0.000000
vt 0.057837 0.000000
vt 0.057837 0.500000
vt 0.000000 0.500000
vt 0.113532 0.000000
vt 0.113532 0.500000
vt 0.113532 1.000000
vt 0.057837 1.000000
vt 0.000000 1.000000
vt 0.439323 0.000000
vt 0.493011 0.000000
vt 0.493011 0.500000
vt 0.439323 0.500000
vt 0.543118 0.000000
vt 0.543118 0.500000
vt 0.543118 1.000000
vt 0.493011 1.000000
vt 0.439323 1.000000
vt 0.589733 0.000000
vt 0.589733 0.500000
vt 0.638342 0.000000
vt 0.638342 0.500000
vt 0.638342 1.000000
vt 0.589733 1.000000
vt 0.903995 0.000000
vt 0.949704 0.000000
vt 0.949704 0.500000
vt 0.903995 0.500000
vt 1.000000 0.000000
vt 1.000000 0.500000
vt 1.000000 1.000000
vt 0.949704 1.000000
vt 0.903995 1.000000
vt 0.326821 0.000000
vt 0.383384 0.000000
vt 0.383384 0.500000
vt 0.326821 0.500000
vt 0.383384 1.000000
vt 0.326821 1.000000
vt 0.830261 0.000000
vt 0.865656 0.000000
vt 0.865656 0.500000
vt 0.830261 0.500000
vt 0.865656 1.000000
vt 0.830261 1.000000
vt 0.165890 0.000000
vt 0.165890 0.500000
vt 0.217509 0.000000
vt 0.217509 0.500000
vt 0.217509 1.000000
vt 0.165890 1.000000
vt 0.271195 0.000000
vt 0.271195 0.500000
vt 0.271195 1.000000
vt 0.693011 0.000000
vt 0.693011 0.500000
vt 0.746737 0.000000
vt 0.746737 0.500000
vt 0.746737 1.000000
vt 0.693011 1.000000
vt 0.791998 0.000000
vt 0.791998 0.500000
vt 0.791998 1.000000
vn 0.0000 1.0000 0.0000
usemtl None
s off
f 9/1/1 26/2/1 51/3/1 42/4/1
f 26/2/1 8/5/1 41/6/1 51/3/1
f 51/3/1 41/6/1 18/7/1 36/8/1
f 42/4/1 51/3/1 36/8/1 19/9/1
f 5/10/1 23/11/1 52/12/1 44/13/1
f 23/11/1 4/14/1 43/15/1 52/12/1
f 52/12/1 43/15/1 14/16/1 33/17/1
f 44/13/1 52/12/1 33/17/1 15/18/1
f 4/14/1 30/19/1 53/20/1 43/15/1
f 30/19/1 3/21/1 45/22/1 53/20/1
f 53/20/1 45/22/1 13/23/1 40/24/1
f 43/15/1 53/20/1 40/24/1 14/16/1
f 10/25/1 27/26/1 54/27/1 46/28/1
f 27/26/1 9/29/1 42/30/1 54/27/1
f 54/27/1 42/30/1 19/31/1 37/32/1
f 46/28/1 54/27/1 37/32/1 20/33/1
f 6/34/1 24/35/1 55/36/1 47/37/1
f 24/35/1 5/10/1 44/13/1 55/36/1
f 55/36/1 44/13/1 15/18/1 34/38/1
f 47/37/1 55/36/1 34/38/1 16/39/1
f 1/40/1 21/41/1 56/42/1 48/43/1
f 21/41/1 10/25/1 46/28/1 56/42/1
f 56/42/1 46/28/1 20/33/1 31/44/1
f 48/43/1 56/42/1 31/44/1 11/45/1
f 8/5/1 28/46/1 57/47/1 41/6/1
f 28/46/1 7/48/1 49/49/1 57/47/1
f 57/47/1 49/49/1 17/50/1 38/51/1
f 41/6/1 57/47/1 38/51/1 18/7/1
f 7/48/1 25/52/1 58/53/1 49/49/1
f 25/52/1 6/34/1 47/37/1 58/53/1
f 58/53/1 47/37/1 16/39/1 35/54/1
f 49/49/1 58/53/1 35/54/1 17/50/1
f 3/21/1 22/55/1 59/56/1 45/22/1
f 22/55/1 2/57/1 50/58/1 59/56/1
f 59/56/1 50/58/1 12/59/1 32/60/1
f 45/22/1 59/56/1 32/60/1 13/23/1
f 2/57/1 29/61/1 60/62/1 50/58/1
f 29/61/1 1/40/1 48/43/1 60/62/1
f 60/62/1 48/43/1 11/45/1 39/63/1
f 50/58/1 60/62/1 39/63/1 12/59/1
o 3_Curve.023
v -4.678384 0.805919 2.049365
v -5.183255 0.805919 -0.574143
v -2.692343 0.805919 4.268266
v -4.318841 0.967103 1.874836
v -4.784947 0.967103 -0.557874
v -2.459085 0.967103 3.944640
v -2.654906 0.967103 0.733217
v 0.662167 0.967103 -3.801398
v 2.849390 0.967103 -1.207158
v -3.580722 0.967103 -1.094521
v -0.990971 0.967103 2.892163
v 3.778131 0.967103 1.934022
v 1.436797 0.967103 4.409805
v 3.383787 0.967103 3.979670
v 0.904148 0.967103 5.230115
v 3.654457 0.967103 4.361944
v 0.899340 0.805919 5.627881
v 3.910508 0.805919 4.666439
v 5.509204 0.805919 1.479810
v 4.903834 0.805919 -2.405076
v 5.119282 0.967103 1.409758
v 4.546863 0.967103 -2.228887
v 2.097679 0.967102 -4.846112
v -1.050068 0.967100 -5.460680
v 2.283387 0.805916 -5.196057
v -1.126162 0.805906 -5.851194
v -4.021920 0.805916 -3.972974
v -3.707147 0.967102 -3.728851
v -2.710023 0.967103 -3.658606
v -0.960943 0.967103 -4.996127
v -4.751157 0.000001 2.084690
v -5.263875 0.000001 -0.577436
v -2.739556 0.000001 4.333769
v 0.898367 0.000001 5.708392
v 3.962335 0.000001 4.728071
v 5.588127 0.000001 1.493989
v 4.976087 0.000001 -2.440737
v 2.320976 0.000001 -5.266888
v -1.141563 0.000001 -5.930237
v -4.085632 0.000001 -4.022386
v -5.110973 0.805919 0.843699
v -3.910449 0.805919 3.199013
v -4.524281 0.946955 1.974560
v -4.720334 0.967103 0.758331
v -3.601995 0.967103 2.944493
v -3.981644 0.967103 1.676027
v -0.849705 0.967103 -1.487266
v 0.080956 0.967103 -0.318212
v -3.540918 0.967103 0.006265
v -2.327891 0.967103 2.070832
v 1.559313 0.967103 2.321515
v 0.858008 0.967103 0.903209
v 0.000981 0.967103 4.024667
v -2.200773 0.967103 3.687210
v 2.493375 0.967103 3.409470
v 2.601270 0.967103 4.370785
v 0.972832 0.967103 4.953605
v -0.843325 0.967103 4.778722
v 2.421801 0.967103 5.097639
v 0.901400 0.946955 5.457396
v -0.973562 0.805919 5.155154
v 2.553828 0.805919 5.471270
v 4.938671 0.805919 3.274449
v 3.800763 0.946955 4.535931
v 5.498559 0.805919 -0.495748
v 5.342080 0.946955 1.449785
v 4.594632 0.967103 3.077196
v 5.105544 0.967103 -0.437623
v 4.802444 0.967103 1.432804
v 3.492376 0.967103 -3.742219
v 4.750834 0.946955 -2.329559
v 4.207906 0.967103 -2.042534
v 0.536662 0.967101 -5.440485
v 2.203791 0.946953 -5.046068
v 1.876842 0.967103 -4.587332
v 3.778815 0.805919 -4.017797
v 0.597324 0.805910 -5.832740
v -2.730846 0.805910 -5.209346
v -1.093548 0.946946 -5.683817
v -4.837158 0.805919 -2.295636
v -3.887006 0.946953 -3.868341
v -2.522180 0.967101 -4.872584
v -4.460843 0.967103 -2.164578
v -3.444834 0.967103 -3.613298
v -1.240169 0.967103 -3.891508
v -1.843864 0.967103 -4.573014
v -3.375880 0.967103 -2.369293
v -0.025860 0.967103 -4.874080
v -1.004459 0.967102 -5.225430
v 3.506261 0.967103 4.174932
v 3.869290 0.967103 3.155569
v 3.822598 0.967103 0.140831
v -1.803635 0.967103 -2.236226
v -4.460210 0.967103 -0.617839
v 2.287614 0.967103 -2.846507
v -2.592367 0.946955 4.129557
v -5.012538 0.946955 -0.567170
v -5.190040 0.000001 0.860978
v -3.972882 0.000001 3.250529
v -0.999923 0.000001 5.231346
v 2.580551 0.000001 5.546895
v 5.008307 0.000001 3.314374
v 5.578108 0.000001 -0.507513
v 3.836792 0.000001 -4.073577
v 0.609602 0.000001 -5.912135
v -2.773081 0.000001 -5.277508
v -4.913326 0.000001 -2.322163
v -4.742061 0.463404 2.080275
v -5.253798 0.463404 -0.577025
v -2.733654 0.463404 4.325582
v 0.898488 0.463404 5.698328
v 3.955857 0.463404 4.720366
v 5.578262 0.463404 1.492217
v 4.967055 0.463404 -2.436280
v 2.316277 0.463402 -5.258034
v -1.139638 0.463395 -5.920357
v -4.077668 0.463402 -4.016209
v -4.943541 0.946955 0.807110
v -3.778243 0.946955 3.089923
v -4.399664 0.967103 0.628300
v -3.307728 0.967103 2.723317
v -2.150053 0.967103 -1.180181
v 0.661604 0.967103 -1.675267
v -0.608300 0.967103 0.969616
v 1.265236 0.967103 3.344457
v 2.207836 0.967103 1.034439
v -0.681803 0.967103 4.516706
v 3.117215 0.967103 3.650936
v 2.383680 0.967103 4.844910
v -0.917742 0.946955 4.993813
v 2.497240 0.946955 5.311128
v 4.791212 0.946955 3.189904
v 5.330110 0.946955 -0.470835
v 4.353806 0.967103 2.996155
v 4.773550 0.967103 -0.339290
v 3.215829 0.967103 -3.511896
v 3.656045 0.946955 -3.899683
v 0.442937 0.967103 -5.193576
v 0.571324 0.946948 -5.664617
v -2.641411 0.946948 -5.065008
v -4.675866 0.946955 -2.239464
v -2.349668 0.967103 -4.686285
v -4.160634 0.967103 -2.132846
v -0.951473 0.967103 -4.552597
v -2.094046 0.967103 -2.892898
v -5.180156 0.463404 0.858818
v -3.965077 0.463404 3.244090
v -0.996628 0.463404 5.221822
v 2.577210 0.463404 5.537441
v 4.999602 0.463404 3.309384
v 5.568164 0.463404 -0.506042
v 3.829544 0.463403 -4.066604
v 0.608067 0.463397 -5.902210
v -2.767802 0.463397 -5.268988
v -4.903804 0.463403 -2.318847
vt 0.000000 0.000000
vt 0.000000 0.000000
vt 0.000000 0.000000
vt 0.000000 0.000000
vt 0.000000 0.000000
vt 0.000000 0.000000
vt 0.000000 0.000000
vt 0.000000 0.000000
vt 0.000000 0.000000
vt 0.000000 0.000000
vt 0.000000 0.000000
vt 0.000000 0.000000
vt 0.000000 0.000000
vt 0.000000 0.000000
vt 0.000000 0.000000
vt 0.000000 0.000000
vt 0.000000 0.000000
vt 0.000000 0.000000
vt 0.000000 0.000000
vt 0.000000 0.000000
vt 0.000000 0.000000
vt 0.000000 0.000000
vt 0.000000 0.000000
vt 0.000000 0.000000
vt 0.000000 0.000000
vt 0.000000 0.000000
vt 0.000000 0.000000
vt 0.000000 0.000000
vt 0.000000 0.000000
vt 0.000000 0.000000
vt 0.000000 0.000000
vt 0.000000 0.000000
vt 0.000000 0.000000
vt 0.000000 0.000000
vt 0.000000 0.000000
vt 0.000000 0.000000
vt 0.000000 0.000000
vt 0.000000 0.000000
vt 0.000000 0.000000
vt 0.000000 0.000000
vt 0.000000 0.000000
vt 0.000000 0.000000
vt 0.000000 0.000000
vt 0.000000 0.000000
vt 0.000000 0.000000
vt 0.000000 0.000000
vt 0.000000 0.000000
vt 0.000000 0.000000
vt 0.000000 0.000000
vt 0.000000 0.000000
vt 0.000000 0.000000
vt 0.000000 0.000000
vt 0.000000 0.000000
vt 0.000000 0.000000
vt 0.000000 0.000000
vt 0.000000 0.000000
vt 0.000000 0.000000
vt 0.000000 0.000000
vt 0.000000 0.000000
vt 0.000000 0.000000
vt 0.000000 0.000000
vt 0.000000 0.000000
vt 0.000000 0.000000
vt 0.000000 0.000000
vt 0.000000 0.000000
vt 0.000000 0.000000
vt 0.000000 0.000000
vt 0.000000 0.000000
vt 0.000000 0.000000
vt 0.000000 0.000000
vt 0.000000 0.000000
vt 0.000000 0.000000
vt 0.000000 0.000000
vt 0.000000 0.000000
vt 0.000000 0.000000
vt 0.000000 0.000000
vt 0.000000 0.000000
vt 0.000000 0.000000
vt 0.000000 0.000000
vt 0.000000 0.000000
vt 0.000000 0.000000
vt 0.000000 0.000000
vt 0.000000 0.000000
vt 0.000000 0.000000
vt 0.000000 0.000000
vt 0.000000 0.000000
vt 0.000000 0.000000
vt 0.000000 0.000000
vt 0.000000 0.000000
vt 0.000000 0.000000
vt 0.000000 0.000000
vt 0.000000 0.000000
vt 0.000000 0.000000
vt 0.000000 0.000000
vt 0.000000 0.000000
vt 0.000000 0.000000
vt 0.000000 0.000000
vt 0.000000 0.000000
vt 0.000000 0.000000
vt 0.000000 0.000000
vt 0.000000 0.000000
vt 0.000000 0.000000
vt 0.000000 0.000000
vt 0.000000 0.000000
vt 0.000000 0.000000
vt 0.000000 0.000000
vt 0.000000 0.000000
vt 0.000000 0.000000
vt 0.000000 0.000000
vt 0.000000 0.000000
vt 0.000000 0.000000
vt 0.000000 0.000000
vt 0.000000 0.000000
vt 0.000000 0.000000
vt 0.000000 0.000000
vt 0.000000 0.000000
vt 0.000000 0.000000
vt 0.000000 0.000000
vt 0.000000 0.000000
vt 0.000000 0.000000
vt 0.000000 0.000000
vt 0.000000 0.000000
vt 0.000000 0.000000
vt 0.000000 0.000000
vt 0.000000 0.000000
vt 0.000000 0.000000
vt 0.000000 0.000000
vt 0.000000 0.000000
vt 0.000000 0.000000
vt 0.000000 0.000000
vt 0.000000 0.000000
vt 0.000000 0.000000
vt 0.000000 0.000000
vt 0.000000 0.000000
vt 0.000000 0.000000
vt 0.000000 0.000000
vt 0.000000 0.000000
vt 0.000000 0.000000
vt 0.000000 0.000000
vt 0.000000 0.000000
vt 0.000000 0.000000
vt 0.000000 0.000000
vt 0.000000 0.000000
vt 0.000000 0.000000
vt 0.000000 0.000000
vt 0.000000 0.000000
vt 0.000000 0.000000
vt 0.000000 0.000000
vt 0.000000 0.000000
vt 0.000000 0.000000
vt 0.000000 0.000000
vt 0.000000 0.000000
vt 0.000000 0.000000
vt 0.000000 0.000000
vt 0.000000 0.000000
vn -0.0475 0.9988 -0.0037
vn -0.3984 0.9167 -0.0302
vn -0.3935 0.9160 0.0783
vn -0.0471 0.9988 0.0093
vn -0.8613 0.5041 -0.0633
vn -0.8468 0.5040 0.1698
vn -0.7705 0.5057 0.3880
vn -0.3552 0.9174 0.1794
vn -0.0423 0.9989 0.0214
vn -0.2998 0.9168 0.2637
vn -0.0357 0.9988 0.0315
vn -0.6494 0.5049 0.5687
vn -0.4866 0.5044 0.7133
vn -0.2243 0.9169 0.3300
vn -0.0267 0.9988 0.0393
vn 0.0000 1.0000 0.0000
vn -0.0170 0.9988 0.0444
vn -0.0043 0.9988 0.0489
vn 0.0153 0.9987 0.0478
vn 0.0336 0.9987 0.0367
vn -0.1420 0.9167 0.3734
vn -0.3055 0.5033 0.8083
vn -0.0651 0.4991 0.8641
vn -0.0332 0.9131 0.4063
vn 0.1269 0.9107 0.3931
vn 0.2691 0.4974 0.8247
vn 0.5810 0.4980 0.6437
vn 0.2766 0.9117 0.3038
vn 0.3635 0.9132 0.1838
vn 0.0439 0.9988 0.0219
vn 0.7715 0.4989 0.3947
vn 0.8563 0.4996 0.1309
vn 0.4016 0.9138 0.0604
vn 0.0483 0.9988 0.0071
vn 0.3995 0.9146 -0.0621
vn 0.0479 0.9988 -0.0075
vn 0.8553 0.5009 -0.1323
vn 0.7770 0.5013 -0.3807
vn 0.3631 0.9146 -0.1778
vn 0.0435 0.9988 -0.0213
vn 0.0353 0.9988 -0.0332
vn 0.0241 0.9988 -0.0423
vn 0.2940 0.9148 -0.2770
vn 0.6293 0.5012 -0.5939
vn 0.4256 0.5000 -0.7542
vn 0.2001 0.9141 -0.3527
vn 0.0093 0.9988 -0.0483
vn -0.0090 0.9987 -0.0488
vn 0.0764 0.9129 -0.4009
vn 0.1596 0.4990 -0.8517
vn -0.1596 0.4983 -0.8521
vn -0.0751 0.9120 -0.4033
vn -0.2225 0.9120 -0.3444
vn -0.0270 0.9987 -0.0416
vn -0.4691 0.4983 -0.7291
vn -0.6998 0.4995 -0.5106
vn -0.3301 0.9131 -0.2393
vn -0.0399 0.9988 -0.0287
vn -0.3798 0.9162 -0.1279
vn -0.0454 0.9988 -0.0152
vn -0.8189 0.5029 -0.2764
vn -0.9743 0.1119 0.1954
vn -0.8875 0.1118 0.4469
vn -0.9911 0.1113 -0.0728
vn -0.9970 0.0217 -0.0734
vn -0.9803 0.0219 0.1965
vn -0.8929 0.0218 0.4496
vn -0.7476 0.1118 0.6547
vn -0.5600 0.1114 0.8209
vn -0.7521 0.0218 0.6587
vn -0.5633 0.0217 0.8260
vn -0.3512 0.1108 0.9297
vn -0.0744 0.1107 0.9911
vn -0.3533 0.0216 0.9352
vn -0.0751 0.0216 0.9969
vn 0.3084 0.1112 0.9447
vn 0.6658 0.1110 0.7378
vn 0.3101 0.0218 0.9504
vn 0.6699 0.0217 0.7421
vn 0.8848 0.1104 0.4527
vn 0.9825 0.1105 0.1502
vn 0.8901 0.0216 0.4552
vn 0.9883 0.0216 0.1511
vn 0.9821 0.1108 -0.1519
vn 0.8925 0.1110 -0.4372
vn 0.9880 0.0216 -0.1528
vn 0.8978 0.0217 -0.4398
vn 0.7227 0.1108 -0.6822
vn 0.4883 0.1105 -0.8656
vn 0.7270 0.0216 -0.6862
vn 0.4913 0.0216 -0.8707
vn 0.1831 0.1108 -0.9768
vn -0.1829 0.1110 -0.9768
vn 0.1843 0.0217 -0.9826
vn -0.1840 0.0217 -0.9827
vn -0.5377 0.1109 -0.8358
vn -0.8027 0.1110 -0.5859
vn -0.5410 0.0217 -0.8407
vn -0.8076 0.0217 -0.5893
vn -0.9416 0.1109 -0.3179
vn -0.9472 0.0216 -0.3198
usemtl None
s 1
f 65/64/2 157/65/3 178/66/4 104/67/5
f 157/65/3 62/68/6 101/69/7 178/66/4
f 178/66/4 101/69/7 61/70/8 103/71/9
f 104/67/5 178/66/4 103/71/9 64/72/10
f 64/72/10 103/71/9 179/73/11 105/74/12
f 103/71/9 61/70/8 102/75/13 179/73/11
f 179/73/11 102/75/13 63/76/14 156/77/15
f 105/74/12 179/73/11 156/77/15 66/78/16
f 70/79/17 154/80/17 180/81/17 109/82/17
f 154/80/17 65/64/2 104/67/5 180/81/17
f 180/81/17 104/67/5 64/72/10 106/83/17
f 109/82/17 180/81/17 106/83/17 67/84/17
f 67/84/17 106/83/17 181/85/17 110/86/17
f 106/83/17 64/72/10 105/74/12 181/85/17
f 181/85/17 105/74/12 66/78/16 114/87/17
f 110/86/17 181/85/17 114/87/17 71/88/17
f 67/84/17 107/89/17 182/90/17 109/82/17
f 68/91/17 153/92/17 182/90/17 107/89/17
f 70/79/17 109/82/17 182/90/17 153/92/17
f 68/91/17 107/89/17 183/93/17 155/94/17
f 67/84/17 108/95/17 183/93/17 107/89/17
f 69/96/17 155/94/17 183/93/17 108/95/17
f 71/88/17 112/97/17 184/98/17 110/86/17
f 69/96/17 108/95/17 184/98/17 112/97/17
f 67/84/17 110/86/17 184/98/17 108/95/17
f 73/99/17 115/100/17 185/101/17 113/102/17
f 72/103/17 111/104/17 185/101/17 115/100/17
f 71/88/17 113/102/17 185/101/17 111/104/17
f 69/96/17 112/97/17 186/105/17 152/106/17
f 71/88/17 111/104/17 186/105/17 112/97/17
f 72/103/17 152/106/17 186/105/17 111/104/17
f 71/88/17 114/87/17 187/107/17 113/102/17
f 114/87/17 66/78/16 118/108/18 187/107/17
f 187/107/17 118/108/18 75/109/19 117/110/17
f 113/102/17 187/107/17 117/110/17 73/99/17
f 72/103/17 115/100/17 188/111/17 151/112/17
f 73/99/17 116/113/17 188/111/17 115/100/17
f 74/114/17 151/112/17 188/111/17 116/113/17
f 73/99/17 117/110/17 189/115/17 116/113/17
f 117/110/17 75/109/19 119/116/20 189/115/17
f 189/115/17 119/116/20 76/117/21 150/118/17
f 116/113/17 189/115/17 150/118/17 74/114/17
f 66/78/16 156/77/15 190/119/22 118/108/18
f 156/77/15 63/76/14 121/120/23 190/119/22
f 190/119/22 121/120/23 77/121/24 120/122/25
f 118/108/18 190/119/22 120/122/25 75/109/19
f 75/109/19 120/122/25 191/123/26 119/116/20
f 120/122/25 77/121/24 122/124/27 191/123/26
f 191/123/26 122/124/27 78/125/28 124/126/29
f 119/116/20 191/123/26 124/126/29 76/117/21
f 76/117/21 124/126/29 192/127/30 127/128/31
f 124/126/29 78/125/28 123/129/32 192/127/30
f 192/127/30 123/129/32 79/130/33 126/131/34
f 127/128/31 192/127/30 126/131/34 81/132/35
f 81/132/35 126/131/34 193/133/36 128/134/37
f 126/131/34 79/130/33 125/135/38 193/133/36
f 193/133/36 125/135/38 80/136/39 131/137/40
f 128/134/37 193/133/36 131/137/40 82/138/41
f 74/114/17 150/118/17 194/139/17 151/112/17
f 150/118/17 76/117/21 127/128/31 194/139/17
f 194/139/17 127/128/31 81/132/35 129/140/17
f 151/112/17 194/139/17 129/140/17 72/103/17
f 72/103/17 129/140/17 195/141/17 152/106/17
f 129/140/17 81/132/35 128/134/37 195/141/17
f 195/141/17 128/134/37 82/138/41 132/142/17
f 152/106/17 195/141/17 132/142/17 69/96/17
f 69/96/17 132/142/17 196/143/17 155/94/17
f 132/142/17 82/138/41 130/144/42 196/143/17
f 196/143/17 130/144/42 83/145/43 135/146/17
f 155/94/17 196/143/17 135/146/17 68/91/17
f 82/138/41 131/137/40 197/147/44 130/144/42
f 131/137/40 80/136/39 136/148/45 197/147/44
f 197/147/44 136/148/45 85/149/46 134/150/47
f 130/144/42 197/147/44 134/150/47 83/145/43
f 68/91/17 135/146/17 198/151/17 148/152/17
f 135/146/17 83/145/43 133/153/48 198/151/17
f 198/151/17 133/153/48 84/154/49 149/155/17
f 148/152/17 198/151/17 149/155/17 90/156/17
f 83/145/43 134/150/47 199/157/50 133/153/48
f 134/150/47 85/149/46 137/158/51 199/157/50
f 199/157/50 137/158/51 86/159/52 139/160/53
f 133/153/48 199/157/50 139/160/53 84/154/49
f 84/154/49 139/160/53 200/161/54 142/162/55
f 139/160/53 86/159/52 138/163/56 200/161/54
f 200/161/54 138/163/56 87/164/57 141/165/58
f 142/162/55 200/161/54 141/165/58 88/166/59
f 88/166/59 141/165/58 201/167/60 143/168/61
f 141/165/58 87/164/57 140/169/62 201/167/60
f 201/167/60 140/169/62 62/68/6 157/65/3
f 143/168/61 201/167/60 157/65/3 65/64/2
f 90/156/17 149/155/17 202/170/17 146/171/17
f 149/155/17 84/154/49 142/162/55 202/170/17
f 202/170/17 142/162/55 88/166/59 144/172/17
f 146/171/17 202/170/17 144/172/17 89/173/17
f 89/173/17 144/172/17 203/174/17 147/175/17
f 144/172/17 88/166/59 143/168/61 203/174/17
f 203/174/17 143/168/61 65/64/2 154/80/17
f 147/175/17 203/174/17 154/80/17 70/79/17
f 89/173/17 145/176/17 204/177/17 146/171/17
f 68/91/17 148/152/17 204/177/17 145/176/17
f 90/156/17 146/171/17 204/177/17 148/152/17
f 70/79/17 153/92/17 205/178/17 147/175/17
f 68/91/17 145/176/17 205/178/17 153/92/17
f 89/173/17 147/175/17 205/178/17 145/176/17
f 61/70/8 101/69/7 206/179/63 168/180/64
f 101/69/7 62/68/6 169/181/65 206/179/63
f 206/179/63 169/181/65 92/182/66 158/183/67
f 168/180/64 206/179/63 158/183/67 91/184/68
f 63/76/14 102/75/13 207/185/69 170/186/70
f 102/75/13 61/70/8 168/180/64 207/185/69
f 207/185/69 168/180/64 91/184/68 159/187/71
f 170/186/70 207/185/69 159/187/71 93/188/72
f 77/121/24 121/120/23 208/189/73 171/190/74
f 121/120/23 63/76/14 170/186/70 208/189/73
f 208/189/73 170/186/70 93/188/72 160/191/75
f 171/190/74 208/189/73 160/191/75 94/192/76
f 78/125/28 122/124/27 209/193/77 172/194/78
f 122/124/27 77/121/24 171/190/74 209/193/77
f 209/193/77 171/190/74 94/192/76 161/195/79
f 172/194/78 209/193/77 161/195/79 95/196/80
f 79/130/33 123/129/32 210/197/81 173/198/82
f 123/129/32 78/125/28 172/194/78 210/197/81
f 210/197/81 172/194/78 95/196/80 162/199/83
f 173/198/82 210/197/81 162/199/83 96/200/84
f 80/136/39 125/135/38 211/201/85 174/202/86
f 125/135/38 79/130/33 173/198/82 211/201/85
f 211/201/85 173/198/82 96/200/84 163/203/87
f 174/202/86 211/201/85 163/203/87 97/204/88
f 85/149/46 136/148/45 212/205/89 175/206/90
f 136/148/45 80/136/39 174/202/86 212/205/89
f 212/205/89 174/202/86 97/204/88 164/207/91
f 175/206/90 212/205/89 164/207/91 98/208/92
f 86/159/52 137/158/51 213/209/93 176/210/94
f 137/158/51 85/149/46 175/206/90 213/209/93
f 213/209/93 175/206/90 98/208/92 165/211/95
f 176/210/94 213/209/93 165/211/95 99/212/96
f 87/164/57 138/163/56 214/213/97 177/214/98
f 138/163/56 86/159/52 176/210/94 214/213/97
f 214/213/97 176/210/94 99/212/96 166/215/99
f 177/214/98 214/213/97 166/215/99 100/216/100
f 62/68/6 140/169/62 215/217/101 169/181/65
f 140/169/62 87/164/57 177/214/98 215/217/101
f 215/217/101 177/214/98 100/216/100 167/218/102
f 169/181/65 215/217/101 167/218/102 92/182/66
