# Blender v2.91.0 OBJ File: 'hats.blend'
# www.blender.org
mtllib angry_brows.mtl
o Cube.027
v -0.161030 -0.178589 0.302307
v -0.198257 -0.115996 0.298615
v -0.301419 -0.218113 0.232639
v -0.338645 -0.155520 0.228947
v -0.224503 -0.193091 0.299938
v -0.255965 -0.134452 0.294422
v -0.318848 -0.189129 0.154255
v -0.341003 -0.120519 0.170988
v -0.151496 -0.094919 0.181431
v -0.237178 -0.050617 0.216535
v -0.296467 -0.099724 0.240043
v -0.232171 -0.134846 0.212085
v -0.342488 -0.041250 -0.061091
v -0.166777 -0.020865 -0.052473
v -0.316343 0.003888 -0.057249
v -0.288259 -0.116831 -0.146551
v -0.250369 0.015951 -0.028083
v -0.226076 -0.060930 -0.130681
v 0.161030 -0.178589 0.302307
v 0.198257 -0.115996 0.298615
v 0.301419 -0.218113 0.232639
v 0.338645 -0.155520 0.228947
v 0.224503 -0.193091 0.299938
v 0.255965 -0.134452 0.294422
v 0.318848 -0.189129 0.154255
v 0.341003 -0.120519 0.170988
v 0.151496 -0.094919 0.181431
v 0.237178 -0.050617 0.216535
v 0.296467 -0.099724 0.240043
v 0.232171 -0.134846 0.212085
v 0.342488 -0.041250 -0.061091
v 0.166777 -0.020865 -0.052473
v 0.316343 0.003888 -0.057249
v 0.288259 -0.116831 -0.146551
v 0.250369 0.015951 -0.028083
v 0.226076 -0.060930 -0.130681
vt 0.375000 0.125000
vt 0.625000 0.125000
vt 0.625000 0.250000
vt 0.375000 0.250000
vt 0.375000 0.875000
vt 0.625000 0.875000
vt 0.625000 1.000000
vt 0.375000 1.000000
vt 0.750000 0.625000
vt 0.875000 0.625000
vt 0.875000 0.750000
vt 0.750000 0.750000
vt 0.750000 0.500000
vt 0.875000 0.500000
vt 0.375000 0.000000
vt 0.625000 0.000000
vt 0.125000 0.500000
vt 0.250000 0.500000
vt 0.250000 0.625000
vt 0.125000 0.625000
vt 0.661839 0.500000
vt 0.661839 0.625000
vt 0.661839 0.750000
vt 0.250000 0.750000
vt 0.125000 0.750000
vt 0.398078 0.786839
vt 0.625000 0.786839
vt 0.625000 0.375000
vt 0.375000 0.375000
vt 0.368041 0.625000
vt 0.364640 0.753401
vt 0.364640 0.496599
vt 0.625000 0.463161
vt 0.398078 0.463161
vt 0.375000 0.125000
vt 0.375000 0.250000
vt 0.625000 0.250000
vt 0.625000 0.125000
vt 0.375000 0.875000
vt 0.375000 1.000000
vt 0.625000 1.000000
vt 0.625000 0.875000
vt 0.750000 0.625000
vt 0.750000 0.750000
vt 0.875000 0.750000
vt 0.875000 0.625000
vt 0.750000 0.500000
vt 0.875000 0.500000
vt 0.375000 0.000000
vt 0.625000 0.000000
vt 0.125000 0.500000
vt 0.125000 0.625000
vt 0.250000 0.625000
vt 0.250000 0.500000
vt 0.661839 0.500000
vt 0.661839 0.625000
vt 0.661839 0.750000
vt 0.125000 0.750000
vt 0.250000 0.750000
vt 0.398078 0.786839
vt 0.625000 0.786839
vt 0.375000 0.375000
vt 0.625000 0.375000
vt 0.368041 0.625000
vt 0.364640 0.753401
vt 0.625000 0.463161
vt 0.364640 0.496599
vt 0.398078 0.463161
vn -0.5706 -0.2642 0.7776
vn 0.6604 0.6477 0.3800
vn -0.2856 0.6859 0.6694
vn -0.7180 0.4346 0.5437
vn -0.0646 0.0391 0.9971
vn 0.6387 -0.6375 -0.4309
vn -0.7806 0.5803 0.2320
vn -0.4301 0.8535 0.2943
vn 0.1985 -0.8113 -0.5499
vn 0.4834 0.8472 0.2202
vn -0.9116 -0.4068 -0.0586
vn 0.1519 0.8079 -0.5694
vn -0.3851 0.4893 -0.7825
vn 0.6323 -0.7625 -0.1372
vn 0.5389 -0.8138 -0.2174
vn -0.9143 -0.3736 -0.1562
vn 0.5706 -0.2642 0.7776
vn -0.6604 0.6477 0.3800
vn 0.2856 0.6859 0.6694
vn 0.7180 0.4346 0.5437
vn 0.0646 0.0391 0.9971
vn -0.6387 -0.6375 -0.4309
vn 0.7806 0.5803 0.2320
vn 0.4301 0.8535 0.2943
vn -0.1985 -0.8113 -0.5499
vn -0.4834 0.8472 0.2202
vn 0.9116 -0.4068 -0.0586
vn -0.1519 0.8079 -0.5694
vn 0.3851 0.4893 -0.7825
vn -0.6323 -0.7625 -0.1372
vn -0.5389 -0.8138 -0.2174
vn 0.9143 -0.3736 -0.1562
usemtl None
s off
f 5/1/1 6/2/1 4/3/1 3/4/1
f 9/5/2 10/6/2 2/7/2 1/8/2
f 11/9/3 6/10/3 2/11/3 10/12/3
f 8/13/4 4/14/4 6/10/4 11/9/4
f 1/15/5 2/16/5 6/2/5 5/1/5
f 3/17/6 7/18/6 12/19/6 5/20/6
f 13/21/7 8/13/7 11/9/7 15/22/7
f 15/22/8 11/9/8 10/12/8 17/23/8
f 5/20/9 12/19/9 9/24/9 1/25/9
f 14/26/10 17/27/10 10/6/10 9/5/10
f 3/4/11 4/3/11 8/28/11 7/29/11
f 18/30/12 15/22/12 17/27/12 14/31/12
f 18/30/13 16/32/13 13/33/13 15/22/13
f 7/18/14 16/32/14 18/30/14 12/19/14
f 12/19/15 18/30/15 14/31/15 9/24/15
f 7/29/16 8/28/16 13/33/16 16/34/16
f 23/35/17 21/36/17 22/37/17 24/38/17
f 27/39/18 19/40/18 20/41/18 28/42/18
f 29/43/19 28/44/19 20/45/19 24/46/19
f 26/47/20 29/43/20 24/46/20 22/48/20
f 19/49/21 23/35/21 24/38/21 20/50/21
f 21/51/22 23/52/22 30/53/22 25/54/22
f 31/55/23 33/56/23 29/43/23 26/47/23
f 33/56/24 35/57/24 28/44/24 29/43/24
f 23/52/25 19/58/25 27/59/25 30/53/25
f 32/60/26 27/39/26 28/42/26 35/61/26
f 21/36/27 25/62/27 26/63/27 22/37/27
f 36/64/28 32/65/28 35/61/28 33/56/28
f 36/64/29 33/56/29 31/66/29 34/67/29
f 25/54/30 30/53/30 36/64/30 34/67/30
f 30/53/31 27/59/31 32/65/31 36/64/31
f 25/62/32 34/68/32 31/66/32 26/63/32
