# Blender v2.91.0 OBJ File: 'hats.blend'
# www.blender.org
mtllib canon.mtl
o Cube.004_Cube.005
v -0.192044 -0.517932 -0.462079
v -0.331069 -0.656073 1.427463
v -0.189185 -0.080240 -0.455725
v -0.326702 0.012591 1.437169
v 0.245651 -0.520879 -0.455983
v 0.337599 -0.660576 1.436776
v 0.248510 -0.083188 -0.449629
v 0.341967 0.008088 1.446483
v -0.280683 -0.298479 -0.460156
v -0.466483 -0.320814 1.430399
v 0.337148 -0.302640 -0.451551
v 0.477381 -0.327171 1.443546
v 0.030251 0.008353 -0.451369
v 0.008531 0.147936 1.443823
v 0.026215 -0.609473 -0.460338
v 0.002366 -0.795921 1.430122
v 0.028233 -0.300560 -0.455854
v -0.336871 -0.661038 -0.293726
v -0.431494 -0.754821 -0.038122
v -0.425713 0.130145 -0.025275
v -0.332191 0.055404 -0.283326
v 0.459260 0.124186 -0.012949
v 0.384256 0.050579 -0.273347
v 0.453479 -0.760781 -0.025796
v 0.379576 -0.665863 -0.283747
v 0.638478 -0.319524 -0.016836
v 0.529345 -0.308635 -0.276494
v -0.610712 -0.311112 -0.034235
v -0.481960 -0.301824 -0.290579
v 0.009803 -0.939908 -0.034602
v 0.020389 -0.810879 -0.290877
v 0.017963 0.309273 -0.016469
v 0.026995 0.200419 -0.276196
v -0.432783 -0.756148 0.197353
v -0.427002 0.128819 0.210199
v 0.457971 0.122860 0.222525
v 0.452190 -0.762107 0.209679
v 0.637189 -0.320850 0.218639
v -0.612001 -0.312438 0.201240
v 0.008514 -0.941235 0.200872
v 0.016674 0.307947 0.219006
v -0.433898 -0.757294 0.400940
v -0.428117 0.127673 0.413787
v 0.456856 0.121713 0.426113
v 0.451075 -0.763254 0.413266
v 0.636074 -0.321997 0.422226
v -0.613116 -0.313584 0.404827
v 0.007399 -0.942381 0.404460
v 0.015559 0.306800 0.422593
v -0.374891 -0.699263 1.263054
v -0.369937 0.059031 1.274062
v 0.388362 0.053924 1.284623
v 0.383408 -0.704369 1.273616
v 0.541927 -0.326273 1.281293
v -0.528456 -0.319065 1.266384
v 0.003240 -0.857857 1.266070
v 0.010232 0.212518 1.281608
v -0.244417 -0.570544 1.381901
v -0.241125 -0.073181 1.390064
v 0.252954 -0.573853 1.389734
v 0.256132 -0.076597 1.397898
v -0.344878 -0.321140 1.384449
v 0.356593 -0.325885 1.395504
v 0.008198 0.027160 1.395738
v 0.003632 -0.674304 1.384215
vt 0.599854 0.125680
vt 0.625000 0.125000
vt 0.625000 0.250000
vt 0.599843 0.250463
vt 0.599827 0.375460
vt 0.625000 0.375000
vt 0.625000 0.500000
vt 0.599816 0.499306
vt 0.599828 0.624547
vt 0.625000 0.625000
vt 0.625000 0.750000
vt 0.599844 0.749531
vt 0.599854 0.874304
vt 0.625000 0.875000
vt 0.625000 1.000000
vt 0.599854 1.001025
vt 0.250000 0.625000
vt 0.375000 0.625000
vt 0.375000 0.750000
vt 0.250000 0.750000
vt 0.250000 0.500000
vt 0.375000 0.500000
vt 0.602239 -0.000560
vt 0.625000 0.000000
vt 0.125000 0.500000
vt 0.125000 0.625000
vt 0.125000 0.750000
vt 0.375000 0.250000
vt 0.440154 0.250000
vt 0.440154 0.375000
vt 0.375000 0.375000
vt 0.481908 0.252631
vt 0.481818 0.377615
vt 0.440154 0.750000
vt 0.440154 0.875000
vt 0.375000 0.875000
vt 0.481913 0.747330
vt 0.481974 0.871040
vt 0.375000 0.000000
vt 0.440154 0.000000
vt 0.440154 0.125000
vt 0.375000 0.125000
vt 0.495540 -0.003184
vt 0.481972 0.128866
vt 0.440154 0.500000
vt 0.440154 0.625000
vt 0.481758 0.496054
vt 0.481823 0.622424
vt 0.440154 1.000000
vt 0.375000 1.000000
vt 0.481974 1.005828
vt 0.503507 0.252234
vt 0.503431 0.377221
vt 0.503511 0.747733
vt 0.503563 0.871638
vt 0.515081 -0.002703
vt 0.503561 0.128282
vt 0.503380 0.496649
vt 0.503434 0.622813
vt 0.503563 1.004948
vt 0.522181 0.251891
vt 0.522116 0.376879
vt 0.522184 0.748081
vt 0.522228 0.872155
vt 0.531976 -0.002288
vt 0.522227 0.127778
vt 0.522073 0.497164
vt 0.522120 0.623149
vt 0.522228 1.004188
vt 0.625000 0.125000
vt 0.625000 0.250000
vt 0.625000 0.375000
vt 0.625000 0.500000
vt 0.625000 0.625000
vt 0.625000 0.750000
vt 0.625000 0.875000
vt 0.625000 1.000000
vt 0.625000 0.000000
vn -0.8719 0.3588 0.3333
vn 0.3602 0.8654 0.3483
vn 0.8642 -0.3693 0.3417
vn -0.3678 -0.8706 0.3267
vn 0.0140 0.0144 -0.9998
vn 0.8703 0.3485 0.3481
vn -0.8753 -0.3564 0.3269
vn 0.3473 -0.8767 0.3328
vn -0.3576 0.8689 0.3422
vn -0.2484 0.6505 -0.7178
vn -0.3409 0.8627 -0.3734
vn 0.2669 -0.6250 -0.7336
vn 0.3484 -0.8429 -0.4100
vn -0.6223 -0.2448 -0.7435
vn -0.8373 -0.3344 -0.4326
vn 0.6530 0.2699 -0.7077
vn 0.8676 0.3535 -0.3498
vn -0.2535 -0.6185 -0.7438
vn -0.3456 -0.8323 -0.4333
vn 0.6465 -0.2564 -0.7185
vn 0.8576 -0.3519 -0.3752
vn 0.2782 0.6498 -0.7073
vn 0.3648 0.8632 -0.3491
vn -0.6220 0.2757 -0.7329
vn -0.8389 0.3600 -0.4083
vn -0.3744 0.9273 0.0032
vn 0.3744 -0.9273 -0.0032
vn -0.9272 -0.3744 -0.0072
vn 0.9272 0.3744 0.0072
vn -0.3867 -0.9222 -0.0073
vn 0.9222 -0.3867 0.0029
vn 0.3867 0.9222 0.0073
vn -0.9222 0.3867 -0.0029
vn -0.3742 0.9221 0.0989
vn 0.3712 -0.9239 0.0924
vn -0.9233 -0.3737 0.0884
vn 0.9226 0.3717 0.1030
vn -0.3859 -0.9183 0.0882
vn 0.9170 -0.3865 0.0986
vn 0.3840 0.9176 0.1031
vn -0.9189 0.3834 0.0927
vn 0.3463 -0.1648 0.9235
vn -0.1603 -0.3644 0.9173
vn -0.3682 0.1343 0.9200
vn 0.1388 0.3502 0.9264
vn 0.3524 0.1335 0.9263
vn -0.3660 -0.1561 0.9174
vn 0.1299 -0.3703 0.9198
vn -0.1597 0.3482 0.9237
usemtl None
s off
f 55/1/1 10/2/1 4/3/1 51/4/1
f 57/5/2 14/6/2 8/7/2 52/8/2
f 54/9/3 12/10/3 6/11/3 53/12/3
f 56/13/4 16/14/4 2/15/4 50/16/4
f 17/17/5 11/18/5 5/19/5 15/20/5
f 13/21/5 7/22/5 11/18/5 17/17/5
f 52/8/6 8/7/6 12/10/6 54/9/6
f 50/23/7 2/24/7 10/2/7 55/1/7
f 3/25/5 13/21/5 17/17/5 9/26/5
f 9/26/5 17/17/5 15/20/5 1/27/5
f 53/12/8 6/11/8 16/14/8 56/13/8
f 51/4/9 4/3/9 14/6/9 57/5/9
f 3/28/10 21/29/10 33/30/10 13/31/10
f 21/29/11 20/32/11 32/33/11 33/30/11
f 5/19/12 25/34/12 31/35/12 15/36/12
f 25/34/13 24/37/13 30/38/13 31/35/13
f 1/39/14 18/40/14 29/41/14 9/42/14
f 18/40/15 19/43/15 28/44/15 29/41/15
f 7/22/16 23/45/16 27/46/16 11/18/16
f 23/45/17 22/47/17 26/48/17 27/46/17
f 15/36/18 31/35/18 18/49/18 1/50/18
f 31/35/19 30/38/19 19/51/19 18/49/19
f 11/18/20 27/46/20 25/34/20 5/19/20
f 27/46/21 26/48/21 24/37/21 25/34/21
f 13/31/22 33/30/22 23/45/22 7/22/22
f 33/30/23 32/33/23 22/47/23 23/45/23
f 9/42/24 29/41/24 21/29/24 3/28/24
f 29/41/25 28/44/25 20/32/25 21/29/25
f 20/32/26 35/52/26 41/53/26 32/33/26
f 24/37/27 37/54/27 40/55/27 30/38/27
f 19/43/28 34/56/28 39/57/28 28/44/28
f 22/47/29 36/58/29 38/59/29 26/48/29
f 30/38/30 40/55/30 34/60/30 19/51/30
f 26/48/31 38/59/31 37/54/31 24/37/31
f 32/33/32 41/53/32 36/58/32 22/47/32
f 28/44/33 39/57/33 35/52/33 20/32/33
f 43/61/34 51/4/34 57/5/34 49/62/34
f 45/63/35 53/12/35 56/13/35 48/64/35
f 42/65/36 50/23/36 55/1/36 47/66/36
f 44/67/37 52/8/37 54/9/37 46/68/37
f 48/64/38 56/13/38 50/16/38 42/69/38
f 46/68/39 54/9/39 53/12/39 45/63/39
f 49/62/40 57/5/40 52/8/40 44/67/40
f 47/66/41 55/1/41 51/4/41 43/61/41
f 49/62/32 44/67/32 36/58/32 41/53/32
f 44/67/29 46/68/29 38/59/29 36/58/29
f 46/68/31 45/63/31 37/54/31 38/59/31
f 45/63/27 48/64/27 40/55/27 37/54/27
f 48/64/30 42/69/30 34/60/30 40/55/30
f 42/65/28 47/66/28 39/57/28 34/56/28
f 47/66/33 43/61/33 35/52/33 39/57/33
f 43/61/26 49/62/26 41/53/26 35/52/26
f 4/3/42 10/2/42 62/70/42 59/71/42
f 8/7/43 14/6/43 64/72/43 61/73/43
f 6/11/44 12/10/44 63/74/44 60/75/44
f 2/15/45 16/14/45 65/76/45 58/77/45
f 10/2/46 2/24/46 58/78/46 62/70/46
f 12/10/47 8/7/47 61/73/47 63/74/47
f 14/6/48 4/3/48 59/71/48 64/72/48
f 16/14/49 6/11/49 60/75/49 65/76/49
o Cube.005_Cube.006
v -0.000000 0.357565 -0.150435
v -0.000000 0.474706 -0.193466
v 0.045947 0.364157 -0.132581
v 0.045947 0.482696 -0.176192
v 0.064979 0.380071 -0.089478
v 0.064979 0.501985 -0.134490
v 0.045947 0.395985 -0.046375
v 0.045947 0.521274 -0.092788
v -0.000000 0.402577 -0.028521
v -0.000000 0.529264 -0.075514
v -0.045947 0.395985 -0.046375
v -0.045947 0.521274 -0.092788
v -0.064979 0.380071 -0.089478
v -0.064979 0.501985 -0.134490
v -0.045947 0.364157 -0.132581
v -0.045947 0.482696 -0.176192
v 0.045947 0.533881 -0.233515
v -0.000000 0.518409 -0.244599
v 0.064979 0.571231 -0.206755
v 0.045947 0.608582 -0.179996
v -0.000000 0.624053 -0.168912
v -0.045947 0.608582 -0.179996
v -0.064979 0.571231 -0.206755
v -0.045947 0.533881 -0.233515
v 0.045947 0.571541 -0.310006
v -0.000000 0.552835 -0.313513
v 0.064979 0.616701 -0.301539
v 0.045947 0.661861 -0.293071
v -0.000000 0.680567 -0.289564
v -0.045947 0.661861 -0.293071
v -0.064979 0.616701 -0.301539
v -0.045947 0.571541 -0.310006
vt 1.000000 0.500000
vt 1.000000 1.000000
vt 0.875000 1.000000
vt 0.875000 0.500000
vt 0.750000 1.000000
vt 0.750000 0.500000
vt 0.625000 1.000000
vt 0.625000 0.500000
vt 0.500000 1.000000
vt 0.500000 0.500000
vt 0.375000 1.000000
vt 0.375000 0.500000
vt 0.250000 1.000000
vt 0.250000 0.500000
vt 0.125000 1.000000
vt 0.250000 1.000000
vt 0.125000 1.000000
vt 0.125000 0.500000
vt 0.000000 1.000000
vt 0.000000 0.500000
vt 0.750000 0.490000
vt 0.919706 0.419706
vt 0.990000 0.250000
vt 0.919706 0.080294
vt 0.750000 0.010000
vt 0.580294 0.080294
vt 0.510000 0.250000
vt 0.580294 0.419706
vt 0.000000 1.000000
vt 0.125000 1.000000
vt 0.000000 1.000000
vt 0.875000 1.000000
vt 0.750000 1.000000
vt 0.500000 1.000000
vt 0.375000 1.000000
vt 1.000000 1.000000
vt 0.625000 1.000000
vt 0.419706 0.419706
vt 0.250000 0.490000
vt 0.080294 0.419706
vt 0.010000 0.250000
vt 0.080294 0.080294
vt 0.250000 0.010000
vt 0.419706 0.080294
vt 0.490000 0.250000
vt 0.375000 1.000000
vt 0.250000 1.000000
vt 0.625000 1.000000
vt 0.500000 1.000000
vt 0.875000 1.000000
vt 0.750000 1.000000
vt 1.000000 1.000000
vn 0.3821 -0.3189 -0.8673
vn 0.9237 -0.1325 -0.3596
vn 0.9237 0.1329 0.3594
vn 0.3822 0.3212 0.8665
vn -0.3822 0.3212 0.8665
vn -0.9237 0.1329 0.3594
vn -0.9180 -0.2905 -0.2700
vn -0.9237 -0.1325 -0.3596
vn -0.3821 -0.3189 -0.8673
vn -0.0000 -0.9381 0.3464
vn -0.3744 -0.8308 -0.4119
vn 0.9180 -0.2905 -0.2700
vn -0.3705 0.6541 0.6595
vn -0.3677 -0.6999 -0.6123
vn 0.3677 -0.6999 -0.6123
vn 0.9184 0.2823 0.2771
vn -0.9184 0.2823 0.2771
vn 0.3705 0.6541 0.6595
vn 0.0000 0.1843 -0.9829
vn -0.9205 0.3530 0.1677
vn 0.3747 0.8392 0.3942
vn 0.9204 -0.3517 -0.1707
vn -0.9204 -0.3517 -0.1707
vn -0.3747 0.8392 0.3942
vn 0.9205 0.3530 0.1677
vn 0.3744 -0.8308 -0.4119
usemtl None
s off
f 66/79/50 67/80/50 69/81/50 68/82/50
f 68/82/51 69/81/51 71/83/51 70/84/51
f 70/84/52 71/83/52 73/85/52 72/86/52
f 72/86/53 73/85/53 75/87/53 74/88/53
f 74/88/54 75/87/54 77/89/54 76/90/54
f 76/90/55 77/89/55 79/91/55 78/92/55
f 81/93/56 79/91/56 88/94/56 89/95/56
f 78/92/57 79/91/57 81/93/57 80/96/57
f 80/96/58 81/93/58 67/97/58 66/98/58
f 66/99/59 68/100/59 70/101/59 72/102/59 74/103/59 76/104/59 78/105/59 80/106/59
f 83/107/60 89/95/60 97/108/60 91/109/60
f 71/83/61 69/81/61 82/110/61 84/111/61
f 77/89/62 75/87/62 86/112/62 87/113/62
f 67/97/63 81/93/63 89/95/63 83/107/63
f 69/81/64 67/80/64 83/114/64 82/110/64
f 73/85/65 71/83/65 84/111/65 85/115/65
f 79/91/66 77/89/66 87/113/66 88/94/66
f 75/87/67 73/85/67 85/115/67 86/112/67
f 90/116/68 91/117/68 97/118/68 96/119/68 95/120/68 94/121/68 93/122/68 92/123/68
f 88/94/69 87/113/69 95/124/69 96/125/69
f 86/112/70 85/115/70 93/126/70 94/127/70
f 84/111/71 82/110/71 90/128/71 92/129/71
f 89/95/72 88/94/72 96/125/72 97/108/72
f 87/113/73 86/112/73 94/127/73 95/124/73
f 85/115/74 84/111/74 92/129/74 93/126/74
f 82/110/75 83/114/75 91/130/75 90/128/75
o Cube.006_Cube.007
v -0.000000 -0.019459 -0.147463
v -0.000000 0.339021 -0.279818
v 0.135105 -0.000076 -0.094965
v 0.135105 0.358404 -0.227320
v 0.191067 0.046718 0.031777
v 0.191067 0.405199 -0.100578
v 0.135105 0.093513 0.158519
v 0.135105 0.451993 0.026164
v -0.000000 0.112896 0.211017
v -0.000000 0.471376 0.078662
v -0.135105 0.093513 0.158519
v -0.135105 0.451993 0.026164
v -0.191067 0.046718 0.031777
v -0.191067 0.405199 -0.100578
v -0.135105 -0.000076 -0.094965
v -0.135105 0.358404 -0.227320
vt 1.000000 0.500000
vt 1.000000 1.000000
vt 0.875000 1.000000
vt 0.875000 0.500000
vt 0.750000 1.000000
vt 0.750000 0.500000
vt 0.625000 1.000000
vt 0.625000 0.500000
vt 0.500000 1.000000
vt 0.500000 0.500000
vt 0.375000 1.000000
vt 0.375000 0.500000
vt 0.250000 1.000000
vt 0.250000 0.500000
vt 0.419706 0.419706
vt 0.250000 0.490000
vt 0.080294 0.419706
vt 0.010000 0.250000
vt 0.080294 0.080294
vt 0.250000 0.010000
vt 0.419706 0.080294
vt 0.490000 0.250000
vt 0.125000 1.000000
vt 0.125000 0.500000
vt 0.000000 1.000000
vt 0.000000 0.500000
vt 0.750000 0.490000
vt 0.919706 0.419706
vt 0.990000 0.250000
vt 0.919706 0.080294
vt 0.750000 0.010000
vt 0.580294 0.080294
vt 0.510000 0.250000
vt 0.580294 0.419706
vn 0.3827 -0.3200 -0.8667
vn 0.9239 -0.1325 -0.3590
vn 0.9239 0.1325 0.3590
vn 0.3827 0.3200 0.8667
vn -0.3827 0.3200 0.8667
vn -0.9239 0.1325 0.3590
vn 0.0000 0.9381 -0.3464
vn -0.9239 -0.1325 -0.3590
vn -0.3827 -0.3200 -0.8667
vn -0.0000 -0.9381 0.3464
usemtl None
s off
f 98/131/76 99/132/76 101/133/76 100/134/76
f 100/134/77 101/133/77 103/135/77 102/136/77
f 102/136/78 103/135/78 105/137/78 104/138/78
f 104/138/79 105/137/79 107/139/79 106/140/79
f 106/140/80 107/139/80 109/141/80 108/142/80
f 108/142/81 109/141/81 111/143/81 110/144/81
f 101/145/82 99/146/82 113/147/82 111/148/82 109/149/82 107/150/82 105/151/82 103/152/82
f 110/144/83 111/143/83 113/153/83 112/154/83
f 112/154/84 113/153/84 99/155/84 98/156/84
f 98/157/85 100/158/85 102/159/85 104/160/85 106/161/85 108/162/85 110/163/85 112/164/85
o Cube.007_Cube.022
v -0.154850 -0.481305 -0.343025
v -0.244417 -0.570544 1.381901
v -0.152276 -0.121319 -0.338044
v -0.241125 -0.073181 1.390064
v 0.205147 -0.483514 -0.338242
v 0.252954 -0.573853 1.389734
v 0.207277 -0.123953 -0.333277
v 0.256132 -0.076597 1.397898
v -0.227634 -0.300697 -0.341495
v -0.344878 -0.321140 1.384449
v 0.280073 -0.304116 -0.334763
v 0.356593 -0.325885 1.395504
v 0.028093 -0.048781 -0.334621
v 0.008198 0.027160 1.395738
v 0.024775 -0.556484 -0.341637
v 0.003632 -0.674304 1.384215
v 0.026412 -0.302432 -0.325882
v -0.263279 -0.588474 -0.214874
v -0.341449 -0.665967 -0.008188
v -0.336279 0.039601 0.001219
v -0.258921 -0.021747 -0.208635
v 0.368200 0.034332 0.010149
v 0.306602 -0.026111 -0.202723
v 0.364145 -0.670174 0.000842
v 0.303489 -0.591660 -0.208886
v 0.510748 -0.318612 0.007310
v 0.421015 -0.309349 -0.204636
v -0.483965 -0.311941 -0.005352
v -0.377657 -0.304006 -0.213020
v 0.010652 -0.813186 -0.005620
v 0.019651 -0.706643 -0.213199
v 0.017182 0.181522 0.007574
v 0.024901 0.092026 -0.204462
v -0.340255 -0.664842 0.198372
v -0.335692 0.036291 0.210179
v 0.365443 0.031554 0.221506
v 0.360880 -0.669579 0.209699
v 0.507197 -0.319993 0.217932
v -0.482009 -0.313295 0.201946
v 0.009375 -0.811242 0.201606
v 0.015813 0.177954 0.218272
v -0.341457 -0.666068 0.395338
v -0.336843 0.035347 0.407109
v 0.364487 0.030566 0.418408
v 0.359968 -0.670762 0.406633
v 0.506288 -0.321052 0.414854
v -0.483255 -0.314358 0.398911
v 0.008344 -0.812520 0.398576
v 0.014782 0.177014 0.415190
v -0.284585 -0.610135 1.234762
v -0.280687 -0.030720 1.244425
v 0.298484 -0.034755 1.253690
v 0.294840 -0.613928 1.244031
v 0.415561 -0.325083 1.250808
v -0.401657 -0.319553 1.237728
v 0.004414 -0.731054 1.237453
v 0.009736 0.086156 1.251082
vt 0.599854 0.125680
vt 0.599843 0.250463
vt 0.625000 0.250000
vt 0.625000 0.125000
vt 0.599827 0.375460
vt 0.599816 0.499306
vt 0.625000 0.500000
vt 0.625000 0.375000
vt 0.599828 0.624547
vt 0.599844 0.749531
vt 0.625000 0.750000
vt 0.625000 0.625000
vt 0.599854 0.874304
vt 0.599854 1.001025
vt 0.625000 1.000000
vt 0.625000 0.875000
vt 0.250000 0.625000
vt 0.250000 0.750000
vt 0.375000 0.750000
vt 0.375000 0.625000
vt 0.250000 0.500000
vt 0.375000 0.500000
vt 0.602239 -0.000560
vt 0.625000 0.000000
vt 0.125000 0.500000
vt 0.125000 0.625000
vt 0.125000 0.750000
vt 0.375000 0.250000
vt 0.375000 0.375000
vt 0.440154 0.375000
vt 0.440154 0.250000
vt 0.481818 0.377615
vt 0.481908 0.252631
vt 0.375000 0.875000
vt 0.440154 0.875000
vt 0.440154 0.750000
vt 0.481974 0.871040
vt 0.481913 0.747330
vt 0.375000 0.000000
vt 0.375000 0.125000
vt 0.440154 0.125000
vt 0.440154 0.000000
vt 0.481972 0.128866
vt 0.495540 -0.003184
vt 0.440154 0.625000
vt 0.440154 0.500000
vt 0.481823 0.622424
vt 0.481758 0.496054
vt 0.375000 1.000000
vt 0.440154 1.000000
vt 0.481974 1.005828
vt 0.503431 0.377221
vt 0.503507 0.252234
vt 0.503563 0.871638
vt 0.503511 0.747733
vt 0.503561 0.128282
vt 0.515081 -0.002703
vt 0.503434 0.622813
vt 0.503380 0.496649
vt 0.503563 1.004948
vt 0.522181 0.251891
vt 0.522116 0.376879
vt 0.522184 0.748081
vt 0.522228 0.872155
vt 0.531976 -0.002288
vt 0.522227 0.127778
vt 0.522073 0.497164
vt 0.522120 0.623149
vt 0.522228 1.004188
vn 0.8701 -0.3564 -0.3404
vn -0.3582 -0.8632 -0.3558
vn -0.8617 0.3683 -0.3491
vn 0.3665 0.8685 -0.3338
vn 0.0205 -0.0479 0.9986
vn 0.0210 0.0202 0.9996
vn -0.8681 -0.3465 -0.3556
vn 0.8731 0.3551 -0.3340
vn -0.0471 0.0206 0.9987
vn -0.0475 -0.0475 0.9977
vn -0.3450 0.8749 -0.3400
vn 0.3567 -0.8664 -0.3495
vn 0.2512 -0.6549 0.7128
vn 0.3396 -0.8619 0.3766
vn -0.2674 0.6306 0.7286
vn -0.3473 0.8406 0.4157
vn 0.6275 0.2472 0.7384
vn 0.8342 0.3324 0.4399
vn -0.6579 -0.2709 0.7027
vn -0.8672 -0.3529 0.3514
vn 0.2558 0.6237 0.7387
vn 0.3436 0.8293 0.4407
vn -0.6509 0.2594 0.7135
vn -0.8567 0.3506 0.3785
vn -0.2793 -0.6548 0.7023
vn -0.3642 -0.8628 0.3506
vn 0.6277 -0.2763 0.7278
vn 0.8366 -0.3588 0.4139
vn 0.3734 -0.9275 -0.0145
vn -0.3742 0.9273 -0.0097
vn 0.9275 0.3737 -0.0069
vn -0.9272 -0.3740 -0.0175
vn 0.3860 0.9225 -0.0068
vn -0.9225 0.3857 -0.0143
vn -0.3863 -0.9222 -0.0176
vn 0.9222 -0.3865 -0.0100
vn 0.3737 -0.9224 -0.0979
vn -0.3706 0.9243 -0.0915
vn 0.9236 0.3732 -0.0875
vn -0.9229 -0.3712 -0.1020
vn 0.3853 0.9186 -0.0874
vn -0.9174 0.3859 -0.0976
vn -0.3835 -0.9179 -0.1021
vn 0.9193 -0.3828 -0.0918
vn -0.3862 -0.9224 -0.0065
vn -0.9274 -0.3739 -0.0063
vn -0.9225 0.3861 -0.0021
vn -0.3739 0.9274 0.0039
vn 0.3861 0.9224 0.0081
vn 0.9274 0.3739 0.0079
vn 0.9224 -0.3862 0.0036
vn 0.3738 -0.9275 -0.0024
usemtl None
s off
f 168/165/86 164/166/86 117/167/86 123/168/86
f 170/169/87 165/170/87 121/171/87 127/172/87
f 167/173/88 166/174/88 119/175/88 125/176/88
f 169/177/89 163/178/89 115/179/89 129/180/89
f 130/181/90 128/182/90 118/183/90 124/184/90
f 126/185/91 130/181/91 124/184/91 120/186/91
f 165/170/92 167/173/92 125/176/92 121/171/92
f 163/187/93 168/165/93 123/168/93 115/188/93
f 116/189/94 122/190/94 130/181/94 126/185/94
f 122/190/95 114/191/95 128/182/95 130/181/95
f 166/174/96 169/177/96 129/180/96 119/175/96
f 164/166/97 170/169/97 127/172/97 117/167/97
f 116/192/98 126/193/98 146/194/98 134/195/98
f 134/195/99 146/194/99 145/196/99 133/197/99
f 118/183/100 128/198/100 144/199/100 138/200/100
f 138/200/101 144/199/101 143/201/101 137/202/101
f 114/203/102 122/204/102 142/205/102 131/206/102
f 131/206/103 142/205/103 141/207/103 132/208/103
f 120/186/104 124/184/104 140/209/104 136/210/104
f 136/210/105 140/209/105 139/211/105 135/212/105
f 128/198/106 114/213/106 131/214/106 144/199/106
f 144/199/107 131/214/107 132/215/107 143/201/107
f 124/184/108 118/183/108 138/200/108 140/209/108
f 140/209/109 138/200/109 137/202/109 139/211/109
f 126/193/110 120/186/110 136/210/110 146/194/110
f 146/194/111 136/210/111 135/212/111 145/196/111
f 122/204/112 116/192/112 134/195/112 142/205/112
f 142/205/113 134/195/113 133/197/113 141/207/113
f 133/197/114 145/196/114 154/216/114 148/217/114
f 137/202/115 143/201/115 153/218/115 150/219/115
f 132/208/116 141/207/116 152/220/116 147/221/116
f 135/212/117 139/211/117 151/222/117 149/223/117
f 143/201/118 132/215/118 147/224/118 153/218/118
f 139/211/119 137/202/119 150/219/119 151/222/119
f 145/196/120 135/212/120 149/223/120 154/216/120
f 141/207/121 133/197/121 148/217/121 152/220/121
f 156/225/122 162/226/122 170/169/122 164/166/122
f 158/227/123 161/228/123 169/177/123 166/174/123
f 155/229/124 160/230/124 168/165/124 163/187/124
f 157/231/125 159/232/125 167/173/125 165/170/125
f 161/228/126 155/233/126 163/178/126 169/177/126
f 159/232/127 158/227/127 166/174/127 167/173/127
f 162/226/128 157/231/128 165/170/128 170/169/128
f 160/230/129 156/225/129 164/166/129 168/165/129
f 162/226/130 154/216/130 149/223/130 157/231/130
f 157/231/131 149/223/131 151/222/131 159/232/131
f 159/232/132 151/222/132 150/219/132 158/227/132
f 158/227/133 150/219/133 153/218/133 161/228/133
f 161/228/134 153/218/134 147/224/134 155/233/134
f 155/229/135 147/221/135 152/220/135 160/230/135
f 160/230/136 152/220/136 148/217/136 156/225/136
f 156/225/137 148/217/137 154/216/137 162/226/137
