# Blender v2.91.0 OBJ File: 'hats.blend'
# www.blender.org
mtllib engineering_goggles.mtl
o Cylinder.009
v -0.554045 -0.171487 -0.004222
v -0.413062 -0.207521 -0.100020
v -0.577648 -0.249495 0.010654
v -0.445058 -0.313264 -0.079855
v -0.584467 -0.313741 0.062517
v -0.454301 -0.400352 -0.009553
v -0.572674 -0.347009 0.137469
v -0.438316 -0.445449 0.092049
v -0.545430 -0.340386 0.215429
v -0.401384 -0.436471 0.197725
v -0.510033 -0.295646 0.275505
v -0.353403 -0.375824 0.279162
v -0.475970 -0.224777 0.301602
v -0.307229 -0.279758 0.314536
v -0.452366 -0.146768 0.286725
v -0.275233 -0.174014 0.294371
v -0.445547 -0.082522 0.234862
v -0.264099 -0.086621 0.223871
v -0.457340 -0.049254 0.159910
v -0.283866 -0.042135 0.122666
v -0.484585 -0.055877 0.081951
v -0.318906 -0.050808 0.016791
v -0.519981 -0.100617 0.021874
v -0.366887 -0.111455 -0.064645
v -0.567924 -0.162013 -0.058589
v -0.599920 -0.267757 -0.038423
v -0.609163 -0.354845 0.031879
v -0.593177 -0.399941 0.133480
v -0.556246 -0.390963 0.239157
v -0.508265 -0.330316 0.320593
v -0.462090 -0.234250 0.355968
v -0.430095 -0.128507 0.335802
v -0.420851 -0.041419 0.265500
v -0.436837 0.003678 0.163899
v -0.473768 -0.005300 0.058222
v -0.521749 -0.065947 -0.023214
v -0.487185 -0.195779 -0.025524
v -0.510789 -0.273787 -0.010648
v -0.517608 -0.338033 0.041215
v -0.505815 -0.371302 0.116168
v -0.478571 -0.364679 0.194127
v -0.443174 -0.319938 0.254203
v -0.409111 -0.249069 0.280300
v -0.385507 -0.171061 0.265424
v -0.378688 -0.106815 0.213561
v -0.390481 -0.073546 0.138608
v -0.417725 -0.080170 0.060649
v -0.453122 -0.124910 0.000572
v 0.554045 -0.171487 -0.004222
v 0.413062 -0.207521 -0.100020
v 0.577648 -0.249495 0.010654
v 0.445058 -0.313264 -0.079855
v 0.584467 -0.313741 0.062517
v 0.454301 -0.400352 -0.009553
v 0.572674 -0.347009 0.137469
v 0.438316 -0.445449 0.092049
v 0.545430 -0.340386 0.215429
v 0.401384 -0.436471 0.197725
v 0.510033 -0.295646 0.275505
v 0.353403 -0.375824 0.279162
v 0.475970 -0.224777 0.301602
v 0.307229 -0.279758 0.314536
v 0.452366 -0.146768 0.286725
v 0.275233 -0.174014 0.294371
v 0.445547 -0.082522 0.234862
v 0.264099 -0.086621 0.223871
v 0.457340 -0.049254 0.159910
v 0.283866 -0.042135 0.122666
v 0.484585 -0.055877 0.081951
v 0.318906 -0.050808 0.016791
v 0.519981 -0.100617 0.021874
v 0.366887 -0.111455 -0.064645
v 0.567924 -0.162013 -0.058589
v 0.599920 -0.267757 -0.038423
v 0.609163 -0.354845 0.031879
v 0.593177 -0.399941 0.133480
v 0.556246 -0.390963 0.239157
v 0.508265 -0.330316 0.320593
v 0.462090 -0.234250 0.355968
v 0.430095 -0.128507 0.335802
v 0.420851 -0.041419 0.265500
v 0.436837 0.003678 0.163899
v 0.473768 -0.005300 0.058222
v 0.521749 -0.065947 -0.023214
v 0.487185 -0.195779 -0.025524
v 0.510789 -0.273787 -0.010648
v 0.517608 -0.338033 0.041215
v 0.505815 -0.371302 0.116168
v 0.478571 -0.364679 0.194127
v 0.443174 -0.319938 0.254203
v 0.409111 -0.249069 0.280300
v 0.385507 -0.171061 0.265424
v 0.378688 -0.106815 0.213561
v 0.390481 -0.073546 0.138608
v 0.417725 -0.080170 0.060649
v 0.453122 -0.124910 0.000572
vt 1.000000 0.855664
vt 1.000000 1.000000
vt 0.916667 1.000000
vt 0.916667 0.855664
vt 0.833333 1.000000
vt 0.833333 0.855664
vt 0.750000 1.000000
vt 0.750000 0.855664
vt 0.666667 1.000000
vt 0.666667 0.855664
vt 0.583333 1.000000
vt 0.583333 0.855664
vt 0.500000 1.000000
vt 0.500000 0.855664
vt 0.416667 1.000000
vt 0.416667 0.855664
vt 0.333333 1.000000
vt 0.333333 0.855664
vt 0.250000 1.000000
vt 0.250000 0.855664
vt 0.166667 1.000000
vt 0.166667 0.855664
vt 0.370000 0.457846
vt 0.250000 0.490000
vt 0.130000 0.457846
vt 0.042154 0.370000
vt 0.010000 0.250000
vt 0.042154 0.130000
vt 0.130000 0.042154
vt 0.250000 0.010000
vt 0.370000 0.042154
vt 0.457846 0.130000
vt 0.490000 0.250000
vt 0.457846 0.370000
vt 0.083333 1.000000
vt 0.083333 0.855664
vt 0.000000 1.000000
vt 0.000000 0.855664
vt 0.838526 0.403331
vt 0.903331 0.338526
vt 0.903331 0.338526
vt 0.838526 0.403331
vt 0.750000 0.427051
vt 0.750000 0.490000
vt 0.870000 0.457846
vt 0.957846 0.370000
vt 0.927051 0.250000
vt 0.990000 0.250000
vt 0.903331 0.161474
vt 0.957846 0.130000
vt 0.838526 0.096669
vt 0.870000 0.042154
vt 0.750000 0.072949
vt 0.750000 0.010000
vt 0.661474 0.096669
vt 0.630000 0.042154
vt 0.596669 0.161474
vt 0.542154 0.130000
vt 0.572949 0.250000
vt 0.510000 0.250000
vt 0.596669 0.338526
vt 0.542154 0.370000
vt 0.661474 0.403331
vt 0.630000 0.457846
vt 0.572949 0.250000
vt 0.596669 0.161474
vt 0.750000 0.072949
vt 0.838526 0.096669
vt 0.927051 0.250000
vt 0.596669 0.338526
vt 0.661474 0.096669
vt 0.903331 0.161474
vt 0.661474 0.403331
vt 0.750000 0.427051
vt 1.000000 0.855664
vt 0.916667 0.855664
vt 0.916667 1.000000
vt 1.000000 1.000000
vt 0.833333 0.855664
vt 0.833333 1.000000
vt 0.750000 0.855664
vt 0.750000 1.000000
vt 0.666667 0.855664
vt 0.666667 1.000000
vt 0.583333 0.855664
vt 0.583333 1.000000
vt 0.500000 0.855664
vt 0.500000 1.000000
vt 0.416667 0.855664
vt 0.416667 1.000000
vt 0.333333 0.855664
vt 0.333333 1.000000
vt 0.250000 0.855664
vt 0.250000 1.000000
vt 0.166667 0.855664
vt 0.166667 1.000000
vt 0.370000 0.457846
vt 0.457846 0.370000
vt 0.490000 0.250000
vt 0.457846 0.130000
vt 0.370000 0.042154
vt 0.250000 0.010000
vt 0.130000 0.042154
vt 0.042154 0.130000
vt 0.010000 0.250000
vt 0.042154 0.370000
vt 0.130000 0.457846
vt 0.250000 0.490000
vt 0.083333 0.855664
vt 0.083333 1.000000
vt 0.000000 0.855664
vt 0.000000 1.000000
vt 0.838526 0.403331
vt 0.838526 0.403331
vt 0.903331 0.338526
vt 0.903331 0.338526
vt 0.870000 0.457846
vt 0.750000 0.490000
vt 0.750000 0.427051
vt 0.957846 0.370000
vt 0.927051 0.250000
vt 0.990000 0.250000
vt 0.903331 0.161474
vt 0.957846 0.130000
vt 0.838526 0.096669
vt 0.870000 0.042154
vt 0.750000 0.072949
vt 0.750000 0.010000
vt 0.661474 0.096669
vt 0.630000 0.042154
vt 0.596669 0.161474
vt 0.542154 0.130000
vt 0.572949 0.250000
vt 0.510000 0.250000
vt 0.596669 0.338526
vt 0.542154 0.370000
vt 0.661474 0.403331
vt 0.630000 0.457846
vt 0.596669 0.161474
vt 0.572949 0.250000
vt 0.838526 0.096669
vt 0.750000 0.072949
vt 0.927051 0.250000
vt 0.596669 0.338526
vt 0.661474 0.096669
vt 0.903331 0.161474
vt 0.661474 0.403331
vt 0.750000 0.427051
vn -0.7665 0.3299 -0.5510
vn 0.4201 -0.0861 -0.9033
vn 0.3209 -0.4532 -0.8316
vn -0.8720 -0.0473 -0.4871
vn 0.2937 -0.7518 -0.5904
vn -0.9021 -0.3586 -0.2401
vn 0.3448 -0.9069 -0.2420
vn -0.8477 -0.5163 0.1219
vn 0.4619 -0.8780 0.1256
vn -0.7245 -0.4772 0.4974
vn 0.6160 -0.6684 0.4168
vn -0.5676 -0.2549 0.7828
vn 0.7667 -0.3298 0.5508
vn -0.4203 0.0863 0.9032
vn 0.8712 0.0482 0.4884
vn -0.3216 0.4525 0.8318
vn 0.9034 0.3571 0.2372
vn -0.2948 0.7526 0.5887
vn 0.8456 0.5195 -0.1222
vn -0.3443 0.9076 0.2402
vn 0.7255 0.4758 -0.4972
vn -0.4610 0.8785 -0.1251
vn 0.5674 0.2550 -0.7830
vn -0.6159 0.6684 -0.4170
vn -0.4439 0.4566 0.7710
vn -0.4168 0.7126 0.5643
vn 0.4340 0.7223 0.5384
vn 0.3914 0.3209 0.8625
vn -0.5380 0.1458 0.8302
vn -0.4637 0.8452 0.2657
vn -0.5723 0.8188 -0.0450
vn -0.7133 0.6405 -0.2843
vn -0.8491 0.3581 -0.3883
vn -0.9431 0.0473 -0.3290
vn -0.9703 -0.2087 -0.1224
vn -0.9233 -0.3412 0.1762
vn -0.8147 -0.3148 0.4869
vn -0.6737 -0.1365 0.7262
vn -0.3603 -0.9302 -0.0701
vn -0.4340 -0.7223 -0.5384
vn -0.2439 0.1665 -0.9554
vn -0.0311 0.6093 -0.7923
vn 0.3603 0.9302 0.0701
vn -0.1901 -0.8888 0.4170
vn -0.3914 -0.3209 -0.8625
vn 0.1901 0.8888 -0.4170
vn 0.0311 -0.6093 0.7923
vn 0.2439 -0.1665 0.9554
vn 0.7665 0.3299 -0.5510
vn 0.8720 -0.0473 -0.4871
vn -0.3209 -0.4532 -0.8316
vn -0.4201 -0.0861 -0.9033
vn 0.9021 -0.3586 -0.2401
vn -0.2937 -0.7518 -0.5904
vn 0.8477 -0.5163 0.1219
vn -0.3448 -0.9069 -0.2420
vn 0.7245 -0.4772 0.4974
vn -0.4619 -0.8780 0.1256
vn 0.5676 -0.2549 0.7828
vn -0.6160 -0.6684 0.4168
vn 0.4203 0.0863 0.9032
vn -0.7667 -0.3298 0.5508
vn 0.3216 0.4525 0.8318
vn -0.8712 0.0482 0.4884
vn 0.2948 0.7526 0.5887
vn -0.9034 0.3571 0.2372
vn 0.3443 0.9076 0.2402
vn -0.8456 0.5195 -0.1222
vn 0.4610 0.8785 -0.1251
vn -0.7255 0.4758 -0.4972
vn -0.5674 0.2550 -0.7830
vn 0.6159 0.6684 -0.4170
vn 0.4439 0.4566 0.7710
vn -0.3914 0.3209 0.8625
vn -0.4340 0.7223 0.5384
vn 0.4168 0.7126 0.5643
vn 0.5380 0.1458 0.8302
vn 0.4637 0.8452 0.2657
vn 0.5723 0.8188 -0.0450
vn 0.7133 0.6405 -0.2843
vn 0.8491 0.3581 -0.3883
vn 0.9431 0.0473 -0.3290
vn 0.9703 -0.2087 -0.1224
vn 0.9233 -0.3412 0.1762
vn 0.8147 -0.3148 0.4869
vn 0.6737 -0.1365 0.7262
vn 0.4340 -0.7223 -0.5384
vn 0.3603 -0.9302 -0.0701
vn 0.0311 0.6093 -0.7923
vn 0.2439 0.1665 -0.9554
vn -0.3603 0.9302 0.0701
vn 0.1901 -0.8888 0.4170
vn 0.3914 -0.3209 -0.8625
vn -0.1901 0.8888 -0.4170
vn -0.0311 -0.6093 0.7923
vn -0.2439 -0.1665 0.9554
usemtl None
s 1
f 25/1/1 2/2/2 4/3/3 26/4/4
f 26/4/4 4/3/3 6/5/5 27/6/6
f 27/6/6 6/5/5 8/7/7 28/8/8
f 28/8/8 8/7/7 10/9/9 29/10/10
f 29/10/10 10/9/9 12/11/11 30/12/12
f 30/12/12 12/11/11 14/13/13 31/14/14
f 31/14/14 14/13/13 16/15/15 32/16/16
f 32/16/16 16/15/15 18/17/17 33/18/18
f 33/18/18 18/17/17 20/19/19 34/20/20
f 34/20/20 20/19/19 22/21/21 35/22/22
f 4/23/3 2/24/2 24/25/23 22/26/21 20/27/19 18/28/17 16/29/15 14/30/13 12/31/11 10/32/9 8/33/7 6/34/5
f 35/22/22 22/21/21 24/35/23 36/36/24
f 36/36/24 24/35/23 2/37/2 25/38/1
f 3/39/25 5/40/26 39/41/27 38/42/28
f 3/39/25 1/43/29 25/44/1 26/45/4
f 5/40/26 3/39/25 26/45/4 27/46/6
f 7/47/30 5/40/26 27/46/6 28/48/8
f 9/49/31 7/47/30 28/48/8 29/50/10
f 11/51/32 9/49/31 29/50/10 30/52/12
f 13/53/33 11/51/32 30/52/12 31/54/14
f 15/55/34 13/53/33 31/54/14 32/56/16
f 17/57/35 15/55/34 32/56/16 33/58/18
f 19/59/36 17/57/35 33/58/18 34/60/20
f 21/61/37 19/59/36 34/60/20 35/62/22
f 23/63/38 21/61/37 35/62/22 36/64/24
f 1/43/29 23/63/38 36/64/24 25/44/1
f 17/57/35 19/59/36 46/65/39 45/66/40
f 11/51/32 13/53/33 43/67/41 42/68/42
f 5/40/26 7/47/30 40/69/43 39/41/27
f 19/59/36 21/61/37 47/70/44 46/65/39
f 13/53/33 15/55/34 44/71/45 43/67/41
f 7/47/30 9/49/31 41/72/46 40/69/43
f 21/61/37 23/63/38 48/73/47 47/70/44
f 1/43/29 3/39/25 38/42/28 37/74/48
f 15/55/34 17/57/35 45/66/40 44/71/45
f 9/49/31 11/51/32 42/68/42 41/72/46
f 23/63/38 1/43/29 37/74/48 48/73/47
f 73/75/49 74/76/50 52/77/51 50/78/52
f 74/76/50 75/79/53 54/80/54 52/77/51
f 75/79/53 76/81/55 56/82/56 54/80/54
f 76/81/55 77/83/57 58/84/58 56/82/56
f 77/83/57 78/85/59 60/86/60 58/84/58
f 78/85/59 79/87/61 62/88/62 60/86/60
f 79/87/61 80/89/63 64/90/64 62/88/62
f 80/89/63 81/91/65 66/92/66 64/90/64
f 81/91/65 82/93/67 68/94/68 66/92/66
f 82/93/67 83/95/69 70/96/70 68/94/68
f 52/97/51 54/98/54 56/99/56 58/100/58 60/101/60 62/102/62 64/103/64 66/104/66 68/105/68 70/106/70 72/107/71 50/108/52
f 83/95/69 84/109/72 72/110/71 70/96/70
f 84/109/72 73/111/49 50/112/52 72/110/71
f 51/113/73 86/114/74 87/115/75 53/116/76
f 51/113/73 74/117/50 73/118/49 49/119/77
f 53/116/76 75/120/53 74/117/50 51/113/73
f 55/121/78 76/122/55 75/120/53 53/116/76
f 57/123/79 77/124/57 76/122/55 55/121/78
f 59/125/80 78/126/59 77/124/57 57/123/79
f 61/127/81 79/128/61 78/126/59 59/125/80
f 63/129/82 80/130/63 79/128/61 61/127/81
f 65/131/83 81/132/65 80/130/63 63/129/82
f 67/133/84 82/134/67 81/132/65 65/131/83
f 69/135/85 83/136/69 82/134/67 67/133/84
f 71/137/86 84/138/72 83/136/69 69/135/85
f 49/119/77 73/118/49 84/138/72 71/137/86
f 65/131/83 93/139/87 94/140/88 67/133/84
f 59/125/80 90/141/89 91/142/90 61/127/81
f 53/116/76 87/115/75 88/143/91 55/121/78
f 67/133/84 94/140/88 95/144/92 69/135/85
f 61/127/81 91/142/90 92/145/93 63/129/82
f 55/121/78 88/143/91 89/146/94 57/123/79
f 69/135/85 95/144/92 96/147/95 71/137/86
f 49/119/77 85/148/96 86/114/74 51/113/73
f 63/129/82 92/145/93 93/139/87 65/131/83
f 57/123/79 89/146/94 90/141/89 59/125/80
f 71/137/86 96/147/95 85/148/96 49/119/77
o Cylinder.010
v -0.487185 -0.195779 -0.025524
v -0.510789 -0.273787 -0.010648
v -0.517608 -0.338033 0.041215
v -0.505815 -0.371302 0.116168
v -0.478571 -0.364679 0.194127
v -0.443174 -0.319938 0.254203
v -0.409111 -0.249069 0.280300
v -0.385507 -0.171061 0.265424
v -0.378688 -0.106815 0.213561
v -0.390481 -0.073546 0.138608
v -0.417725 -0.080170 0.060649
v -0.453122 -0.124910 0.000572
v 0.487185 -0.195779 -0.025524
v 0.510789 -0.273787 -0.010648
v 0.517608 -0.338033 0.041215
v 0.505815 -0.371302 0.116168
v 0.478571 -0.364679 0.194127
v 0.443174 -0.319938 0.254203
v 0.409111 -0.249069 0.280300
v 0.385507 -0.171061 0.265424
v 0.378688 -0.106815 0.213561
v 0.390481 -0.073546 0.138608
v 0.417725 -0.080170 0.060649
v 0.453122 -0.124910 0.000572
vt 0.750000 0.427051
vt 0.838526 0.403331
vt 0.903331 0.338526
vt 0.927051 0.250000
vt 0.903331 0.161474
vt 0.838526 0.096669
vt 0.750000 0.072949
vt 0.661474 0.096669
vt 0.596669 0.161474
vt 0.572949 0.250000
vt 0.596669 0.338526
vt 0.661474 0.403331
vt 0.750000 0.427051
vt 0.661474 0.403331
vt 0.596669 0.338526
vt 0.572949 0.250000
vt 0.596669 0.161474
vt 0.661474 0.096669
vt 0.750000 0.072949
vt 0.838526 0.096669
vt 0.903331 0.161474
vt 0.927051 0.250000
vt 0.903331 0.338526
vt 0.838526 0.403331
vn -0.9004 0.3271 0.2869
vn 0.9004 0.3271 0.2869
usemtl None
s off
f 97/149/97 98/150/97 99/151/97 100/152/97 101/153/97 102/154/97 103/155/97 104/156/97 105/157/97 106/158/97 107/159/97 108/160/97
f 109/161/98 120/162/98 119/163/98 118/164/98 117/165/98 116/166/98 115/167/98 114/168/98 113/169/98 112/170/98 111/171/98 110/172/98
o Cylinder.013
v -0.413062 -0.207521 -0.100020
v -0.445058 -0.313264 -0.079855
v -0.264099 -0.086621 0.223871
v -0.283866 -0.042135 0.122666
v -0.366887 -0.111455 -0.064645
v -0.138619 0.026692 0.117760
v -0.129814 -0.019358 0.219808
v -0.409746 -0.191081 -0.328630
v -0.427965 -0.255272 -0.319538
v -0.365692 -0.100196 -0.340811
v -0.439884 -0.277804 -0.460876
v -0.458646 -0.344728 -0.442843
v -0.411927 -0.217841 -0.480720
v -0.417472 -0.222563 -0.403775
v -0.387747 -0.153551 -0.426773
v -0.438455 -0.280364 -0.383721
v 0.413062 -0.207521 -0.100020
v 0.445058 -0.313264 -0.079855
v 0.264099 -0.086621 0.223871
v 0.283866 -0.042135 0.122666
v 0.366887 -0.111455 -0.064645
v 0.138619 0.026692 0.117760
v 0.129814 -0.019358 0.219808
v 0.000000 0.024160 0.113342
v 0.000000 -0.022692 0.214358
v 0.409746 -0.191081 -0.328630
v 0.427965 -0.255272 -0.319538
v 0.365692 -0.100196 -0.340811
v 0.439884 -0.277804 -0.460876
v 0.458646 -0.344728 -0.442843
v 0.411927 -0.217841 -0.480720
v 0.417472 -0.222563 -0.403775
v 0.387747 -0.153551 -0.426773
v 0.438455 -0.280364 -0.383721
vt 0.333333 1.000000
vt 0.333333 1.000000
vt 0.250000 1.000000
vt 0.250000 1.000000
vt 0.333333 1.000000
vt 0.250000 1.000000
vt 0.250000 0.490000
vt 0.130000 0.457846
vt 0.130000 0.457846
vt 0.250000 0.490000
vt 1.000000 1.000000
vt 1.000000 1.000000
vt 0.916667 1.000000
vt 0.916667 1.000000
vt 0.232925 0.485425
vt 0.130000 0.457846
vt 0.130000 0.457846
vt 0.250000 0.490000
vt 0.916667 1.000000
vt 1.019932 1.000000
vt 1.000000 1.000000
vt 0.916667 1.000000
vt 0.333333 1.000000
vt 0.250000 1.000000
vt 0.250000 1.000000
vt 0.333333 1.000000
vt 0.250000 0.490000
vt 0.250000 0.490000
vt 0.130000 0.457846
vt 0.130000 0.457846
vt 1.000000 1.000000
vt 0.916667 1.000000
vt 0.916667 1.000000
vt 1.000000 1.000000
vt 0.232925 0.485425
vt 0.250000 0.490000
vt 0.130000 0.457846
vt 0.130000 0.457846
vt 0.916667 1.000000
vt 0.916667 1.000000
vt 1.000000 1.000000
vt 1.019932 1.000000
vn -0.3863 0.8211 0.4201
vn -0.1855 0.8848 0.4274
vn -0.1743 0.8872 0.4272
vn 0.0000 0.9099 0.4147
vn -0.9331 0.3595 0.0095
vn -0.9012 0.4330 0.0157
vn -0.9060 0.4231 -0.0119
vn -0.9296 0.3684 -0.0088
vn -0.9556 0.2946 0.0018
vn -0.9588 0.2839 0.0033
vn -0.9321 0.3616 -0.0201
vn -0.9131 0.4053 -0.0455
vn -0.9171 0.3963 -0.0417
vn -0.9404 0.3400 0.0047
vn -0.9509 0.3091 0.0164
vn -0.9499 0.3112 0.0279
vn 0.3863 0.8211 0.4201
vn 0.1743 0.8872 0.4272
vn 0.1855 0.8848 0.4274
vn 0.9331 0.3595 0.0095
vn 0.9296 0.3684 -0.0088
vn 0.9060 0.4231 -0.0119
vn 0.9012 0.4330 0.0157
vn 0.9588 0.2839 0.0033
vn 0.9556 0.2946 0.0018
vn 0.9321 0.3616 -0.0201
vn 0.9404 0.3400 0.0047
vn 0.9171 0.3963 -0.0417
vn 0.9131 0.4053 -0.0455
vn 0.9509 0.3091 0.0164
vn 0.9499 0.3112 0.0279
usemtl None
s 1
f 123/173/99 127/174/100 126/175/101 124/176/99
f 127/174/100 145/177/102 144/178/102 126/175/101
f 121/179/103 125/180/104 130/181/105 128/182/106
f 121/183/103 128/184/106 129/185/107 122/186/108
f 134/187/109 135/188/110 133/189/111 131/190/112
f 136/191/113 134/192/109 131/193/112 132/194/114
f 129/185/107 128/184/106 134/192/109 136/191/113
f 128/182/106 130/181/105 135/188/110 134/187/109
f 139/195/115 140/196/115 142/197/116 143/198/117
f 143/198/117 142/197/116 144/178/102 145/177/102
f 137/199/118 146/200/119 148/201/120 141/202/121
f 137/203/118 138/204/122 147/205/123 146/206/119
f 152/207/124 149/208/125 151/209/126 153/210/127
f 154/211/128 150/212/129 149/213/125 152/214/124
f 147/205/123 154/211/128 152/214/124 146/206/119
f 146/200/119 152/207/124 153/210/127 148/201/120
