# Blender v2.91.0 OBJ File: 'hats.blend'
# www.blender.org
mtllib fedora.mtl
o Cube.010_Cube
v -0.096935 -0.086512 0.336415
v -0.091419 0.137399 0.409562
v -0.124537 0.025140 -0.032634
v -0.111315 0.235802 0.040991
v -0.060517 0.030550 -0.050517
v -0.043078 0.234623 0.030225
v -0.043585 -0.093661 0.360044
v -0.050722 0.117710 0.434333
v -0.185685 0.005708 0.031596
v -0.185685 -0.019134 0.113708
v -0.185685 -0.043977 0.195820
v -0.151941 -0.068819 0.277932
v -0.132591 0.173514 0.344563
v -0.162866 0.188508 0.258791
v -0.160789 0.212458 0.176440
v -0.158712 0.236409 0.094090
v -0.093097 0.262283 0.110589
v -0.095175 0.238332 0.192939
v -0.097252 0.214381 0.275290
v -0.066976 0.182455 0.361062
v -0.092842 0.005708 0.031596
v -0.092842 -0.019134 0.113708
v -0.092842 -0.043977 0.195820
v -0.076987 -0.068819 0.277932
v -0.096935 -0.012989 0.358658
v -0.096935 0.060222 0.380807
v -0.124537 0.171873 0.011759
v -0.124537 0.098663 -0.010390
v -0.043585 0.053073 0.404437
v -0.043585 -0.020138 0.382288
v -0.060517 0.177284 -0.006124
v -0.060517 0.104073 -0.028273
v -0.151941 0.077915 0.322325
v -0.151941 0.004705 0.300176
v -0.185685 0.102757 0.240213
v -0.185685 0.029547 0.218064
v -0.185685 0.127599 0.158101
v -0.185685 0.054389 0.135951
v -0.185685 0.152442 0.075988
v -0.185685 0.079231 0.053839
v -0.134447 -0.104340 0.397353
v -0.151912 0.039443 -0.079910
v -0.064717 0.046812 -0.104267
v -0.049134 -0.108818 0.415535
v -0.235197 0.012976 0.007571
v -0.235197 -0.014701 0.099053
v -0.243680 -0.053766 0.222766
v -0.208695 -0.085034 0.329534
v -0.166361 -0.102232 0.465280
v -0.192712 0.093200 -0.106132
v -0.083677 0.099764 -0.147193
v -0.056925 -0.115427 0.493458
v -0.290186 0.062831 0.015573
v -0.298903 0.029921 0.095417
v -0.290296 -0.011248 0.231493
v -0.253701 -0.054164 0.373346
v 0.096935 -0.086512 0.336415
v 0.091419 0.137399 0.409562
v 0.124537 0.025140 -0.032634
v 0.111315 0.235802 0.040991
v 0.000000 0.030550 -0.050517
v 0.060517 0.030550 -0.050517
v 0.043078 0.234623 0.030225
v 0.000000 0.212097 0.011748
v 0.043585 -0.093661 0.360044
v 0.000000 -0.093661 0.360044
v 0.000000 0.087886 0.422309
v 0.050722 0.117710 0.434333
v 0.185685 0.005708 0.031596
v 0.185685 -0.019134 0.113708
v 0.185685 -0.043977 0.195820
v 0.151941 -0.068819 0.277932
v 0.132591 0.173514 0.344563
v 0.162866 0.188508 0.258791
v 0.160789 0.212458 0.176440
v 0.158712 0.236409 0.094090
v 0.000000 0.218679 0.103367
v 0.000000 0.193837 0.185480
v 0.000000 0.168995 0.267592
v 0.000000 0.144152 0.349704
v 0.093097 0.262283 0.110589
v 0.095175 0.238332 0.192939
v 0.097252 0.214381 0.275290
v 0.066976 0.182455 0.361062
v 0.092842 0.005708 0.031596
v 0.092842 -0.019134 0.113708
v 0.092842 -0.043977 0.195820
v 0.076987 -0.068819 0.277932
v 0.000000 0.005708 0.031596
v 0.000000 -0.019134 0.113708
v 0.000000 -0.043977 0.195820
v 0.000000 -0.068819 0.277932
v 0.096935 -0.012989 0.358658
v 0.096935 0.060222 0.380807
v 0.124537 0.171873 0.011759
v 0.124537 0.098663 -0.010390
v 0.000000 0.030004 0.397458
v 0.000000 -0.025980 0.380521
v 0.043585 0.053073 0.404437
v 0.043585 -0.020138 0.382288
v 0.060517 0.177284 -0.006124
v 0.060517 0.104073 -0.028273
v 0.000000 0.154215 -0.013103
v 0.000000 0.081005 -0.035252
v 0.151941 0.077915 0.322325
v 0.151941 0.004705 0.300176
v 0.185685 0.102757 0.240213
v 0.185685 0.029547 0.218064
v 0.185685 0.127599 0.158101
v 0.185685 0.054389 0.135951
v 0.185685 0.152442 0.075988
v 0.185685 0.079231 0.053839
v 0.134447 -0.104340 0.397353
v 0.151912 0.039443 -0.079910
v 0.000000 0.046812 -0.104267
v 0.064717 0.046812 -0.104267
v 0.049134 -0.108818 0.415535
v 0.000000 -0.116207 0.434567
v 0.235197 0.012976 0.007571
v 0.235197 -0.014701 0.099053
v 0.243680 -0.053766 0.222766
v 0.208695 -0.085034 0.329534
v 0.166361 -0.102232 0.465280
v 0.192712 0.093200 -0.106132
v 0.000000 0.097927 -0.154162
v 0.083677 0.099764 -0.147193
v 0.056925 -0.115427 0.493458
v 0.000000 -0.118997 0.505626
v 0.290186 0.062831 0.015573
v 0.298903 0.029921 0.095417
v 0.290296 -0.011248 0.231493
v 0.253701 -0.054164 0.373346
vt 0.541667 0.200000
vt 0.625000 0.200000
vt 0.625000 0.250000
vt 0.541667 0.250000
vt 0.541667 0.937500
vt 0.625000 0.937500
vt 0.625000 1.000000
vt 0.541667 1.000000
vt 0.812500 0.700000
vt 0.875000 0.700000
vt 0.875000 0.750000
vt 0.812500 0.750000
vt 0.750000 0.700000
vt 0.750000 0.750000
vt 0.125000 0.700000
vt 0.187500 0.700000
vt 0.187500 0.750000
vt 0.125000 0.750000
vt 0.250000 0.700000
vt 0.250000 0.750000
vt 0.541667 0.875000
vt 0.625000 0.875000
vt 0.625000 0.312500
vt 0.541667 0.312500
vt 0.625000 0.375000
vt 0.541667 0.375000
vt 0.187500 0.500000
vt 0.250000 0.500000
vt 0.250000 0.550000
vt 0.187500 0.550000
vt 0.250000 0.600000
vt 0.187500 0.600000
vt 0.250000 0.650000
vt 0.187500 0.650000
vt 0.125000 0.500000
vt 0.125000 0.550000
vt 0.125000 0.600000
vt 0.125000 0.650000
vt 0.750000 0.500000
vt 0.812500 0.500000
vt 0.812500 0.550000
vt 0.750000 0.550000
vt 0.812500 0.600000
vt 0.750000 0.600000
vt 0.812500 0.650000
vt 0.750000 0.650000
vt 0.875000 0.500000
vt 0.875000 0.550000
vt 0.875000 0.600000
vt 0.875000 0.650000
vt 0.541667 0.000000
vt 0.625000 0.000000
vt 0.625000 0.050000
vt 0.541667 0.050000
vt 0.625000 0.100000
vt 0.541667 0.100000
vt 0.625000 0.150000
vt 0.541667 0.150000
vt 0.375000 0.150000
vt 0.458333 0.150000
vt 0.458333 0.200000
vt 0.375000 0.200000
vt 0.375000 0.100000
vt 0.458333 0.100000
vt 0.375000 0.050000
vt 0.458333 0.050000
vt 0.375000 0.000000
vt 0.458333 0.000000
vt 0.375000 0.312500
vt 0.458333 0.312500
vt 0.458333 0.375000
vt 0.375000 0.375000
vt 0.375000 0.250000
vt 0.458333 0.250000
vt 0.375000 0.875000
vt 0.477941 0.875000
vt 0.458333 0.937500
vt 0.375000 0.937500
vt 0.458333 1.000000
vt 0.375000 1.000000
vt 0.125000 0.600000
vt 0.125000 0.650000
vt 0.125000 0.750000
vt 0.187500 0.750000
vt 0.250000 0.500000
vt 0.187500 0.500000
vt 0.125000 0.700000
vt 0.125000 0.500000
vt 0.125000 0.550000
vt 0.250000 0.750000
vt 0.125000 0.500000
vt 0.125000 0.550000
vt 0.250000 0.500000
vt 0.187500 0.500000
vt 0.125000 0.600000
vt 0.125000 0.750000
vt 0.178858 0.750000
vt 0.125000 0.700000
vt 0.125000 0.650000
vt 0.250000 0.750000
vt 0.541667 0.200000
vt 0.541667 0.250000
vt 0.625000 0.250000
vt 0.625000 0.200000
vt 0.541667 0.937500
vt 0.541667 1.000000
vt 0.625000 1.000000
vt 0.625000 0.937500
vt 0.812500 0.700000
vt 0.812500 0.750000
vt 0.875000 0.750000
vt 0.875000 0.700000
vt 0.125000 0.700000
vt 0.125000 0.750000
vt 0.187500 0.750000
vt 0.187500 0.700000
vt 0.541667 0.312500
vt 0.625000 0.312500
vt 0.187500 0.500000
vt 0.187500 0.550000
vt 0.187500 0.600000
vt 0.187500 0.650000
vt 0.125000 0.500000
vt 0.125000 0.550000
vt 0.125000 0.600000
vt 0.125000 0.650000
vt 0.812500 0.550000
vt 0.812500 0.500000
vt 0.812500 0.600000
vt 0.812500 0.650000
vt 0.875000 0.550000
vt 0.875000 0.500000
vt 0.875000 0.600000
vt 0.875000 0.650000
vt 0.541667 0.000000
vt 0.541667 0.050000
vt 0.625000 0.050000
vt 0.625000 0.000000
vt 0.541667 0.100000
vt 0.625000 0.100000
vt 0.541667 0.150000
vt 0.625000 0.150000
vt 0.375000 0.150000
vt 0.375000 0.200000
vt 0.458333 0.200000
vt 0.458333 0.150000
vt 0.375000 0.100000
vt 0.458333 0.100000
vt 0.375000 0.050000
vt 0.458333 0.050000
vt 0.375000 0.000000
vt 0.458333 0.000000
vt 0.375000 0.312500
vt 0.458333 0.312500
vt 0.375000 0.250000
vt 0.458333 0.250000
vt 0.375000 0.937500
vt 0.458333 0.937500
vt 0.375000 1.000000
vt 0.458333 1.000000
vt 0.125000 0.650000
vt 0.125000 0.600000
vt 0.187500 0.750000
vt 0.125000 0.750000
vt 0.187500 0.500000
vt 0.125000 0.700000
vt 0.125000 0.550000
vt 0.125000 0.500000
vt 0.125000 0.550000
vt 0.125000 0.500000
vt 0.187500 0.500000
vt 0.125000 0.600000
vt 0.178858 0.750000
vt 0.125000 0.750000
vt 0.125000 0.700000
vt 0.125000 0.650000
vn -0.7080 0.3824 -0.5937
vn -0.5050 -0.3348 0.7956
vn -0.1656 0.7628 0.6251
vn 0.5033 0.6918 0.5178
vn -0.0000 -0.9572 -0.2896
vn -0.0463 -0.4098 0.9110
vn -0.1982 0.5045 -0.8403
vn -0.0099 0.4702 -0.8825
vn 0.4277 0.9022 -0.0552
vn 0.4257 0.8660 0.2623
vn 0.4253 0.8662 0.2624
vn 0.4632 0.8616 0.2078
vn -0.1592 0.9358 -0.3144
vn -0.4084 0.8792 0.2454
vn -0.3219 0.8782 0.3538
vn -0.8002 -0.0609 0.5967
vn -0.9163 0.1276 0.3797
vn -0.9646 0.2560 0.0638
vn -0.9577 0.2790 0.0707
vn -1.0000 0.0000 0.0000
vn -0.9306 -0.1060 0.3504
vn -0.7432 -0.1937 0.6404
vn 0.0000 0.2896 -0.9572
vn -0.2802 0.2780 -0.9188
vn -0.0000 -0.2896 0.9572
vn -0.4200 -0.2628 0.8687
vn -0.7391 0.1950 -0.6447
vn -0.0137 0.9551 0.2960
vn -0.0014 0.9623 0.2721
vn 0.0000 0.9572 0.2896
vn -0.0178 0.9567 0.2907
vn 0.0192 0.9600 0.2792
vn -0.0049 0.9583 0.2858
vn 0.5234 0.5917 0.6131
vn 0.0431 0.6694 0.7417
vn 0.6020 0.7427 0.2933
vn 0.0780 0.9956 0.0520
vn 0.3886 0.9214 -0.0044
vn 0.6093 0.7577 0.2337
vn 0.0830 0.9943 0.0671
vn 0.2107 0.6120 0.7623
vn 0.6400 0.7671 0.0446
vn 0.7080 0.3824 -0.5937
vn 0.5050 -0.3348 0.7956
vn 0.1656 0.7628 0.6251
vn -0.5033 0.6918 0.5178
vn 0.0463 -0.4098 0.9110
vn 0.1982 0.5045 -0.8403
vn 0.0099 0.4702 -0.8825
vn -0.4277 0.9022 -0.0552
vn -0.4257 0.8660 0.2623
vn -0.4253 0.8662 0.2624
vn -0.4632 0.8616 0.2078
vn 0.1592 0.9358 -0.3144
vn 0.4084 0.8792 0.2454
vn 0.3219 0.8782 0.3538
vn 0.8002 -0.0609 0.5967
vn 0.9163 0.1276 0.3797
vn 0.9646 0.2560 0.0638
vn 0.9577 0.2790 0.0707
vn 1.0000 0.0000 0.0000
vn 0.9306 -0.1060 0.3504
vn 0.7432 -0.1937 0.6404
vn 0.2802 0.2780 -0.9188
vn 0.4200 -0.2628 0.8687
vn 0.7391 0.1950 -0.6447
vn 0.0137 0.9551 0.2960
vn 0.0014 0.9623 0.2721
vn 0.0178 0.9567 0.2907
vn -0.0192 0.9600 0.2792
vn 0.0049 0.9583 0.2858
vn -0.5234 0.5917 0.6131
vn -0.0431 0.6694 0.7417
vn -0.6020 0.7427 0.2933
vn -0.0780 0.9956 0.0520
vn -0.3886 0.9214 -0.0044
vn -0.6093 0.7577 0.2337
vn -0.0830 0.9943 0.0671
vn -0.2107 0.6120 0.7623
vn -0.6400 0.7671 0.0446
usemtl None
s off
f 39/1/1 16/2/1 4/3/1 27/4/1
f 29/5/2 8/6/2 2/7/2 26/8/2
f 20/9/3 13/10/3 2/11/3 8/12/3
f 80/13/4 20/9/4 8/12/4 67/14/4
f 12/15/5 24/16/5 7/17/5 1/18/5
f 24/16/5 92/19/5 66/20/5 7/17/5
f 97/21/6 67/22/6 8/6/6 29/5/6
f 27/4/7 4/3/7 6/23/7 31/24/7
f 31/24/8 6/23/8 64/25/8 103/26/8
f 5/27/5 61/28/5 89/29/5 21/30/5
f 21/30/5 89/29/5 90/31/5 22/32/5
f 22/32/5 90/31/5 91/33/5 23/34/5
f 23/34/5 91/33/5 92/19/5 24/16/5
f 3/35/5 5/27/5 21/30/5 9/36/5
f 9/36/5 21/30/5 22/32/5 10/37/5
f 10/37/5 22/32/5 23/34/5 11/38/5
f 11/38/5 23/34/5 24/16/5 12/15/5
f 64/39/9 6/40/9 17/41/9 77/42/9
f 77/42/10 17/41/10 18/43/10 78/44/10
f 78/44/11 18/43/11 19/45/11 79/46/11
f 79/46/12 19/45/12 20/9/12 80/13/12
f 6/40/13 4/47/13 16/48/13 17/41/13
f 17/41/14 16/48/14 15/49/14 18/43/14
f 18/43/14 15/49/14 14/50/14 19/45/14
f 19/45/15 14/50/15 13/10/15 20/9/15
f 26/51/16 2/52/16 13/53/16 33/54/16
f 33/54/17 13/53/17 14/55/17 35/56/17
f 35/56/18 14/55/18 15/57/18 37/58/18
f 37/58/19 15/57/19 16/2/19 39/1/19
f 10/59/20 38/60/20 40/61/20 9/62/20
f 38/60/20 37/58/20 39/1/20 40/61/20
f 11/63/20 36/64/20 38/60/20 10/59/20
f 36/64/20 35/56/20 37/58/20 38/60/20
f 12/65/21 34/66/21 36/64/21 11/63/21
f 34/66/21 33/54/21 35/56/21 36/64/21
f 1/67/22 25/68/22 34/66/22 12/65/22
f 25/68/22 26/51/22 33/54/22 34/66/22
f 5/69/23 32/70/23 104/71/23 61/72/23
f 32/70/23 31/24/23 103/26/23 104/71/23
f 3/73/24 28/74/24 32/70/24 5/69/24
f 28/74/24 27/4/24 31/24/24 32/70/24
f 66/75/25 98/76/25 30/77/25 7/78/25
f 98/76/25 97/21/25 29/5/25 30/77/25
f 7/78/26 30/77/26 25/79/26 1/80/26
f 30/77/26 29/5/26 26/8/26 25/79/26
f 9/62/27 40/61/27 28/74/27 3/73/27
f 40/61/27 39/1/27 27/4/27 28/74/27
f 11/38/28 10/37/28 46/81/28 47/82/28
f 7/17/29 1/18/29 41/83/29 44/84/29
f 5/27/30 61/28/30 115/85/30 43/86/30
f 12/15/31 11/38/31 47/82/31 48/87/31
f 9/36/30 3/35/30 42/88/30 45/89/30
f 66/20/32 7/17/32 44/84/32 118/90/32
f 1/18/33 12/15/33 48/87/33 41/83/33
f 3/35/30 5/27/30 43/86/30 42/88/30
f 10/37/30 9/36/30 45/89/30 46/81/30
f 45/89/34 42/88/34 50/91/34 53/92/34
f 43/86/35 115/85/35 125/93/35 51/94/35
f 46/81/36 45/89/36 53/92/36 54/95/36
f 44/84/37 41/83/37 49/96/37 52/97/37
f 41/83/38 48/87/38 56/98/38 49/96/38
f 47/82/39 46/81/39 54/95/39 55/99/39
f 118/90/40 44/84/40 52/97/40 128/100/40
f 42/88/41 43/86/41 51/94/41 50/91/41
f 48/87/42 47/82/42 55/99/42 56/98/42
f 111/101/43 95/102/43 60/103/43 76/104/43
f 99/105/44 94/106/44 58/107/44 68/108/44
f 84/109/45 68/110/45 58/111/45 73/112/45
f 80/13/46 67/14/46 68/110/46 84/109/46
f 72/113/5 57/114/5 65/115/5 88/116/5
f 88/116/5 65/115/5 66/20/5 92/19/5
f 97/21/47 99/105/47 68/108/47 67/22/47
f 95/102/48 101/117/48 63/118/48 60/103/48
f 101/117/49 103/26/49 64/25/49 63/118/49
f 62/119/5 85/120/5 89/29/5 61/28/5
f 85/120/5 86/121/5 90/31/5 89/29/5
f 86/121/5 87/122/5 91/33/5 90/31/5
f 87/122/5 88/116/5 92/19/5 91/33/5
f 59/123/5 69/124/5 85/120/5 62/119/5
f 69/124/5 70/125/5 86/121/5 85/120/5
f 70/125/5 71/126/5 87/122/5 86/121/5
f 71/126/5 72/113/5 88/116/5 87/122/5
f 64/39/50 77/42/50 81/127/50 63/128/50
f 77/42/51 78/44/51 82/129/51 81/127/51
f 78/44/52 79/46/52 83/130/52 82/129/52
f 79/46/53 80/13/53 84/109/53 83/130/53
f 63/128/54 81/127/54 76/131/54 60/132/54
f 81/127/55 82/129/55 75/133/55 76/131/55
f 82/129/55 83/130/55 74/134/55 75/133/55
f 83/130/56 84/109/56 73/112/56 74/134/56
f 94/135/57 105/136/57 73/137/57 58/138/57
f 105/136/58 107/139/58 74/140/58 73/137/58
f 107/139/59 109/141/59 75/142/59 74/140/59
f 109/141/60 111/101/60 76/104/60 75/142/60
f 70/143/61 69/144/61 112/145/61 110/146/61
f 110/146/61 112/145/61 111/101/61 109/141/61
f 71/147/61 70/143/61 110/146/61 108/148/61
f 108/148/61 110/146/61 109/141/61 107/139/61
f 72/149/62 71/147/62 108/148/62 106/150/62
f 106/150/62 108/148/62 107/139/62 105/136/62
f 57/151/63 72/149/63 106/150/63 93/152/63
f 93/152/63 106/150/63 105/136/63 94/135/63
f 62/153/23 61/72/23 104/71/23 102/154/23
f 102/154/23 104/71/23 103/26/23 101/117/23
f 59/155/64 62/153/64 102/154/64 96/156/64
f 96/156/64 102/154/64 101/117/64 95/102/64
f 66/75/25 65/157/25 100/158/25 98/76/25
f 98/76/25 100/158/25 99/105/25 97/21/25
f 65/157/65 57/159/65 93/160/65 100/158/65
f 100/158/65 93/160/65 94/106/65 99/105/65
f 69/144/66 59/155/66 96/156/66 112/145/66
f 112/145/66 96/156/66 95/102/66 111/101/66
f 71/126/67 121/161/67 120/162/67 70/125/67
f 65/115/68 117/163/68 113/164/68 57/114/68
f 62/119/30 116/165/30 115/85/30 61/28/30
f 72/113/69 122/166/69 121/161/69 71/126/69
f 69/124/30 119/167/30 114/168/30 59/123/30
f 66/20/70 118/90/70 117/163/70 65/115/70
f 57/114/71 113/164/71 122/166/71 72/113/71
f 59/123/30 114/168/30 116/165/30 62/119/30
f 70/125/30 120/162/30 119/167/30 69/124/30
f 119/167/72 129/169/72 124/170/72 114/168/72
f 116/165/73 126/171/73 125/93/73 115/85/73
f 120/162/74 130/172/74 129/169/74 119/167/74
f 117/163/75 127/173/75 123/174/75 113/164/75
f 113/164/76 123/174/76 132/175/76 122/166/76
f 121/161/77 131/176/77 130/172/77 120/162/77
f 118/90/78 128/100/78 127/173/78 117/163/78
f 114/168/79 124/170/79 126/171/79 116/165/79
f 122/166/80 132/175/80 131/176/80 121/161/80
o Cube.011
v -0.061733 0.033014 -0.058659
v -0.129086 0.027251 -0.039612
v -0.061900 0.119686 -0.032411
v -0.129086 0.113930 -0.013388
v -0.193699 0.093286 0.054849
v -0.193699 0.006607 0.028625
v -0.194279 0.067545 0.139932
v -0.194279 -0.019134 0.113708
v -0.194128 0.042239 0.223576
v -0.194128 -0.044440 0.197352
v -0.159250 0.016552 0.308482
v -0.159250 -0.070128 0.282259
v -0.102037 -0.001835 0.369258
v -0.102037 -0.088515 0.343034
v -0.045518 -0.009406 0.394283
v -0.045433 -0.096091 0.368078
v 0.061733 0.033014 -0.058659
v 0.129086 0.027251 -0.039612
v 0.000000 0.033039 -0.058742
v 0.061900 0.119686 -0.032411
v 0.000000 0.119718 -0.032518
v 0.129086 0.113930 -0.013388
v 0.193699 0.093286 0.054849
v 0.193699 0.006607 0.028625
v 0.194279 0.067545 0.139932
v 0.194279 -0.019134 0.113708
v 0.194128 0.042239 0.223576
v 0.194128 -0.044440 0.197352
v 0.159250 0.016552 0.308482
v 0.159250 -0.070128 0.282259
v 0.102037 -0.001835 0.369258
v 0.102037 -0.088515 0.343034
v 0.045518 -0.009406 0.394283
v 0.045433 -0.096091 0.368078
v 0.000000 -0.009470 0.394494
v 0.000000 -0.096150 0.368270
vt 0.375000 0.250000
vt 0.458333 0.250000
vt 0.458333 0.312500
vt 0.375000 0.312500
vt 0.458333 0.375000
vt 0.375000 0.375000
vt 0.375000 0.200000
vt 0.458333 0.200000
vt 0.375000 0.150000
vt 0.458333 0.150000
vt 0.375000 0.100000
vt 0.458333 0.100000
vt 0.375000 0.050000
vt 0.458333 0.050000
vt 0.375000 0.000000
vt 0.458333 0.000000
vt 0.375000 0.937500
vt 0.458333 0.937500
vt 0.458333 1.000000
vt 0.375000 1.000000
vt 0.375000 0.875000
vt 0.477941 0.875000
vt 0.375000 0.250000
vt 0.375000 0.312500
vt 0.458333 0.312500
vt 0.458333 0.250000
vt 0.375000 0.200000
vt 0.458333 0.200000
vt 0.375000 0.150000
vt 0.458333 0.150000
vt 0.375000 0.100000
vt 0.458333 0.100000
vt 0.375000 0.050000
vt 0.458333 0.050000
vt 0.375000 0.000000
vt 0.458333 0.000000
vt 0.375000 0.937500
vt 0.375000 1.000000
vt 0.458333 1.000000
vt 0.458333 0.937500
vn -0.2835 0.2776 -0.9179
vn -0.0016 0.2897 -0.9571
vn -0.7410 0.1945 -0.6428
vn -1.0000 0.0019 -0.0062
vn -1.0000 -0.0005 0.0016
vn -0.9306 -0.1060 0.3502
vn -0.7429 -0.1938 0.6407
vn -0.4197 -0.2629 0.8687
vn -0.0046 -0.2895 0.9572
vn 0.2835 0.2776 -0.9179
vn 0.0016 0.2897 -0.9571
vn 0.7410 0.1945 -0.6428
vn 1.0000 0.0019 -0.0062
vn 1.0000 -0.0005 0.0016
vn 0.9306 -0.1060 0.3502
vn 0.7429 -0.1938 0.6407
vn 0.4197 -0.2629 0.8687
vn 0.0046 -0.2895 0.9572
usemtl None
s off
f 134/177/81 136/178/81 135/179/81 133/180/81
f 133/180/82 135/179/82 153/181/82 151/182/82
f 138/183/83 137/184/83 136/178/83 134/177/83
f 140/185/84 139/186/84 137/184/84 138/183/84
f 142/187/85 141/188/85 139/186/85 140/185/85
f 144/189/86 143/190/86 141/188/86 142/187/86
f 146/191/87 145/192/87 143/190/87 144/189/87
f 148/193/88 147/194/88 145/195/88 146/196/88
f 168/197/89 167/198/89 147/194/89 148/193/89
f 150/199/90 149/200/90 152/201/90 154/202/90
f 149/200/91 151/182/91 153/181/91 152/201/91
f 156/203/92 150/199/92 154/202/92 155/204/92
f 158/205/93 156/203/93 155/204/93 157/206/93
f 160/207/94 158/205/94 157/206/94 159/208/94
f 162/209/95 160/207/95 159/208/95 161/210/95
f 164/211/96 162/209/96 161/210/96 163/212/96
f 166/213/97 164/214/97 163/215/97 165/216/97
f 168/197/98 166/213/98 165/216/98 167/198/98
