# Blender v2.91.0 OBJ File: 'hats.blend'
# www.blender.org
mtllib halo.mtl
o Torus
v 0.308881 0.142837 0.089630
v 0.280514 0.193249 0.095623
v 0.222368 0.194007 0.096179
v 0.192588 0.144353 0.090743
v 0.220954 0.093942 0.084750
v 0.279100 0.093183 0.084193
v 0.268763 0.159859 -0.054437
v 0.244408 0.208568 -0.034037
v 0.194286 0.205922 -0.004668
v 0.168517 0.154566 0.004303
v 0.192872 0.105857 -0.016097
v 0.242994 0.108503 -0.045466
v 0.161493 0.173335 -0.159155
v 0.147866 0.220697 -0.128284
v 0.119197 0.215355 -0.077971
v 0.104155 0.162652 -0.058528
v 0.117783 0.115290 -0.089400
v 0.146452 0.120632 -0.139713
v 0.015815 0.179655 -0.196467
v 0.016755 0.226385 -0.161864
v 0.017222 0.219780 -0.104088
v 0.016748 0.166444 -0.080915
v 0.015808 0.119714 -0.115518
v 0.015341 0.126320 -0.173293
v -0.129239 0.177126 -0.156373
v -0.113793 0.224108 -0.125780
v -0.084316 0.218009 -0.076023
v -0.070284 0.164926 -0.056859
v -0.085730 0.117944 -0.087452
v -0.115207 0.124043 -0.137209
v -0.234800 0.166424 -0.049618
v -0.208798 0.214477 -0.029700
v -0.158208 0.210518 -0.001294
v -0.133620 0.158505 0.007194
v -0.159622 0.110452 -0.012723
v -0.210212 0.114412 -0.041129
v -0.272583 0.150418 0.095194
v -0.242803 0.200071 0.100631
v -0.184657 0.199313 0.100074
v -0.156291 0.148902 0.094082
v -0.186071 0.099248 0.088645
v -0.244217 0.100006 0.089202
v -0.232466 0.133396 0.239261
v -0.206697 0.184752 0.230291
v -0.156574 0.187398 0.200921
v -0.132220 0.138689 0.180521
v -0.157988 0.087333 0.189492
v -0.208111 0.084687 0.218862
v -0.125196 0.119920 0.343980
v -0.110155 0.172623 0.324537
v -0.081486 0.177965 0.274224
v -0.067858 0.130603 0.243353
v -0.082900 0.077899 0.262795
v -0.111569 0.072558 0.313108
v 0.020483 0.113600 0.381291
v 0.020956 0.166935 0.358118
v 0.020489 0.173541 0.300342
v 0.019549 0.126811 0.265739
v 0.019075 0.073475 0.288913
v 0.019542 0.066870 0.346688
v 0.165536 0.116129 0.341197
v 0.151504 0.169212 0.322033
v 0.122027 0.175311 0.272276
v 0.106581 0.128329 0.241683
v 0.120613 0.075246 0.260847
v 0.150090 0.069146 0.310604
v 0.271097 0.126831 0.234442
v 0.246509 0.178843 0.225954
v 0.195919 0.182802 0.197548
v 0.169917 0.134750 0.177630
v 0.194505 0.082737 0.186118
v 0.245095 0.078778 0.214524
vt 0.500000 0.500000
vt 0.583333 0.500000
vt 0.583333 0.666667
vt 0.500000 0.666667
vt 0.583333 0.833333
vt 0.500000 0.833333
vt 0.583333 1.000000
vt 0.500000 1.000000
vt 0.500000 -0.000000
vt 0.583333 -0.000000
vt 0.583333 0.166667
vt 0.500000 0.166667
vt 0.583333 0.333333
vt 0.500000 0.333333
vt 0.666667 0.500000
vt 0.666667 0.666667
vt 0.666667 0.833333
vt 0.666667 1.000000
vt 0.666667 -0.000000
vt 0.666667 0.166667
vt 0.666667 0.333333
vt 0.750000 0.500000
vt 0.750000 0.666667
vt 0.750000 0.833333
vt 0.750000 1.000000
vt 0.750000 -0.000000
vt 0.750000 0.166667
vt 0.750000 0.333333
vt 0.833333 0.500000
vt 0.833333 0.666667
vt 0.833333 0.833333
vt 0.833333 1.000000
vt 0.833333 -0.000000
vt 0.833333 0.166667
vt 0.833333 0.333333
vt 0.916667 0.500000
vt 0.916667 0.666667
vt 0.916667 0.833333
vt 0.916667 1.000000
vt 0.916667 -0.000000
vt 0.916667 0.166667
vt 0.916667 0.333333
vt 1.000000 0.500000
vt 1.000000 0.666667
vt 1.000000 0.833333
vt 1.000000 1.000000
vt 1.000000 -0.000000
vt 1.000000 0.166667
vt 1.000000 0.333333
vt 0.000000 0.500000
vt 0.083333 0.500000
vt 0.083333 0.666667
vt 0.000000 0.666667
vt 0.083333 0.833333
vt 0.000000 0.833333
vt 0.083333 1.000000
vt 0.000000 1.000000
vt 0.000000 -0.000000
vt 0.083333 -0.000000
vt 0.083333 0.166667
vt 0.000000 0.166667
vt 0.083333 0.333333
vt 0.000000 0.333333
vt 0.166667 0.500000
vt 0.166667 0.666667
vt 0.166667 0.833333
vt 0.166667 1.000000
vt 0.166667 -0.000000
vt 0.166667 0.166667
vt 0.166667 0.333333
vt 0.250000 0.500000
vt 0.250000 0.666667
vt 0.250000 0.833333
vt 0.250000 1.000000
vt 0.250000 -0.000000
vt 0.250000 0.166667
vt 0.250000 0.333333
vt 0.333333 0.500000
vt 0.333333 0.666667
vt 0.333333 0.833333
vt 0.333333 1.000000
vt 0.333333 -0.000000
vt 0.333333 0.166667
vt 0.333333 0.333333
vt 0.416667 0.500000
vt 0.416667 0.666667
vt 0.416667 0.833333
vt 0.416667 1.000000
vt 0.416667 -0.000000
vt 0.416667 0.166667
vt 0.416667 0.333333
vn 0.8485 0.4985 -0.1774
vn 0.0140 0.9934 0.1135
vn -0.8348 0.4692 0.2879
vn -0.8485 -0.4985 0.1774
vn -0.0140 -0.9934 -0.1135
vn 0.8348 -0.4692 -0.2879
vn 0.6194 0.5460 -0.5642
vn -0.6057 0.4218 0.6747
vn -0.6194 -0.5460 0.5642
vn 0.6057 -0.4218 -0.6747
vn 0.2261 0.5767 -0.7850
vn -0.2124 0.3910 0.8956
vn -0.2261 -0.5767 0.7850
vn 0.2124 -0.3910 -0.8956
vn -0.2259 0.5826 -0.7807
vn 0.2396 0.3851 0.8912
vn 0.2259 -0.5826 0.7807
vn -0.2396 -0.3851 -0.8912
vn -0.6156 0.5621 -0.5524
vn 0.6293 0.4057 0.6629
vn 0.6156 -0.5621 0.5524
vn -0.6293 -0.4057 -0.6629
vn -0.8385 0.5205 -0.1612
vn 0.8522 0.4472 0.2718
vn 0.8385 -0.5205 0.1612
vn -0.8522 -0.4472 -0.2718
usemtl None
s off
f 1/1/1 7/2/1 8/3/1 2/4/1
f 2/4/2 8/3/2 9/5/2 3/6/2
f 3/6/3 9/5/3 10/7/3 4/8/3
f 4/9/4 10/10/4 11/11/4 5/12/4
f 5/12/5 11/11/5 12/13/5 6/14/5
f 6/14/6 12/13/6 7/2/6 1/1/6
f 7/2/7 13/15/7 14/16/7 8/3/7
f 8/3/2 14/16/2 15/17/2 9/5/2
f 9/5/8 15/17/8 16/18/8 10/7/8
f 10/10/9 16/19/9 17/20/9 11/11/9
f 11/11/5 17/20/5 18/21/5 12/13/5
f 12/13/10 18/21/10 13/15/10 7/2/10
f 13/15/11 19/22/11 20/23/11 14/16/11
f 14/16/2 20/23/2 21/24/2 15/17/2
f 15/17/12 21/24/12 22/25/12 16/18/12
f 16/19/13 22/26/13 23/27/13 17/20/13
f 17/20/5 23/27/5 24/28/5 18/21/5
f 18/21/14 24/28/14 19/22/14 13/15/14
f 19/22/15 25/29/15 26/30/15 20/23/15
f 20/23/2 26/30/2 27/31/2 21/24/2
f 21/24/16 27/31/16 28/32/16 22/25/16
f 22/26/17 28/33/17 29/34/17 23/27/17
f 23/27/5 29/34/5 30/35/5 24/28/5
f 24/28/18 30/35/18 25/29/18 19/22/18
f 25/29/19 31/36/19 32/37/19 26/30/19
f 26/30/2 32/37/2 33/38/2 27/31/2
f 27/31/20 33/38/20 34/39/20 28/32/20
f 28/33/21 34/40/21 35/41/21 29/34/21
f 29/34/5 35/41/5 36/42/5 30/35/5
f 30/35/22 36/42/22 31/36/22 25/29/22
f 31/36/23 37/43/23 38/44/23 32/37/23
f 32/37/2 38/44/2 39/45/2 33/38/2
f 33/38/24 39/45/24 40/46/24 34/39/24
f 34/40/25 40/47/25 41/48/25 35/41/25
f 35/41/5 41/48/5 42/49/5 36/42/5
f 36/42/26 42/49/26 37/43/26 31/36/26
f 37/50/3 43/51/3 44/52/3 38/53/3
f 38/53/2 44/52/2 45/54/2 39/55/2
f 39/55/1 45/54/1 46/56/1 40/57/1
f 40/58/6 46/59/6 47/60/6 41/61/6
f 41/61/5 47/60/5 48/62/5 42/63/5
f 42/63/4 48/62/4 43/51/4 37/50/4
f 43/51/8 49/64/8 50/65/8 44/52/8
f 44/52/2 50/65/2 51/66/2 45/54/2
f 45/54/7 51/66/7 52/67/7 46/56/7
f 46/59/10 52/68/10 53/69/10 47/60/10
f 47/60/5 53/69/5 54/70/5 48/62/5
f 48/62/9 54/70/9 49/64/9 43/51/9
f 49/64/12 55/71/12 56/72/12 50/65/12
f 50/65/2 56/72/2 57/73/2 51/66/2
f 51/66/11 57/73/11 58/74/11 52/67/11
f 52/68/14 58/75/14 59/76/14 53/69/14
f 53/69/5 59/76/5 60/77/5 54/70/5
f 54/70/13 60/77/13 55/71/13 49/64/13
f 55/71/16 61/78/16 62/79/16 56/72/16
f 56/72/2 62/79/2 63/80/2 57/73/2
f 57/73/15 63/80/15 64/81/15 58/74/15
f 58/75/18 64/82/18 65/83/18 59/76/18
f 59/76/5 65/83/5 66/84/5 60/77/5
f 60/77/17 66/84/17 61/78/17 55/71/17
f 61/78/20 67/85/20 68/86/20 62/79/20
f 62/79/2 68/86/2 69/87/2 63/80/2
f 63/80/19 69/87/19 70/88/19 64/81/19
f 64/82/22 70/89/22 71/90/22 65/83/22
f 65/83/5 71/90/5 72/91/5 66/84/5
f 66/84/21 72/91/21 67/85/21 61/78/21
f 67/85/24 1/1/24 2/4/24 68/86/24
f 68/86/2 2/4/2 3/6/2 69/87/2
f 69/87/23 3/6/23 4/8/23 70/88/23
f 70/89/26 4/9/26 5/12/26 71/90/26
f 71/90/5 5/12/5 6/14/5 72/91/5
f 72/91/25 6/14/25 1/1/25 67/85/25
