# Blender v2.91.0 OBJ File: 'hats.blend'
# www.blender.org
mtllib mohawk.mtl
o Cube.003_Cube.004
v -0.112220 -0.033795 0.042596
v -0.029803 0.495851 0.153602
v -0.107386 0.005355 -0.058359
v -0.028441 0.493055 -0.138022
v 0.104903 -0.033994 0.042655
v 0.031375 0.495652 0.153661
v 0.109736 0.005188 -0.058235
v 0.032737 0.492889 -0.137898
v -0.112220 -0.073966 0.131565
v -0.029803 0.414710 0.364037
v 0.031375 0.414502 0.364048
v 0.104903 -0.074173 0.131575
v -0.112220 -0.106707 0.210646
v -0.029803 0.280329 0.588866
v 0.031375 0.280130 0.588808
v 0.104903 -0.106906 0.210589
v -0.112220 -0.166805 0.234154
v -0.029803 0.138440 0.668006
v 0.031375 0.138263 0.667898
v 0.104903 -0.166982 0.234046
v -0.028441 0.400120 -0.302343
v -0.107386 -0.003223 -0.075755
v 0.109736 -0.003347 -0.075589
v 0.032737 0.399996 -0.302177
v -0.028441 0.231113 -0.423217
v -0.107386 -0.027513 -0.144795
v 0.109736 -0.027593 -0.144616
v 0.032737 0.231034 -0.423038
v 0.031711 0.494970 0.081651
v -0.066955 0.257097 0.103563
v 0.062619 0.270591 0.106491
v -0.029554 0.495339 0.064231
v -0.034090 0.190123 0.645426
v -0.068059 0.100678 0.413307
v 0.027088 0.181055 0.651065
v 0.071032 0.071381 0.384814
v -0.028441 0.277354 -0.390145
v -0.070655 0.184443 -0.181180
v 0.078055 0.162609 -0.168819
v 0.032737 0.276772 -0.390321
vt 0.375000 0.000000
vt 0.512305 0.000000
vt 0.625000 0.045779
vt 0.875000 0.500000
vt 0.375000 0.250000
vt 0.625000 0.500000
vt 0.375000 0.500000
vt 0.375000 0.500000
vt 0.477863 0.500000
vt 0.625000 0.500000
vt 0.625000 0.686723
vt 0.518768 0.750000
vt 0.375000 0.750000
vt 0.625000 0.750000
vt 0.875000 0.750000
vt 0.875000 0.750000
vt 0.625000 0.750000
vt 0.125000 0.500000
vt 0.125000 0.750000
vt 0.875000 0.750000
vt 0.625000 0.750000
vt 0.375000 0.750000
vt 0.625000 0.000000
vt 0.375000 0.000000
vt 0.625000 0.000000
vt 0.125000 0.750000
vt 0.125000 0.750000
vt 0.375000 0.750000
vt 0.375000 0.750000
vt 0.125000 0.750000
vt 0.490162 0.750000
vt 0.375000 0.000000
vt 0.508957 0.000000
vt 0.625000 0.000000
vt 0.625000 0.750000
vt 0.625000 1.000000
vt 0.375000 1.000000
vt 0.875000 0.750000
vt 0.625000 0.750000
vt 0.125000 0.500000
vt 0.875000 0.500000
vt 0.625000 0.250000
vt 0.625000 0.250000
vt 0.491319 0.250000
vt 0.375000 0.250000
vt 0.375000 0.250000
vt 0.625000 0.250000
vt 0.625000 0.500000
vt 0.375000 0.500000
vt 0.125000 0.500000
vt 0.625000 0.250000
vt 0.875000 0.704221
vt 0.625000 0.689786
vt 0.625000 0.000000
vt 0.375000 0.000000
vt 0.625000 0.000000
vt 0.875000 0.750000
vt 0.625000 0.500000
vt 0.875000 0.500000
vt 0.875000 0.500000
vn -0.9877 0.1566 -0.0008
vn 0.9865 0.1430 -0.0799
vn 0.9888 0.1462 0.0314
vn 0.0029 0.9330 0.3598
vn -0.0006 -0.9323 -0.3618
vn 0.0030 0.8583 0.5131
vn 0.9907 0.1259 0.0510
vn -0.9884 0.1408 0.0570
vn -0.0008 -0.9113 -0.4116
vn -0.0007 -0.3640 -0.9314
vn 0.9905 0.1202 0.0661
vn -0.0009 -0.9239 -0.3826
vn -0.9882 0.1344 0.0739
vn -0.0006 -0.8179 0.5754
vn 0.1348 0.9211 -0.3653
vn 0.9897 0.0729 0.1234
vn -0.0009 -0.8971 0.4418
vn 0.0032 0.8704 -0.4922
vn -0.9858 0.1465 -0.0819
vn 0.0005 -0.7327 -0.6806
vn -0.0007 -0.9434 0.3316
vn 0.0008 -0.4898 -0.8718
vn -0.9816 0.1423 -0.1271
vn 0.0059 0.9999 -0.0103
vn 0.0010 0.2051 -0.9787
vn -0.1144 0.1381 0.9838
vn -0.9882 0.0556 0.1428
vn -0.0127 0.3840 0.9232
vn -0.0010 -0.6989 0.7152
vn 0.0709 0.8991 0.4320
vn 0.0032 0.5818 -0.8134
vn 0.9824 0.1406 -0.1229
usemtl None
s off
f 1/1/1 30/2/1 32/3/1 4/4/1 3/5/1
f 8/6/2 7/7/2 23/8/2 39/9/2 24/10/2
f 7/7/3 8/6/3 29/11/3 31/12/3 5/13/3
f 6/14/4 2/15/4 10/16/4 11/17/4
f 3/18/5 7/7/5 5/13/5 1/19/5
f 11/17/6 10/16/6 14/20/6 15/21/6
f 5/13/7 31/12/7 6/14/7 11/17/7 12/22/7
f 2/23/8 30/2/8 1/1/8 9/24/8 10/25/8
f 1/19/9 5/13/9 12/22/9 9/26/9
f 13/27/10 16/28/10 20/29/10 17/30/10
f 12/22/11 11/17/11 15/21/11 36/31/11 16/28/11
f 9/26/12 12/22/12 16/28/12 13/27/12
f 10/25/13 9/24/13 13/32/13 34/33/13 14/34/13
f 20/29/14 19/35/14 18/36/14 17/37/14
f 36/31/15 34/33/15 33/38/15 35/39/15
f 16/28/16 36/31/16 35/39/16 19/35/16 20/29/16
f 7/7/17 3/18/17 22/40/17 23/8/17
f 4/4/18 8/6/18 24/10/18 21/41/18
f 3/5/19 4/42/19 21/43/19 38/44/19 22/45/19
f 26/46/20 25/47/20 28/48/20 27/49/20
f 23/8/21 22/40/21 26/50/21 27/49/21
f 24/10/22 39/9/22 38/44/22 21/43/22
f 22/45/23 38/44/23 37/51/23 25/47/23 26/46/23
f 4/4/24 32/52/24 29/53/24 8/6/24
f 30/2/25 2/15/25 6/14/25 31/12/25
f 29/11/26 32/3/26 30/2/26 31/12/26
f 33/54/27 34/33/27 13/32/27 17/55/27 18/56/27
f 35/39/28 33/38/28 18/57/28 19/35/28
f 34/33/29 36/31/29 15/21/29 14/20/29
f 39/9/30 40/58/30 37/59/30 38/44/30
f 37/59/31 40/58/31 28/48/31 25/60/31
f 40/58/32 39/9/32 23/8/32 27/49/32 28/48/32
