# Blender v2.91.0 OBJ File: 'hats.blend'
# www.blender.org
mtllib rhino_horn.mtl
o Cone
v -0.016056 0.238531 0.431903
v -0.001013 0.237065 0.434218
v 0.010646 0.232048 0.442744
v 0.015798 0.224825 0.455198
v 0.013060 0.217331 0.468243
v 0.003168 0.211573 0.478382
v -0.011229 0.209096 0.482899
v -0.026272 0.210562 0.480585
v -0.037931 0.215578 0.472058
v -0.043082 0.222801 0.459604
v -0.040345 0.230296 0.446560
v -0.030453 0.236053 0.436421
v -0.015679 0.251366 0.463158
v -0.009101 0.102155 0.337823
v 0.029273 0.098144 0.346324
v 0.057818 0.085144 0.370347
v 0.068887 0.066639 0.403454
v 0.059514 0.047587 0.436775
v 0.032209 0.033094 0.461382
v -0.005711 0.027042 0.470681
v -0.044084 0.031053 0.462180
v -0.072630 0.044053 0.438157
v -0.083699 0.062558 0.405050
v -0.074325 0.081610 0.371729
v -0.047021 0.096103 0.347122
v -0.002725 0.026760 0.273504
v 0.047735 0.022954 0.285186
v 0.085423 0.006975 0.317169
v 0.100239 -0.016895 0.360881
v 0.088214 -0.042259 0.404610
v 0.052571 -0.062322 0.436640
v 0.002859 -0.071708 0.448387
v -0.047601 -0.067901 0.436704
v -0.085289 -0.051922 0.404722
v -0.100105 -0.028053 0.361009
v -0.088080 -0.002688 0.317280
v -0.052437 0.017375 0.285251
v -0.002355 -0.098301 0.150084
v 0.056727 -0.102758 0.163764
v 0.100854 -0.121467 0.201210
v 0.118202 -0.149415 0.252391
v 0.104122 -0.179113 0.303593
v 0.062389 -0.202604 0.341095
v 0.004183 -0.213593 0.354849
v -0.054899 -0.209136 0.341170
v -0.099026 -0.190427 0.303723
v -0.116374 -0.162479 0.252542
v -0.102295 -0.132781 0.201341
v -0.060561 -0.109290 0.163839
vt 0.250000 0.271034
vt 0.250000 0.250000
vt 0.260517 0.268216
vt 0.268216 0.260517
vt 0.271033 0.250000
vt 0.268216 0.239483
vt 0.260517 0.231784
vt 0.250000 0.228967
vt 0.239483 0.231784
vt 0.231785 0.239483
vt 0.228967 0.250000
vt 0.231784 0.260517
vt 0.368633 0.250000
vt 0.352739 0.309316
vt 0.239483 0.268216
vt 0.309316 0.147261
vt 0.250000 0.131367
vt 0.250000 0.087880
vt 0.331060 0.109600
vt 0.147261 0.309316
vt 0.131367 0.250000
vt 0.352739 0.190684
vt 0.250000 0.368633
vt 0.190683 0.352739
vt 0.190684 0.147261
vt 0.309316 0.352739
vt 0.147261 0.190684
vt 0.087880 0.250000
vt 0.109600 0.331060
vt 0.109600 0.331060
vt 0.087880 0.250000
vt 0.412120 0.250000
vt 0.390400 0.331060
vt 0.168940 0.109600
vt 0.390400 0.168940
vt 0.168940 0.390400
vt 0.331060 0.390400
vt 0.250000 0.412120
vt 0.109600 0.168940
vt 0.766696 0.390768
vt 0.849038 0.367663
vt 0.908806 0.306422
vt 0.929986 0.223456
vt 0.906902 0.140994
vt 0.845740 0.081133
vt 0.762888 0.059913
vt 0.680546 0.083018
vt 0.620777 0.144259
vt 0.599597 0.227225
vt 0.622681 0.309687
vt 0.683843 0.369548
vt 0.168940 0.109600
vt 0.250000 0.087880
vt 0.390400 0.168940
vt 0.412120 0.250000
vt 0.168940 0.390400
vt 0.331060 0.390400
vt 0.250000 0.412120
vt 0.109600 0.168940
vt 0.331060 0.109600
vt 0.390400 0.331060
vn 0.1471 0.9143 -0.3773
vn 0.4927 0.8530 -0.1719
vn 0.6594 0.7358 0.1540
vn 0.6330 0.6064 0.4812
vn 0.4613 0.4991 0.7335
vn 0.2016 0.4318 0.8792
vn -0.0991 0.4125 0.9056
vn -0.3955 0.4457 0.8031
vn -0.6280 0.5318 0.5682
vn -0.7166 0.6591 0.2283
vn 0.9255 0.3563 -0.1283
vn -0.5932 0.7949 -0.1274
vn -0.2676 0.8924 -0.3633
vn 0.2608 -0.1904 0.9464
vn -0.9579 0.2711 -0.0950
vn 0.6697 0.0420 0.7414
vn -0.2962 0.5353 -0.7911
vn -0.2053 -0.0757 0.9758
vn 0.6702 0.4928 -0.5550
vn 0.2192 0.5585 -0.8000
vn -0.9166 0.1052 0.3857
vn 0.9178 0.1901 0.3486
vn -0.7302 0.4299 -0.5311
vn 0.2630 -0.0529 0.9633
vn -0.6345 -0.0202 0.7726
vn -0.9649 0.2254 -0.1346
vn 0.9162 0.3896 -0.0938
vn -0.9624 0.2389 -0.1296
vn -0.2349 -0.2340 0.9434
vn 0.9209 0.1672 0.3521
vn -0.7203 0.4570 -0.5218
vn 0.2228 0.6454 -0.7306
vn -0.6774 -0.1608 0.7179
vn 0.6814 -0.0439 0.7306
vn -0.2851 0.6062 -0.7425
vn 0.6627 0.5652 -0.4912
vn -0.9455 0.0122 0.3253
vn 0.0481 -0.8697 -0.4912
vn -0.2285 -0.5373 0.8118
vn 0.9708 -0.0590 0.2327
vn -0.7164 0.5062 -0.4802
vn 0.2127 0.6867 -0.6952
vn -0.6867 -0.3826 0.6181
vn 0.7274 -0.3508 0.5898
vn -0.2881 0.6722 -0.6820
vn 0.6652 0.5428 -0.5127
vn -0.9577 -0.1014 0.2693
vn 0.2883 -0.5252 0.8007
vn 0.9470 0.2703 -0.1734
usemtl None
s off
f 1/1/1 13/2/1 2/3/1
f 2/3/2 13/2/2 3/4/2
f 3/4/3 13/2/3 4/5/3
f 4/5/4 13/2/4 5/6/4
f 5/6/5 13/2/5 6/7/5
f 6/7/6 13/2/6 7/8/6
f 7/8/7 13/2/7 8/9/7
f 8/9/8 13/2/8 9/10/8
f 9/10/9 13/2/9 10/11/9
f 10/11/10 13/2/10 11/12/10
f 3/4/11 4/5/11 17/13/11 16/14/11
f 11/12/12 13/2/12 12/15/12
f 12/15/13 13/2/13 1/1/13
f 19/16/14 20/17/14 32/18/14 31/19/14
f 10/11/15 11/12/15 24/20/15 23/21/15
f 5/6/16 6/7/16 19/16/16 18/22/16
f 12/15/17 1/1/17 14/23/17 25/24/17
f 7/8/18 8/9/18 21/25/18 20/17/18
f 2/3/19 3/4/19 16/14/19 15/26/19
f 1/1/20 2/3/20 15/26/20 14/23/20
f 9/10/21 10/11/21 23/21/21 22/27/21
f 4/5/22 5/6/22 18/22/22 17/13/22
f 11/12/23 12/15/23 25/24/23 24/20/23
f 6/7/24 7/8/24 20/17/24 19/16/24
f 8/9/25 9/10/25 22/27/25 21/25/25
f 35/28/26 36/29/26 48/30/26 47/31/26
f 16/14/27 17/13/27 29/32/27 28/33/27
f 23/21/28 24/20/28 36/29/28 35/28/28
f 20/17/29 21/25/29 33/34/29 32/18/29
f 17/13/30 18/22/30 30/35/30 29/32/30
f 24/20/31 25/24/31 37/36/31 36/29/31
f 14/23/32 15/26/32 27/37/32 26/38/32
f 21/25/33 22/27/33 34/39/33 33/34/33
f 18/22/34 19/16/34 31/19/34 30/35/34
f 25/24/35 14/23/35 26/38/35 37/36/35
f 15/26/36 16/14/36 28/33/36 27/37/36
f 22/27/37 23/21/37 35/28/37 34/39/37
f 38/40/38 39/41/38 40/42/38 41/43/38 42/44/38 43/45/38 44/46/38 45/47/38 46/48/38 47/49/38 48/50/38 49/51/38
f 32/18/39 33/34/39 45/52/39 44/53/39
f 29/32/40 30/35/40 42/54/40 41/55/40
f 36/29/41 37/36/41 49/56/41 48/30/41
f 26/38/42 27/37/42 39/57/42 38/58/42
f 33/34/43 34/39/43 46/59/43 45/52/43
f 30/35/44 31/19/44 43/60/44 42/54/44
f 37/36/45 26/38/45 38/58/45 49/56/45
f 27/37/46 28/33/46 40/61/46 39/57/46
f 34/39/47 35/28/47 47/31/47 46/59/47
f 31/19/48 32/18/48 44/53/48 43/60/48
f 28/33/49 29/32/49 41/55/49 40/61/49
o Cone.002
v 0.000000 -0.020700 0.194701
v 0.066699 -0.030860 0.209404
v 0.000000 -0.076052 0.318601
v 0.000000 -0.038740 0.115069
v -0.066699 -0.030860 0.209404
v -0.094327 -0.053109 0.135862
v -0.115527 -0.058618 0.249573
v -0.163379 -0.092365 0.192670
v -0.133399 -0.096536 0.304446
v -0.188654 -0.145990 0.270272
v -0.115527 -0.134455 0.359318
v -0.163379 -0.199615 0.347874
v -0.066699 -0.162213 0.399488
v -0.094327 -0.238871 0.404682
v 0.000000 -0.172373 0.414191
v 0.000000 -0.253239 0.425475
v 0.066699 -0.162213 0.399488
v 0.094327 -0.238871 0.404682
v 0.115527 -0.134455 0.359318
v 0.163379 -0.199615 0.347874
v 0.133399 -0.096536 0.304446
v 0.188654 -0.145990 0.270272
v 0.115527 -0.058618 0.249573
v 0.163379 -0.092365 0.192670
v 0.115527 -0.157525 0.181226
v 0.094327 -0.053109 0.135862
v 0.066699 -0.129767 0.141056
v 0.000000 -0.119607 0.126353
v 0.000000 -0.215928 0.221943
v 0.133399 -0.195443 0.236098
v 0.115527 -0.233362 0.290971
v 0.066699 -0.261120 0.331140
v 0.000000 -0.271280 0.345843
v -0.066699 -0.261120 0.331140
v -0.115527 -0.233362 0.290971
v -0.133399 -0.195443 0.236098
v -0.115527 -0.157525 0.181226
v -0.066699 -0.129767 0.141056
vt 0.750000 0.750000
vt 0.708333 1.000000
vt 0.666667 0.750000
vt 0.750000 0.500000
vt 0.666667 0.500000
vt 0.833333 0.750000
vt 0.791667 1.000000
vt 0.833333 0.500000
vt 0.916667 0.500000
vt 0.916667 0.750000
vt 0.875000 1.000000
vt 1.000000 0.500000
vt 1.000000 0.750000
vt 0.958333 1.000000
vt 0.083333 0.500000
vt 0.083333 0.750000
vt 0.000000 0.750000
vt 0.000000 0.500000
vt 0.041667 1.000000
vt 0.166667 0.750000
vt 0.125000 1.000000
vt 0.166667 0.500000
vt 0.250000 0.500000
vt 0.250000 0.750000
vt 0.208333 1.000000
vt 0.333333 0.500000
vt 0.333333 0.750000
vt 0.291667 1.000000
vt 0.416667 0.500000
vt 0.416667 0.750000
vt 0.375000 1.000000
vt 0.500000 0.500000
vt 0.500000 0.750000
vt 0.458333 1.000000
vt 0.583333 0.500000
vt 0.583333 0.750000
vt 0.541667 1.000000
vt 0.625000 1.000000
vt 0.583333 0.250000
vt 0.500000 0.250000
vt 0.666667 0.250000
vt 0.750000 0.250000
vt 0.708333 0.000000
vt 0.625000 0.000000
vt 0.791667 0.000000
vt 0.833333 0.250000
vt 0.541667 0.000000
vt 0.458333 0.000000
vt 0.416667 0.250000
vt 0.375000 0.000000
vt 0.333333 0.250000
vt 0.291667 0.000000
vt 0.250000 0.250000
vt 0.208333 0.000000
vt 0.166667 0.250000
vt 0.125000 0.000000
vt 0.083333 0.250000
vt 0.041667 0.000000
vt 0.000000 0.250000
vt 0.958333 0.000000
vt 1.000000 0.250000
vt 0.916667 0.250000
vt 0.875000 0.000000
vn 0.0491 0.9119 0.4074
vn 0.1935 0.9568 -0.2168
vn -0.0491 0.9119 0.4074
vn -0.1935 0.9568 -0.2168
vn -0.5288 0.8468 -0.0576
vn -0.1342 0.8840 0.4478
vn -0.7223 0.6562 0.2182
vn -0.1833 0.8357 0.5178
vn -0.7223 0.4362 0.5367
vn -0.1833 0.7798 0.5986
vn -0.1342 0.7315 0.6685
vn -0.5288 0.2456 0.8125
vn -0.1935 0.1356 0.9717
vn -0.0491 0.7036 0.7089
vn 0.1935 0.1356 0.9717
vn 0.0491 0.7036 0.7089
vn 0.5288 0.2456 0.8125
vn 0.1342 0.7315 0.6685
vn 0.7223 0.4362 0.5367
vn 0.1833 0.7798 0.5986
vn 0.7223 0.6562 0.2182
vn 0.1833 0.8357 0.5178
vn 0.5288 0.8468 -0.0576
vn 0.1342 0.8840 0.4478
vn 0.7223 -0.4362 -0.5367
vn 0.5288 -0.2456 -0.8125
vn 0.1935 -0.1356 -0.9717
vn 0.0491 -0.7036 -0.7089
vn 0.1342 -0.7315 -0.6685
vn -0.0491 -0.7036 -0.7089
vn 0.1833 -0.7798 -0.5986
vn 0.1833 -0.8357 -0.5178
vn 0.1342 -0.8840 -0.4478
vn 0.0491 -0.9119 -0.4074
vn -0.0491 -0.9119 -0.4074
vn -0.1342 -0.8840 -0.4478
vn -0.1833 -0.8357 -0.5178
vn -0.1833 -0.7798 -0.5986
vn -0.1342 -0.7315 -0.6685
vn -0.1935 -0.1356 -0.9717
vn -0.5288 -0.2456 -0.8125
vn -0.7223 -0.4362 -0.5367
vn -0.7223 -0.6562 -0.2182
vn -0.5288 -0.8468 0.0576
vn -0.1935 -0.9568 0.2168
vn 0.1935 -0.9568 0.2168
vn 0.5288 -0.8468 0.0576
vn 0.7223 -0.6562 -0.2182
usemtl None
s off
f 50/62/50 52/63/50 51/64/50
f 53/65/51 50/62/51 51/64/51 75/66/51
f 54/67/52 52/68/52 50/62/52
f 55/69/53 54/67/53 50/62/53 53/65/53
f 57/70/54 56/71/54 54/67/54 55/69/54
f 56/71/55 52/72/55 54/67/55
f 59/73/56 58/74/56 56/71/56 57/70/56
f 58/74/57 52/75/57 56/71/57
f 61/76/58 60/77/58 58/78/58 59/79/58
f 60/77/59 52/80/59 58/78/59
f 62/81/60 52/82/60 60/77/60
f 63/83/61 62/81/61 60/77/61 61/76/61
f 65/84/62 64/85/62 62/81/62 63/83/62
f 64/85/63 52/86/63 62/81/63
f 67/87/64 66/88/64 64/85/64 65/84/64
f 66/88/65 52/89/65 64/85/65
f 69/90/66 68/91/66 66/88/66 67/87/66
f 68/91/67 52/92/67 66/88/67
f 71/93/68 70/94/68 68/91/68 69/90/68
f 70/94/69 52/95/69 68/91/69
f 73/96/70 72/97/70 70/94/70 71/93/70
f 72/97/71 52/98/71 70/94/71
f 75/66/72 51/64/72 72/97/72 73/96/72
f 51/64/73 52/99/73 72/97/73
f 74/100/74 73/96/74 71/93/74 79/101/74
f 76/102/75 75/66/75 73/96/75 74/100/75
f 77/103/76 53/65/76 75/66/76 76/102/76
f 78/104/77 77/103/77 76/102/77
f 78/105/78 76/102/78 74/100/78
f 78/106/79 87/107/79 77/103/79
f 78/108/80 74/100/80 79/101/80
f 78/109/81 79/101/81 80/110/81
f 78/111/82 80/110/82 81/112/82
f 78/113/83 81/112/83 82/114/83
f 78/115/84 82/114/84 83/116/84
f 78/117/85 83/116/85 84/118/85
f 78/119/86 84/118/86 85/120/86
f 78/121/87 85/122/87 86/123/87
f 78/124/88 86/123/88 87/107/88
f 87/107/89 55/69/89 53/65/89 77/103/89
f 86/123/90 57/70/90 55/69/90 87/107/90
f 85/122/91 59/73/91 57/70/91 86/123/91
f 84/118/92 61/76/92 59/79/92 85/120/92
f 83/116/93 63/83/93 61/76/93 84/118/93
f 82/114/94 65/84/94 63/83/94 83/116/94
f 81/112/95 67/87/95 65/84/95 82/114/95
f 80/110/96 69/90/96 67/87/96 81/112/96
f 79/101/97 71/93/97 69/90/97 80/110/97
