# Blender v2.91.0 OBJ File: 'hats.blend'
# www.blender.org
mtllib spiky_horns.mtl
o Cone.001
v -0.243965 -0.075490 0.276987
v -0.232914 -0.081011 0.289825
v -0.237353 -0.093772 0.300363
v -0.252845 -0.101012 0.298063
v -0.263896 -0.095492 0.285226
v -0.259457 -0.082731 0.274688
v -0.253239 -0.082476 0.294303
v -0.175348 -0.117073 0.184100
v -0.137841 -0.135808 0.227668
v -0.152908 -0.179116 0.263431
v -0.205482 -0.203689 0.255627
v -0.242989 -0.184954 0.212060
v -0.227922 -0.141646 0.176296
v -0.262266 0.008200 0.107297
v -0.251173 0.009833 0.121143
v -0.255297 0.003477 0.136512
v -0.270515 -0.004510 0.138035
v -0.281608 -0.006142 0.124190
v -0.277483 0.000213 0.108821
v -0.271484 0.009981 0.125912
v -0.191333 -0.070189 0.044935
v -0.153686 -0.064650 0.091924
v -0.167684 -0.086218 0.144082
v -0.219329 -0.113325 0.149252
v -0.256976 -0.118865 0.102263
v -0.242978 -0.097297 0.050104
v -0.281821 0.003427 -0.093464
v -0.270784 0.012114 -0.082504
v -0.274919 0.014671 -0.066073
v -0.290091 0.008541 -0.060603
v -0.301128 -0.000147 -0.071563
v -0.296993 -0.002704 -0.087994
v -0.291111 0.014582 -0.078502
v -0.210192 -0.095472 -0.105866
v -0.172735 -0.065989 -0.068668
v -0.186768 -0.057311 -0.012906
v -0.238258 -0.078116 0.005658
v -0.275716 -0.107600 -0.031539
v -0.261683 -0.116278 -0.087301
v -0.365824 -0.047555 -0.223179
v -0.353308 -0.037880 -0.214983
v -0.353879 -0.035291 -0.198054
v -0.366965 -0.042376 -0.189322
v -0.379480 -0.052052 -0.197518
v -0.378910 -0.054641 -0.214447
v -0.372370 -0.036789 -0.206569
v -0.291590 -0.141318 -0.250806
v -0.249115 -0.108483 -0.222990
v -0.251052 -0.099695 -0.165539
v -0.295462 -0.123742 -0.135904
v -0.337936 -0.156577 -0.163720
v -0.336000 -0.165365 -0.221171
v 0.243965 -0.075490 0.276987
v 0.232914 -0.081011 0.289825
v 0.237353 -0.093772 0.300363
v 0.252845 -0.101012 0.298063
v 0.263896 -0.095492 0.285226
v 0.259457 -0.082731 0.274688
v 0.253239 -0.082476 0.294303
v 0.175348 -0.117073 0.184100
v 0.137841 -0.135808 0.227668
v 0.152908 -0.179116 0.263431
v 0.205482 -0.203689 0.255627
v 0.242989 -0.184954 0.212060
v 0.227922 -0.141646 0.176296
v 0.262266 0.008200 0.107297
v 0.251173 0.009833 0.121143
v 0.255297 0.003477 0.136512
v 0.270515 -0.004510 0.138035
v 0.281608 -0.006142 0.124190
v 0.277483 0.000213 0.108821
v 0.271484 0.009981 0.125912
v 0.191333 -0.070189 0.044935
v 0.153686 -0.064650 0.091924
v 0.167684 -0.086218 0.144082
v 0.219329 -0.113325 0.149252
v 0.256976 -0.118865 0.102263
v 0.242978 -0.097297 0.050104
v 0.281821 0.003427 -0.093464
v 0.270784 0.012114 -0.082504
v 0.274919 0.014671 -0.066073
v 0.290091 0.008541 -0.060603
v 0.301128 -0.000147 -0.071563
v 0.296993 -0.002704 -0.087994
v 0.291111 0.014582 -0.078502
v 0.210192 -0.095472 -0.105866
v 0.172735 -0.065989 -0.068668
v 0.186768 -0.057311 -0.012906
v 0.238258 -0.078116 0.005658
v 0.275716 -0.107600 -0.031539
v 0.261683 -0.116278 -0.087301
v 0.365824 -0.047555 -0.223179
v 0.353308 -0.037880 -0.214983
v 0.353879 -0.035291 -0.198054
v 0.366965 -0.042376 -0.189322
v 0.379480 -0.052052 -0.197518
v 0.378910 -0.054641 -0.214447
v 0.372370 -0.036789 -0.206569
v 0.291590 -0.141318 -0.250806
v 0.249115 -0.108483 -0.222990
v 0.251052 -0.099695 -0.165539
v 0.295462 -0.123742 -0.135904
v 0.337936 -0.156577 -0.163720
v 0.336000 -0.165365 -0.221171
vt 0.250000 0.268178
vt 0.250000 0.250000
vt 0.265743 0.259089
vt 0.265743 0.240911
vt 0.250000 0.231822
vt 0.234257 0.240911
vt 0.234257 0.259089
vt 0.250000 0.490000
vt 0.042154 0.370000
vt 0.750000 0.490000
vt 0.957846 0.370000
vt 0.957846 0.130000
vt 0.750000 0.010000
vt 0.542154 0.130000
vt 0.542154 0.370000
vt 0.457846 0.370000
vt 0.042154 0.130000
vt 0.250000 0.010000
vt 0.457846 0.130000
vt 0.250000 0.268178
vt 0.250000 0.250000
vt 0.265743 0.259089
vt 0.265743 0.240911
vt 0.250000 0.231822
vt 0.234257 0.240911
vt 0.234257 0.259089
vt 0.250000 0.490000
vt 0.042154 0.370000
vt 0.750000 0.490000
vt 0.957846 0.370000
vt 0.957846 0.130000
vt 0.750000 0.010000
vt 0.542154 0.130000
vt 0.542154 0.370000
vt 0.457846 0.370000
vt 0.042154 0.130000
vt 0.250000 0.010000
vt 0.457846 0.130000
vt 0.250000 0.268178
vt 0.250000 0.250000
vt 0.265743 0.259089
vt 0.265743 0.240911
vt 0.250000 0.231822
vt 0.234257 0.240911
vt 0.234257 0.259089
vt 0.250000 0.490000
vt 0.042154 0.370000
vt 0.750000 0.490000
vt 0.957846 0.370000
vt 0.957846 0.130000
vt 0.750000 0.010000
vt 0.542154 0.130000
vt 0.542154 0.370000
vt 0.457846 0.370000
vt 0.042154 0.130000
vt 0.250000 0.010000
vt 0.457846 0.130000
vt 0.250000 0.268178
vt 0.250000 0.250000
vt 0.265743 0.259089
vt 0.265743 0.240911
vt 0.250000 0.231822
vt 0.234257 0.240911
vt 0.234257 0.259089
vt 0.250000 0.490000
vt 0.042154 0.370000
vt 0.750000 0.490000
vt 0.957846 0.370000
vt 0.957846 0.130000
vt 0.750000 0.010000
vt 0.542154 0.130000
vt 0.542154 0.370000
vt 0.457846 0.370000
vt 0.042154 0.130000
vt 0.250000 0.010000
vt 0.457846 0.130000
vt 0.250000 0.268178
vt 0.265743 0.259089
vt 0.250000 0.250000
vt 0.265743 0.240911
vt 0.250000 0.231822
vt 0.234257 0.240911
vt 0.234257 0.259089
vt 0.042154 0.370000
vt 0.250000 0.490000
vt 0.750000 0.490000
vt 0.542154 0.370000
vt 0.542154 0.130000
vt 0.750000 0.010000
vt 0.957846 0.130000
vt 0.957846 0.370000
vt 0.457846 0.370000
vt 0.042154 0.130000
vt 0.250000 0.010000
vt 0.457846 0.130000
vt 0.250000 0.268178
vt 0.265743 0.259089
vt 0.250000 0.250000
vt 0.265743 0.240911
vt 0.250000 0.231822
vt 0.234257 0.240911
vt 0.234257 0.259089
vt 0.042154 0.370000
vt 0.250000 0.490000
vt 0.750000 0.490000
vt 0.542154 0.370000
vt 0.542154 0.130000
vt 0.750000 0.010000
vt 0.957846 0.130000
vt 0.957846 0.370000
vt 0.457846 0.370000
vt 0.042154 0.130000
vt 0.250000 0.010000
vt 0.457846 0.130000
vt 0.250000 0.268178
vt 0.265743 0.259089
vt 0.250000 0.250000
vt 0.265743 0.240911
vt 0.250000 0.231822
vt 0.234257 0.240911
vt 0.234257 0.259089
vt 0.042154 0.370000
vt 0.250000 0.490000
vt 0.750000 0.490000
vt 0.542154 0.370000
vt 0.542154 0.130000
vt 0.750000 0.010000
vt 0.957846 0.130000
vt 0.957846 0.370000
vt 0.457846 0.370000
vt 0.042154 0.130000
vt 0.250000 0.010000
vt 0.457846 0.130000
vt 0.250000 0.268178
vt 0.265743 0.259089
vt 0.250000 0.250000
vt 0.265743 0.240911
vt 0.250000 0.231822
vt 0.234257 0.240911
vt 0.234257 0.259089
vt 0.042154 0.370000
vt 0.250000 0.490000
vt 0.750000 0.490000
vt 0.542154 0.370000
vt 0.542154 0.130000
vt 0.750000 0.010000
vt 0.957846 0.130000
vt 0.957846 0.370000
vt 0.457846 0.370000
vt 0.042154 0.130000
vt 0.250000 0.010000
vt 0.457846 0.130000
vn 0.0176 0.9239 0.3822
vn 0.1297 0.6042 0.7862
vn -0.2299 0.1888 0.9547
vn -0.7257 0.1219 0.6772
vn -0.2820 0.7806 -0.5578
vn -0.8278 0.4993 0.2559
vn -0.4354 0.8913 0.1264
vn 0.4032 -0.6620 -0.6318
vn 0.4807 0.8761 -0.0371
vn -0.9414 0.0524 -0.3331
vn -0.7458 -0.5174 0.4196
vn 0.0342 -0.3682 0.9291
vn 0.6442 0.3412 0.6845
vn -0.0171 0.9945 -0.1036
vn 0.1013 0.9095 0.4033
vn -0.2461 0.6122 0.7514
vn -0.7364 0.4045 0.5423
vn -0.3019 0.4111 -0.8601
vn -0.8465 0.5323 -0.0071
vn -0.4660 0.8287 -0.3100
vn 0.4316 -0.8686 -0.2434
vn 0.4518 0.7688 -0.4526
vn -0.9391 -0.1446 -0.3118
vn -0.7326 -0.2807 0.6201
vn 0.0366 0.1195 0.9922
vn 0.6253 0.6475 0.4356
vn -0.0230 0.7946 -0.6067
vn 0.0943 0.9870 -0.1299
vn -0.2524 0.9123 0.3223
vn -0.7407 0.6226 0.2524
vn -0.3016 -0.0996 -0.9482
vn -0.8498 0.4446 -0.2831
vn -0.4702 0.5423 -0.6963
vn 0.4378 -0.8651 0.2448
vn 0.4484 0.4235 -0.7872
vn -0.9371 -0.2925 -0.1903
vn -0.7329 0.0784 0.6758
vn 0.0326 0.6193 0.7845
vn 0.6198 0.7841 0.0340
vn -0.2157 0.7784 -0.5895
vn -0.0103 0.9884 -0.1515
vn -0.2417 0.8984 0.3668
vn -0.7105 0.5731 0.4083
vn -0.4960 -0.1402 -0.8570
vn -0.9220 0.3769 -0.0887
vn -0.6516 0.4931 -0.5764
vn 0.5441 -0.8264 0.1448
vn 0.2302 0.4383 -0.8689
vn -0.9317 -0.3625 0.0241
vn -0.5687 0.0396 0.8216
vn 0.1595 0.6359 0.7551
vn 0.5520 0.8268 -0.1079
vn -0.0176 0.9239 0.3822
vn -0.1297 0.6042 0.7862
vn 0.2299 0.1888 0.9547
vn 0.7257 0.1219 0.6772
vn 0.2820 0.7806 -0.5578
vn 0.8278 0.4993 0.2559
vn 0.4354 0.8913 0.1264
vn -0.4032 -0.6620 -0.6318
vn -0.4807 0.8761 -0.0371
vn 0.9414 0.0524 -0.3331
vn 0.7458 -0.5174 0.4196
vn -0.0342 -0.3682 0.9291
vn -0.6442 0.3412 0.6845
vn 0.0171 0.9945 -0.1036
vn -0.1013 0.9095 0.4033
vn 0.2461 0.6122 0.7514
vn 0.7364 0.4045 0.5423
vn 0.3019 0.4111 -0.8601
vn 0.8465 0.5323 -0.0071
vn 0.4660 0.8287 -0.3100
vn -0.4316 -0.8686 -0.2434
vn -0.4518 0.7688 -0.4526
vn 0.9391 -0.1446 -0.3118
vn 0.7326 -0.2807 0.6201
vn -0.0366 0.1195 0.9922
vn -0.6253 0.6475 0.4356
vn 0.0230 0.7946 -0.6067
vn -0.0943 0.9870 -0.1299
vn 0.2524 0.9123 0.3223
vn 0.7407 0.6226 0.2524
vn 0.3016 -0.0996 -0.9482
vn 0.8498 0.4446 -0.2831
vn 0.4702 0.5423 -0.6963
vn -0.4378 -0.8651 0.2448
vn -0.4484 0.4235 -0.7872
vn 0.9371 -0.2925 -0.1903
vn 0.7329 0.0784 0.6758
vn -0.0326 0.6193 0.7845
vn -0.6198 0.7841 0.0340
vn 0.2157 0.7784 -0.5895
vn 0.0103 0.9884 -0.1515
vn 0.2417 0.8984 0.3668
vn 0.7105 0.5731 0.4083
vn 0.4960 -0.1402 -0.8570
vn 0.9220 0.3769 -0.0887
vn 0.6516 0.4931 -0.5764
vn -0.5441 -0.8264 0.1448
vn -0.2302 0.4383 -0.8689
vn 0.9317 -0.3625 0.0241
vn 0.5687 0.0396 0.8216
vn -0.1595 0.6359 0.7551
vn -0.5520 0.8268 -0.1079
usemtl None
s off
f 1/1/1 7/2/1 2/3/1
f 2/3/2 7/2/2 3/4/2
f 3/4/3 7/2/3 4/5/3
f 4/5/4 7/2/4 5/6/4
f 6/7/5 1/1/5 8/8/5 13/9/5
f 5/6/6 7/2/6 6/7/6
f 6/7/7 7/2/7 1/1/7
f 8/10/8 9/11/8 10/12/8 11/13/8 12/14/8 13/15/8
f 1/1/9 2/3/9 9/16/9 8/8/9
f 5/6/10 6/7/10 13/9/10 12/17/10
f 4/5/11 5/6/11 12/17/11 11/18/11
f 3/4/12 4/5/12 11/18/12 10/19/12
f 2/3/13 3/4/13 10/19/13 9/16/13
f 14/20/14 20/21/14 15/22/14
f 15/22/15 20/21/15 16/23/15
f 16/23/16 20/21/16 17/24/16
f 17/24/17 20/21/17 18/25/17
f 19/26/18 14/20/18 21/27/18 26/28/18
f 18/25/19 20/21/19 19/26/19
f 19/26/20 20/21/20 14/20/20
f 21/29/21 22/30/21 23/31/21 24/32/21 25/33/21 26/34/21
f 14/20/22 15/22/22 22/35/22 21/27/22
f 18/25/23 19/26/23 26/28/23 25/36/23
f 17/24/24 18/25/24 25/36/24 24/37/24
f 16/23/25 17/24/25 24/37/25 23/38/25
f 15/22/26 16/23/26 23/38/26 22/35/26
f 27/39/27 33/40/27 28/41/27
f 28/41/28 33/40/28 29/42/28
f 29/42/29 33/40/29 30/43/29
f 30/43/30 33/40/30 31/44/30
f 32/45/31 27/39/31 34/46/31 39/47/31
f 31/44/32 33/40/32 32/45/32
f 32/45/33 33/40/33 27/39/33
f 34/48/34 35/49/34 36/50/34 37/51/34 38/52/34 39/53/34
f 27/39/35 28/41/35 35/54/35 34/46/35
f 31/44/36 32/45/36 39/47/36 38/55/36
f 30/43/37 31/44/37 38/55/37 37/56/37
f 29/42/38 30/43/38 37/56/38 36/57/38
f 28/41/39 29/42/39 36/57/39 35/54/39
f 40/58/40 46/59/40 41/60/40
f 41/60/41 46/59/41 42/61/41
f 42/61/42 46/59/42 43/62/42
f 43/62/43 46/59/43 44/63/43
f 45/64/44 40/58/44 47/65/44 52/66/44
f 44/63/45 46/59/45 45/64/45
f 45/64/46 46/59/46 40/58/46
f 47/67/47 48/68/47 49/69/47 50/70/47 51/71/47 52/72/47
f 40/58/48 41/60/48 48/73/48 47/65/48
f 44/63/49 45/64/49 52/66/49 51/74/49
f 43/62/50 44/63/50 51/74/50 50/75/50
f 42/61/51 43/62/51 50/75/51 49/76/51
f 41/60/52 42/61/52 49/76/52 48/73/52
f 53/77/53 54/78/53 59/79/53
f 54/78/54 55/80/54 59/79/54
f 55/80/55 56/81/55 59/79/55
f 56/81/56 57/82/56 59/79/56
f 58/83/57 65/84/57 60/85/57 53/77/57
f 57/82/58 58/83/58 59/79/58
f 58/83/59 53/77/59 59/79/59
f 60/86/60 65/87/60 64/88/60 63/89/60 62/90/60 61/91/60
f 53/77/61 60/85/61 61/92/61 54/78/61
f 57/82/62 64/93/62 65/84/62 58/83/62
f 56/81/63 63/94/63 64/93/63 57/82/63
f 55/80/64 62/95/64 63/94/64 56/81/64
f 54/78/65 61/92/65 62/95/65 55/80/65
f 66/96/66 67/97/66 72/98/66
f 67/97/67 68/99/67 72/98/67
f 68/99/68 69/100/68 72/98/68
f 69/100/69 70/101/69 72/98/69
f 71/102/70 78/103/70 73/104/70 66/96/70
f 70/101/71 71/102/71 72/98/71
f 71/102/72 66/96/72 72/98/72
f 73/105/73 78/106/73 77/107/73 76/108/73 75/109/73 74/110/73
f 66/96/74 73/104/74 74/111/74 67/97/74
f 70/101/75 77/112/75 78/103/75 71/102/75
f 69/100/76 76/113/76 77/112/76 70/101/76
f 68/99/77 75/114/77 76/113/77 69/100/77
f 67/97/78 74/111/78 75/114/78 68/99/78
f 79/115/79 80/116/79 85/117/79
f 80/116/80 81/118/80 85/117/80
f 81/118/81 82/119/81 85/117/81
f 82/119/82 83/120/82 85/117/82
f 84/121/83 91/122/83 86/123/83 79/115/83
f 83/120/84 84/121/84 85/117/84
f 84/121/85 79/115/85 85/117/85
f 86/124/86 91/125/86 90/126/86 89/127/86 88/128/86 87/129/86
f 79/115/87 86/123/87 87/130/87 80/116/87
f 83/120/88 90/131/88 91/122/88 84/121/88
f 82/119/89 89/132/89 90/131/89 83/120/89
f 81/118/90 88/133/90 89/132/90 82/119/90
f 80/116/91 87/130/91 88/133/91 81/118/91
f 92/134/92 93/135/92 98/136/92
f 93/135/93 94/137/93 98/136/93
f 94/137/94 95/138/94 98/136/94
f 95/138/95 96/139/95 98/136/95
f 97/140/96 104/141/96 99/142/96 92/134/96
f 96/139/97 97/140/97 98/136/97
f 97/140/98 92/134/98 98/136/98
f 99/143/99 104/144/99 103/145/99 102/146/99 101/147/99 100/148/99
f 92/134/100 99/142/100 100/149/100 93/135/100
f 96/139/101 103/150/101 104/141/101 97/140/101
f 95/138/102 102/151/102 103/150/102 96/139/102
f 94/137/103 101/152/103 102/151/103 95/138/103
f 93/135/104 100/149/104 101/152/104 94/137/104
