# Blender v2.91.0 OBJ File: 'hats.blend'
# www.blender.org
mtllib sunglasses.mtl
o Plane
v -0.446390 -0.391774 0.140208
v -0.410266 -0.226816 0.308475
v -0.453800 -0.351984 -0.030207
v -0.445673 -0.139957 -0.117624
v -0.415728 -0.302426 0.295363
v -0.451875 -0.215718 -0.129473
v -0.380409 -0.277934 0.396404
v -0.387439 -0.212236 0.369066
v -0.290327 -0.231566 0.453124
v -0.300420 -0.180343 0.404264
v -0.178825 -0.200436 0.479341
v -0.180574 -0.161573 0.419344
v -0.455511 -0.275798 -0.117870
v -0.428386 -0.354895 0.254484
v -0.445673 -0.130340 -0.234375
v -0.451875 -0.206924 -0.230503
v -0.445673 -0.149521 -0.325240
v -0.451875 -0.215090 -0.285482
v -0.445673 -0.227937 -0.389254
v -0.451875 -0.264286 -0.321735
v -0.445673 -0.317773 -0.416482
v -0.451875 -0.311179 -0.340084
v -0.445673 -0.391903 -0.380138
v -0.451875 -0.355548 -0.312622
v -0.449186 -0.324615 -0.016369
v -0.442727 -0.360759 0.138602
v -0.445463 -0.175639 -0.092857
v -0.417219 -0.289753 0.267069
v -0.415042 -0.250407 0.273950
v -0.450906 -0.260134 -0.090501
v -0.427107 -0.329251 0.236300
v -0.478740 -0.322426 -0.015006
v -0.448652 -0.215404 -0.099082
v -0.472281 -0.358570 0.139965
v -0.445282 -0.300236 0.296726
v -0.439819 -0.224627 0.309838
v -0.444595 -0.248217 0.275313
v -0.475017 -0.173450 -0.091494
v -0.480459 -0.257945 -0.089138
v -0.456660 -0.327062 0.237663
v -0.446773 -0.287563 0.268432
v -0.475227 -0.137768 -0.116261
v -0.481429 -0.213528 -0.128110
v -0.478206 -0.213214 -0.097719
v -0.475227 -0.128151 -0.233012
v -0.481429 -0.204735 -0.229140
v -0.475227 -0.147331 -0.323877
v -0.481429 -0.212900 -0.284119
v -0.475227 -0.225748 -0.387891
v -0.481429 -0.262097 -0.320372
v -0.475227 -0.315584 -0.415119
v -0.481429 -0.308990 -0.338721
v -0.475227 -0.389713 -0.378775
v -0.481429 -0.353359 -0.311259
v -0.483353 -0.349795 -0.028844
v -0.475944 -0.389585 0.141571
v -0.485065 -0.273609 -0.116507
v -0.457940 -0.352706 0.255847
v -0.089413 -0.182587 0.490633
v -0.090287 -0.144857 0.430162
v 0.446390 -0.391774 0.140208
v 0.410266 -0.226816 0.308475
v 0.453800 -0.351984 -0.030207
v 0.445673 -0.139957 -0.117624
v 0.415728 -0.302426 0.295363
v 0.451875 -0.215718 -0.129473
v 0.380409 -0.277934 0.396404
v 0.387439 -0.212236 0.369066
v 0.290327 -0.231566 0.453124
v 0.300420 -0.180343 0.404264
v 0.178825 -0.200436 0.479341
v 0.180574 -0.161573 0.419344
v 0.000000 -0.170745 0.501924
v 0.000000 -0.134146 0.440981
v 0.455511 -0.275798 -0.117870
v 0.428386 -0.354895 0.254484
v 0.445673 -0.130340 -0.234375
v 0.451875 -0.206924 -0.230503
v 0.445673 -0.149521 -0.325240
v 0.451875 -0.215090 -0.285482
v 0.445673 -0.227937 -0.389254
v 0.451875 -0.264286 -0.321735
v 0.445673 -0.317773 -0.416482
v 0.451875 -0.311179 -0.340084
v 0.445673 -0.391903 -0.380138
v 0.451875 -0.355548 -0.312622
v 0.449186 -0.324615 -0.016369
v 0.442727 -0.360759 0.138602
v 0.445463 -0.175639 -0.092857
v 0.417219 -0.289753 0.267069
v 0.415042 -0.250407 0.273950
v 0.450906 -0.260134 -0.090501
v 0.427107 -0.329251 0.236300
v 0.478740 -0.322426 -0.015006
v 0.448652 -0.215404 -0.099082
v 0.472281 -0.358570 0.139965
v 0.445282 -0.300236 0.296726
v 0.439819 -0.224627 0.309838
v 0.444595 -0.248217 0.275313
v 0.475017 -0.173450 -0.091494
v 0.480459 -0.257945 -0.089138
v 0.456660 -0.327062 0.237663
v 0.446773 -0.287563 0.268432
v 0.475227 -0.137768 -0.116261
v 0.481429 -0.213528 -0.128110
v 0.478206 -0.213214 -0.097719
v 0.475227 -0.128151 -0.233012
v 0.481429 -0.204735 -0.229140
v 0.475227 -0.147331 -0.323877
v 0.481429 -0.212900 -0.284119
v 0.475227 -0.225748 -0.387891
v 0.481429 -0.262097 -0.320372
v 0.475227 -0.315584 -0.415119
v 0.481429 -0.308990 -0.338721
v 0.475227 -0.389713 -0.378775
v 0.481429 -0.353359 -0.311259
v 0.483353 -0.349795 -0.028844
v 0.475944 -0.389585 0.141571
v 0.485065 -0.273609 -0.116507
v 0.457940 -0.352706 0.255847
v 0.089413 -0.182587 0.490633
v 0.090287 -0.144857 0.430162
vt 0.528439 0.076323
vt 0.804262 0.069108
vt 0.804180 0.930863
vt 0.528131 0.926666
vt 0.339245 0.137171
vt 0.343035 0.920255
vt 1.000000 0.000000
vt 0.500000 0.000000
vt 0.500000 0.000000
vt 1.000000 0.000000
vt 0.500000 0.000000
vt 1.000000 0.000000
vt 0.500000 0.000000
vt 1.000000 0.000000
vt 1.000000 0.000000
vt 0.500000 0.000000
vt 0.500000 0.000000
vt 1.000000 0.000000
vt 0.123947 0.183398
vt 0.133168 0.812260
vt 0.000000 0.000000
vt 0.000000 0.000000
vt 0.000000 0.000000
vt 0.000000 0.000000
vt 0.343035 0.920255
vt 0.133168 0.812260
vt 0.000000 0.000000
vt 0.000000 0.000000
vt 0.000000 0.000000
vt 0.000000 0.000000
vt 0.000000 0.000000
vt 0.000000 0.000000
vt 0.000000 0.000000
vt 0.000000 0.000000
vt 0.804262 0.069108
vt 0.804180 0.930863
vt 0.000000 0.000000
vt 0.000000 0.000000
vt 0.000000 0.000000
vt 0.000000 0.000000
vt 0.000000 0.000000
vt 0.000000 0.000000
vt 0.000000 0.000000
vt 0.000000 0.000000
vt 1.000000 0.000000
vt 0.500000 0.000000
vt 0.528439 0.076323
vt 0.000000 0.000000
vt 0.000000 0.000000
vt 0.000000 0.000000
vt 0.000000 0.000000
vt 0.123947 0.183398
vt 0.000000 0.000000
vt 0.000000 0.000000
vt 0.500000 1.000000
vt 1.000000 1.000000
vt 1.000000 1.000000
vt 0.500000 1.000000
vt 1.000000 1.000000
vt 0.500000 1.000000
vt 1.000000 1.000000
vt 0.500000 1.000000
vt 1.000000 1.000000
vt 0.500000 1.000000
vt 1.000000 1.000000
vt 0.500000 1.000000
vt 0.000000 1.000000
vt 0.250000 1.000000
vt 0.339245 0.137171
vt 0.250000 0.000000
vt 0.528131 0.926666
vt 0.000000 0.000000
vt 0.000000 0.000000
vt 0.000000 0.000000
vt 0.000000 0.000000
vt 0.000000 0.000000
vt 0.000000 0.000000
vt 0.000000 0.000000
vt 0.000000 0.000000
vt 0.000000 0.000000
vt 0.000000 0.000000
vt 0.528439 0.076323
vt 0.528131 0.926666
vt 0.804180 0.930863
vt 0.804262 0.069108
vt 0.339245 0.137171
vt 0.343035 0.920255
vt 1.000000 0.000000
vt 1.000000 0.000000
vt 0.500000 0.000000
vt 0.500000 0.000000
vt 1.000000 0.000000
vt 0.500000 0.000000
vt 1.000000 0.000000
vt 0.500000 0.000000
vt 1.000000 0.000000
vt 0.500000 0.000000
vt 0.123947 0.183398
vt 0.133168 0.812260
vt 0.000000 0.000000
vt 0.000000 0.000000
vt 0.000000 0.000000
vt 0.000000 0.000000
vt 0.133168 0.812260
vt 0.343035 0.920255
vt 0.000000 0.000000
vt 0.000000 0.000000
vt 0.000000 0.000000
vt 0.000000 0.000000
vt 0.000000 0.000000
vt 0.000000 0.000000
vt 0.000000 0.000000
vt 0.000000 0.000000
vt 0.804180 0.930863
vt 0.804262 0.069108
vt 0.000000 0.000000
vt 0.000000 0.000000
vt 0.000000 0.000000
vt 0.000000 0.000000
vt 0.000000 0.000000
vt 0.000000 0.000000
vt 0.000000 0.000000
vt 0.000000 0.000000
vt 0.500000 0.000000
vt 1.000000 0.000000
vt 0.528439 0.076323
vt 0.000000 0.000000
vt 0.000000 0.000000
vt 0.000000 0.000000
vt 0.000000 0.000000
vt 0.123947 0.183398
vt 0.000000 0.000000
vt 0.000000 0.000000
vt 0.500000 1.000000
vt 0.500000 1.000000
vt 1.000000 1.000000
vt 1.000000 1.000000
vt 0.500000 1.000000
vt 1.000000 1.000000
vt 0.500000 1.000000
vt 1.000000 1.000000
vt 0.500000 1.000000
vt 1.000000 1.000000
vt 0.500000 1.000000
vt 1.000000 1.000000
vt 0.000000 1.000000
vt 0.250000 1.000000
vt 0.250000 0.000000
vt 0.339245 0.137171
vt 0.528131 0.926666
vt 0.000000 0.000000
vt 0.000000 0.000000
vt 0.000000 0.000000
vt 0.000000 0.000000
vt 0.000000 0.000000
vt 0.000000 0.000000
vt 0.000000 0.000000
vt 0.000000 0.000000
vt 0.000000 0.000000
vt 0.000000 0.000000
vn -0.9942 0.0518 0.0944
vn -0.9880 0.1154 0.1026
vn -0.9425 0.0231 0.3335
vn -0.5547 0.3957 0.7319
vn -0.2695 0.7273 0.6312
vn -0.1689 0.8401 0.5155
vn -0.9886 0.1214 0.0886
vn 0.0159 -0.3643 0.9311
vn 0.0859 0.7527 0.6527
vn -0.0859 -0.7528 -0.6526
vn -0.0226 0.2900 -0.9568
vn -0.0813 -0.9779 -0.1926
vn 0.0813 0.9779 0.1926
vn -0.0776 -0.9932 -0.0865
vn 0.0326 -0.1731 0.9844
vn -0.0325 0.1739 -0.9842
vn 0.0774 0.9936 0.0818
vn -0.0068 -0.5932 0.8050
vn 0.0823 0.9713 0.2231
vn -0.0823 -0.9713 -0.2232
vn -0.9967 0.0808 0.0068
vn -0.9965 0.0822 -0.0154
vn -0.9965 0.0518 -0.0660
vn -0.9964 0.0268 -0.0803
vn -0.9965 -0.0398 -0.0740
vn -0.9895 0.1253 0.0714
vn -0.9946 0.0504 0.0905
vn -0.9936 0.0609 0.0949
vn -0.9882 0.1046 0.1119
vn -0.9818 0.1444 0.1235
vn -0.9926 0.0646 0.1032
vn -0.9906 0.0774 0.1129
vn -0.9852 0.1263 0.1155
vn 0.0628 0.9765 -0.2061
vn -0.0090 -0.6132 0.7899
vn 0.0090 0.6131 -0.7899
vn 0.0590 0.1852 0.9809
vn -0.0436 -0.8813 0.4705
vn -0.0664 -0.9870 0.1466
vn 0.0339 -0.1572 0.9870
vn 0.0557 0.9476 -0.3145
vn -0.0738 -0.4390 -0.8954
vn -0.0590 -0.1858 -0.9808
vn 0.0780 0.5247 0.8477
vn 0.0111 0.6323 -0.7746
vn -0.0557 -0.9476 0.3146
vn -0.2226 0.8205 0.5265
vn 0.9942 0.0518 0.0944
vn 0.9880 0.1154 0.1026
vn 0.9425 0.0231 0.3335
vn 0.5547 0.3957 0.7319
vn 0.2695 0.7273 0.6312
vn 0.1689 0.8401 0.5155
vn 0.9886 0.1214 0.0886
vn -0.0159 -0.3643 0.9311
vn -0.0859 0.7527 0.6527
vn 0.0859 -0.7528 -0.6526
vn 0.0226 0.2900 -0.9568
vn 0.0813 -0.9779 -0.1926
vn -0.0813 0.9779 0.1926
vn 0.0776 -0.9932 -0.0865
vn -0.0326 -0.1731 0.9844
vn 0.0325 0.1739 -0.9842
vn -0.0774 0.9936 0.0818
vn 0.0068 -0.5932 0.8050
vn -0.0823 0.9713 0.2231
vn 0.0823 -0.9713 -0.2232
vn 0.9967 0.0808 0.0068
vn 0.9965 0.0822 -0.0154
vn 0.9965 0.0518 -0.0660
vn 0.9964 0.0268 -0.0803
vn 0.9965 -0.0398 -0.0740
vn 0.9895 0.1253 0.0714
vn 0.9946 0.0504 0.0905
vn 0.9936 0.0609 0.0949
vn 0.9882 0.1046 0.1119
vn 0.9818 0.1444 0.1235
vn 0.9926 0.0646 0.1032
vn 0.9906 0.0774 0.1129
vn 0.9852 0.1263 0.1155
vn -0.0628 0.9765 -0.2061
vn 0.0090 -0.6132 0.7899
vn -0.0090 0.6131 -0.7899
vn -0.0590 0.1852 0.9809
vn 0.0436 -0.8813 0.4705
vn 0.0664 -0.9870 0.1466
vn -0.0339 -0.1572 0.9870
vn -0.0557 0.9476 -0.3145
vn 0.0738 -0.4390 -0.8954
vn 0.0590 -0.1858 -0.9808
vn -0.0780 0.5247 0.8477
vn -0.0111 0.6323 -0.7746
vn 0.0557 -0.9476 0.3146
vn 0.2226 0.8205 0.5265
usemtl None
s off
f 28/1/1 29/2/1 27/3/1 33/4/1
f 31/5/2 28/1/2 33/4/2 30/6/2
f 2/7/3 5/8/3 7/9/3 8/10/3
f 8/10/4 7/9/4 9/11/4 10/12/4
f 10/12/5 9/11/5 11/13/5 12/14/5
f 60/15/6 59/16/6 73/17/6 74/18/6
f 26/19/7 31/5/7 30/6/7 25/20/7
f 22/21/8 20/22/8 50/23/8 52/24/8
f 25/20/9 30/6/9 39/25/9 32/26/9
f 13/27/10 3/28/10 55/29/10 57/30/10
f 19/31/11 21/32/11 51/33/11 49/34/11
f 27/3/12 29/2/12 37/35/12 38/36/12
f 2/37/13 4/38/13 42/39/13 36/40/13
f 16/41/14 6/42/14 43/43/14 46/44/14
f 5/8/15 2/7/15 36/45/15 35/46/15
f 29/2/16 28/1/16 41/47/16 37/35/16
f 4/38/17 15/48/17 45/49/17 42/39/17
f 20/22/18 18/50/18 48/51/18 50/23/18
f 26/19/19 25/20/19 32/26/19 34/52/19
f 3/28/20 1/53/20 56/54/20 55/29/20
f 43/55/21 42/56/21 45/57/21 46/58/21
f 46/58/22 45/57/22 47/59/22 48/60/22
f 48/60/23 47/59/23 49/61/23 50/62/23
f 50/62/24 49/61/24 51/63/24 52/64/24
f 52/64/25 51/63/25 53/65/25 54/66/25
f 34/52/26 32/26/26 55/67/26 56/54/26
f 37/35/27 41/47/27 35/46/27 36/45/27
f 38/36/28 37/35/28 36/45/28 42/56/28
f 32/26/29 39/25/29 57/68/29 55/67/29
f 41/47/30 40/69/30 58/70/30 35/46/30
f 44/71/31 38/36/31 42/56/31 43/55/31
f 39/25/32 44/71/32 43/55/32 57/68/32
f 40/69/33 34/52/33 56/54/33 58/70/33
f 15/48/34 17/72/34 47/73/34 45/49/34
f 14/74/35 5/75/35 35/76/35 58/77/35
f 28/1/36 31/5/36 40/69/36 41/47/36
f 30/6/37 33/4/37 44/71/37 39/25/37
f 23/78/38 24/79/38 54/80/38 53/81/38
f 18/50/39 16/41/39 46/44/39 48/51/39
f 33/4/40 27/3/40 38/36/40 44/71/40
f 31/5/41 26/19/41 34/52/41 40/69/41
f 21/32/42 23/78/42 53/81/42 51/33/42
f 6/42/43 13/27/43 57/30/43 43/43/43
f 24/79/44 22/21/44 52/24/44 54/80/44
f 17/72/45 19/31/45 49/34/45 47/73/45
f 1/53/46 14/74/46 58/77/46 56/54/46
f 12/14/47 11/13/47 59/16/47 60/15/47
f 90/82/48 95/83/48 89/84/48 91/85/48
f 93/86/49 92/87/49 95/83/49 90/82/49
f 62/88/50 68/89/50 67/90/50 65/91/50
f 68/89/51 70/92/51 69/93/51 67/90/51
f 70/92/52 72/94/52 71/95/52 69/93/52
f 122/96/53 74/18/53 73/17/53 121/97/53
f 88/98/54 87/99/54 92/87/54 93/86/54
f 84/100/55 114/101/55 112/102/55 82/103/55
f 87/99/56 94/104/56 101/105/56 92/87/56
f 75/106/57 119/107/57 117/108/57 63/109/57
f 81/110/58 111/111/58 113/112/58 83/113/58
f 89/84/59 100/114/59 99/115/59 91/85/59
f 62/116/60 98/117/60 104/118/60 64/119/60
f 78/120/61 108/121/61 105/122/61 66/123/61
f 65/91/62 97/124/62 98/125/62 62/88/62
f 91/85/63 99/115/63 103/126/63 90/82/63
f 64/119/64 104/118/64 107/127/64 77/128/64
f 82/103/65 112/102/65 110/129/65 80/130/65
f 88/98/66 96/131/66 94/104/66 87/99/66
f 63/109/67 117/108/67 118/132/67 61/133/67
f 105/134/68 108/135/68 107/136/68 104/137/68
f 108/135/69 110/138/69 109/139/69 107/136/69
f 110/138/70 112/140/70 111/141/70 109/139/70
f 112/140/71 114/142/71 113/143/71 111/141/71
f 114/142/72 116/144/72 115/145/72 113/143/72
f 96/131/73 118/132/73 117/146/73 94/104/73
f 99/115/74 98/125/74 97/124/74 103/126/74
f 100/114/75 104/137/75 98/125/75 99/115/75
f 94/104/76 117/146/76 119/147/76 101/105/76
f 103/126/77 97/124/77 120/148/77 102/149/77
f 106/150/78 105/134/78 104/137/78 100/114/78
f 101/105/79 119/147/79 105/134/79 106/150/79
f 102/149/80 120/148/80 118/132/80 96/131/80
f 77/128/81 107/127/81 109/151/81 79/152/81
f 76/153/82 120/154/82 97/155/82 65/156/82
f 90/82/83 103/126/83 102/149/83 93/86/83
f 92/87/84 101/105/84 106/150/84 95/83/84
f 85/157/85 115/158/85 116/159/85 86/160/85
f 80/130/86 110/129/86 108/121/86 78/120/86
f 95/83/87 106/150/87 100/114/87 89/84/87
f 93/86/88 102/149/88 96/131/88 88/98/88
f 83/113/89 113/112/89 115/158/89 85/157/89
f 66/123/90 105/122/90 119/107/90 75/106/90
f 86/160/91 116/159/91 114/101/91 84/100/91
f 79/152/92 109/151/92 111/111/92 81/110/92
f 61/133/93 118/132/93 120/154/93 76/153/93
f 72/94/94 122/96/94 121/97/94 71/95/94
