# Blender v2.91.0 OBJ File: 'hats.blend'
# www.blender.org
mtllib winter_hat.mtl
o Cube_Cube.001
v -0.198524 -0.050150 0.186155
v -0.070678 0.510619 0.045914
v -0.198217 -0.016296 -0.208487
v -0.070566 0.522934 -0.097645
v 0.197565 -0.051402 0.186355
v 0.073408 0.510164 0.045987
v 0.197872 -0.017548 -0.208287
v 0.073520 0.522479 -0.097572
v -0.198075 0.093963 0.198518
v -0.165819 0.240692 0.179231
v -0.151586 0.385939 0.177878
v -0.151350 0.412006 -0.125987
v -0.165561 0.269113 -0.152079
v -0.197768 0.127817 -0.196124
v 0.153629 0.411042 -0.125832
v 0.166964 0.268062 -0.151911
v 0.198321 0.126565 -0.195924
v 0.153393 0.384975 0.178032
v 0.166706 0.239641 0.179399
v 0.198014 0.092711 0.198718
v -0.000102 -0.009124 -0.299294
v 0.001503 0.525543 -0.130678
v -0.000550 -0.058574 0.277161
v 0.001340 0.507555 0.079020
v -0.000101 0.085539 0.289524
v 0.000384 0.233620 0.255633
v 0.000849 0.379453 0.247951
v 0.000347 0.134990 -0.286931
v 0.000760 0.275135 -0.228313
v 0.001194 0.417528 -0.195905
v -0.289611 -0.032934 -0.011213
v -0.103813 0.516882 -0.025882
v 0.288958 -0.034763 -0.010920
v 0.106655 0.516217 -0.025776
v 0.289408 0.109350 0.001443
v 0.243433 0.253610 0.013783
v 0.223764 0.397786 0.026136
v -0.289162 0.111179 0.001150
v -0.242288 0.255145 0.013537
v -0.221720 0.399194 0.025910
v 0.001421 0.516549 -0.025829
v -0.000326 -0.033849 -0.011066
vt 0.562500 0.125000
vt 0.625000 0.125000
vt 0.625000 0.250000
vt 0.562500 0.250000
vt 0.562500 0.375000
vt 0.625000 0.375000
vt 0.625000 0.500000
vt 0.562500 0.500000
vt 0.562500 0.625000
vt 0.625000 0.625000
vt 0.625000 0.750000
vt 0.562500 0.750000
vt 0.562500 0.875000
vt 0.625000 0.875000
vt 0.625000 1.000000
vt 0.562500 1.000000
vt 0.250000 0.625000
vt 0.375000 0.625000
vt 0.375000 0.750000
vt 0.250000 0.750000
vt 0.750000 0.625000
vt 0.875000 0.625000
vt 0.875000 0.750000
vt 0.750000 0.750000
vt 0.375000 0.875000
vt 0.437500 0.875000
vt 0.437500 1.000000
vt 0.375000 1.000000
vt 0.500000 0.875000
vt 0.500000 1.000000
vt 0.437500 0.625000
vt 0.437500 0.750000
vt 0.500000 0.625000
vt 0.500000 0.750000
vt 0.375000 0.375000
vt 0.437500 0.375000
vt 0.437500 0.500000
vt 0.375000 0.500000
vt 0.500000 0.375000
vt 0.500000 0.500000
vt 0.375000 0.125000
vt 0.437500 0.125000
vt 0.437500 0.250000
vt 0.375000 0.250000
vt 0.500000 0.125000
vt 0.500000 0.250000
vt 0.125000 0.625000
vt 0.125000 0.750000
vt 0.125000 0.500000
vt 0.250000 0.500000
vt 0.750000 0.500000
vt 0.500000 0.000000
vt 0.562500 0.000000
vt 0.437500 0.000000
vt 0.375000 0.000000
vt 0.875000 0.500000
vt 0.625000 0.000000
vn -0.7369 0.6107 -0.2899
vn 0.3839 0.4765 -0.7909
vn 0.5919 0.7326 0.3360
vn -0.2367 0.7745 0.5866
vn -0.0031 -0.9963 -0.0855
vn 0.0031 0.9963 0.0855
vn -0.4191 -0.0763 0.9047
vn -0.4015 0.2056 0.8925
vn -0.4154 0.0492 0.9083
vn 0.9079 -0.0386 0.4174
vn 0.8725 0.2417 0.4246
vn 0.9011 0.0865 0.4248
vn 0.4191 0.0763 -0.9047
vn 0.4033 0.3521 -0.8446
vn 0.4162 0.2006 -0.8869
vn -0.9079 0.0386 -0.4174
vn -0.8708 0.3159 -0.3768
vn -0.9004 0.1632 -0.4034
vn -0.4140 0.2032 -0.8873
vn -0.4002 0.3546 -0.8450
vn -0.4177 0.0790 -0.9051
vn 0.4148 0.0465 0.9087
vn 0.4019 0.2030 0.8929
vn 0.4177 -0.0790 0.9051
vn 0.2410 0.7730 0.5869
vn -0.3800 0.4789 -0.7913
vn -0.9010 0.0922 0.4239
vn -0.8714 0.2473 0.4237
vn -0.9086 -0.0329 0.4164
vn 0.9018 0.1575 -0.4024
vn 0.8731 0.3104 -0.3759
vn 0.9086 0.0329 -0.4164
vn 0.7410 0.6060 -0.2891
vn -0.5876 0.7363 0.3354
usemtl None
s off
f 40/1/1 32/2/1 4/3/1 12/4/1
f 30/5/2 22/6/2 8/7/2 15/8/2
f 37/9/3 34/10/3 6/11/3 18/12/3
f 27/13/4 24/14/4 2/15/4 11/16/4
f 42/17/5 33/18/5 5/19/5 23/20/5
f 41/21/6 32/22/6 2/23/6 24/24/6
f 23/25/7 25/26/7 9/27/7 1/28/7
f 25/26/8 26/29/8 10/30/8 9/27/8
f 26/29/9 27/13/9 11/16/9 10/30/9
f 33/18/10 35/31/10 20/32/10 5/19/10
f 35/31/11 36/33/11 19/34/11 20/32/11
f 36/33/12 37/9/12 18/12/12 19/34/12
f 21/35/13 28/36/13 17/37/13 7/38/13
f 28/36/14 29/39/14 16/40/14 17/37/14
f 29/39/15 30/5/15 15/8/15 16/40/15
f 31/41/16 38/42/16 14/43/16 3/44/16
f 38/42/17 39/45/17 13/46/17 14/43/17
f 39/45/18 40/1/18 12/4/18 13/46/18
f 13/46/19 12/4/19 30/5/19 29/39/19
f 14/43/20 13/46/20 29/39/20 28/36/20
f 3/44/21 14/43/21 28/36/21 21/35/21
f 19/34/22 18/12/22 27/13/22 26/29/22
f 20/32/23 19/34/23 26/29/23 25/26/23
f 5/19/24 20/32/24 25/26/24 23/25/24
f 34/10/6 41/21/6 24/24/6 6/11/6
f 31/47/5 42/17/5 23/20/5 1/48/5
f 18/12/25 6/11/25 24/14/25 27/13/25
f 12/4/26 4/3/26 22/6/26 30/5/26
f 3/49/5 21/50/5 42/17/5 31/47/5
f 8/7/6 22/51/6 41/21/6 34/10/6
f 10/52/27 11/53/27 40/1/27 39/45/27
f 9/54/28 10/52/28 39/45/28 38/42/28
f 1/55/29 9/54/29 38/42/29 31/41/29
f 16/40/30 15/8/30 37/9/30 36/33/30
f 17/37/31 16/40/31 36/33/31 35/31/31
f 7/38/32 17/37/32 35/31/32 33/18/32
f 22/51/6 4/56/6 32/22/6 41/21/6
f 21/50/5 7/38/5 33/18/5 42/17/5
f 15/8/33 8/7/33 34/10/33 37/9/33
f 11/53/34 2/57/34 32/2/34 40/1/34
o Cube.001_Cube.002
v -0.228586 -0.072683 0.214285
v -0.333460 -0.052862 -0.012956
v -0.228004 0.114070 0.230306
v -0.000647 -0.082382 0.319066
v 0.227455 -0.074124 0.214516
v -0.000065 0.104370 0.335087
v -0.000389 -0.053914 -0.012787
v -0.000131 -0.025447 -0.344641
v 0.332682 -0.054967 -0.012619
v 0.227809 -0.035146 -0.239860
v 0.333264 0.131785 0.003402
v 0.228038 0.112628 0.230537
v 0.228391 0.151606 -0.223839
v 0.000451 0.161306 -0.328620
v -0.227651 0.153048 -0.224070
v -0.228233 -0.033705 -0.240090
v -0.332878 0.133891 0.003065
vt 0.375000 0.000000
vt 0.437500 0.000000
vt 0.437500 0.125000
vt 0.375000 0.125000
vt 0.125000 0.625000
vt 0.250000 0.625000
vt 0.250000 0.750000
vt 0.125000 0.750000
vt 0.375000 0.875000
vt 0.437500 0.875000
vt 0.437500 1.000000
vt 0.375000 1.000000
vt 0.375000 0.750000
vt 0.437500 0.750000
vt 0.375000 0.625000
vt 0.250000 0.500000
vt 0.375000 0.500000
vt 0.125000 0.500000
vt 0.437500 0.500000
vt 0.437500 0.625000
vt 0.437500 0.375000
vt 0.437500 0.250000
vt 0.375000 0.375000
vt 0.375000 0.250000
vn -0.9086 -0.0329 0.4164
vn -0.0031 -0.9963 -0.0855
vn -0.4191 -0.0763 0.9047
vn 0.4177 -0.0790 0.9051
vn 0.9086 0.0329 -0.4164
vn 0.9079 -0.0386 0.4174
vn 0.0031 0.9963 0.0855
vn 0.4191 0.0763 -0.9047
vn -0.4177 0.0790 -0.9051
vn -0.9079 0.0386 -0.4174
usemtl None
s off
f 43/58/35 45/59/35 59/60/35 44/61/35
f 44/62/36 49/63/36 46/64/36 43/65/36
f 46/66/37 48/67/37 45/68/37 43/69/37
f 47/70/38 54/71/38 48/67/38 46/66/38
f 49/63/36 51/72/36 47/70/36 46/64/36
f 50/73/36 52/74/36 51/72/36 49/63/36
f 58/75/36 50/73/36 49/63/36 44/62/36
f 52/74/39 55/76/39 53/77/39 51/72/39
f 51/72/40 53/77/40 54/71/40 47/70/40
f 48/67/41 54/71/41 53/77/41 55/76/41 56/78/41 57/79/41 59/60/41 45/59/41
f 50/80/42 56/78/42 55/76/42 52/74/42
f 58/81/43 57/79/43 56/78/43 50/80/43
f 44/61/44 59/60/44 57/79/44 58/81/44
o Cube.002_Cube.003
v -0.001748 0.724676 -0.160213
v -0.005092 0.599286 -0.201440
v 0.085848 0.726127 -0.127939
v 0.003630 0.784123 -0.042438
v -0.086521 0.728535 -0.121282
v -0.124979 0.604742 -0.146384
v -0.118811 0.735442 -0.033953
v -0.170644 0.614511 -0.022881
v -0.079704 0.741352 0.050620
v -0.115338 0.622868 0.096723
v 0.007893 0.742802 0.082894
v 0.008542 0.624919 0.142365
v 0.092666 0.738943 0.043964
v 0.128429 0.619462 0.087310
v 0.124956 0.732036 -0.043366
v 0.174094 0.609694 -0.036193
v 0.122261 0.488762 -0.025121
v 0.118788 0.601336 -0.155797
v 0.083154 0.482853 -0.109694
v -0.004443 0.481402 -0.141968
v -0.000180 0.440081 -0.016636
v 0.089971 0.495669 0.062208
v 0.005198 0.499528 0.101139
v -0.082398 0.498077 0.068865
v -0.121506 0.492168 -0.015708
v -0.089216 0.485261 -0.103038
vt 0.875000 0.500000
vt 0.875000 0.750000
vt 0.750000 0.750000
vt 0.750000 0.500000
vt 0.625000 0.750000
vt 0.625000 0.500000
vt 0.687500 1.000000
vt 0.812500 1.000000
vt 1.000000 0.500000
vt 1.000000 0.750000
vt 0.937500 1.000000
vt 0.125000 0.500000
vt 0.125000 0.750000
vt 0.000000 0.750000
vt 0.000000 0.500000
vt 0.062500 1.000000
vt 0.250000 0.750000
vt 0.187500 1.000000
vt 0.250000 0.500000
vt 0.375000 0.500000
vt 0.375000 0.750000
vt 0.312500 1.000000
vt 0.500000 0.500000
vt 0.500000 0.750000
vt 0.437500 1.000000
vt 0.562500 1.000000
vt 0.500000 0.250000
vt 0.375000 0.250000
vt 0.625000 0.250000
vt 0.750000 0.250000
vt 0.687500 0.000000
vt 0.562500 0.000000
vt 0.312500 0.000000
vt 0.250000 0.250000
vt 0.437500 0.000000
vt 0.812500 0.000000
vt 0.875000 0.250000
vt 0.187500 0.000000
vt 0.125000 0.250000
vt 0.062500 0.000000
vt 0.000000 0.250000
vt 0.937500 0.000000
vt 1.000000 0.250000
vn -0.3873 0.2973 -0.8727
vn 0.3270 0.2873 -0.9003
vn 0.1516 0.8796 -0.4509
vn -0.1613 0.8840 -0.4388
vn -0.8723 0.3419 -0.3496
vn -0.3738 0.9035 -0.2097
vn -0.8441 0.3950 0.3627
vn -0.3614 0.9268 0.1023
vn -0.1314 0.9401 0.3144
vn -0.3191 0.4255 0.8469
vn 0.3952 0.4155 0.8193
vn 0.1814 0.9358 0.3023
vn 0.8802 0.3709 0.2961
vn 0.3939 0.9162 0.0732
vn 0.8520 0.3178 -0.4162
vn 0.3815 0.8930 -0.2388
vn 0.8723 -0.3419 0.3496
vn 0.8441 -0.3950 -0.3627
vn 0.3191 -0.4255 -0.8469
vn 0.1314 -0.9401 -0.3144
vn 0.3614 -0.9268 -0.1023
vn 0.1613 -0.8840 0.4388
vn 0.3738 -0.9035 0.2097
vn -0.1814 -0.9358 -0.3023
vn -0.1516 -0.8796 0.4509
vn -0.3815 -0.8930 0.2388
vn -0.3939 -0.9162 -0.0732
vn -0.3952 -0.4155 -0.8193
vn -0.8802 -0.3709 -0.2961
vn -0.8520 -0.3178 0.4162
vn -0.3270 -0.2873 0.9003
vn 0.3873 -0.2973 0.8727
usemtl None
s off
f 65/82/45 64/83/45 60/84/45 61/85/45
f 61/85/46 60/84/46 62/86/46 77/87/46
f 60/84/47 63/88/47 62/86/47
f 64/83/48 63/89/48 60/84/48
f 67/90/49 66/91/49 64/83/49 65/82/49
f 66/91/50 63/92/50 64/83/50
f 69/93/51 68/94/51 66/95/51 67/96/51
f 68/94/52 63/97/52 66/95/52
f 70/98/53 63/99/53 68/94/53
f 71/100/54 70/98/54 68/94/54 69/93/54
f 73/101/55 72/102/55 70/98/55 71/100/55
f 72/102/56 63/103/56 70/98/56
f 75/104/57 74/105/57 72/102/57 73/101/57
f 74/105/58 63/106/58 72/102/58
f 77/87/59 62/86/59 74/105/59 75/104/59
f 62/86/60 63/107/60 74/105/60
f 76/108/61 75/104/61 73/101/61 81/109/61
f 78/110/62 77/87/62 75/104/62 76/108/62
f 79/111/63 61/85/63 77/87/63 78/110/63
f 80/112/64 79/111/64 78/110/64
f 80/113/65 78/110/65 76/108/65
f 80/114/66 81/109/66 82/115/66
f 80/116/67 76/108/67 81/109/67
f 80/117/68 85/118/68 79/111/68
f 80/119/69 82/115/69 83/120/69
f 80/121/70 83/120/70 84/122/70
f 80/123/71 84/124/71 85/118/71
f 85/118/72 65/82/72 61/85/72 79/111/72
f 84/124/73 67/90/73 65/82/73 85/118/73
f 83/120/74 69/93/74 67/96/74 84/122/74
f 82/115/75 71/100/75 69/93/75 83/120/75
f 81/109/76 73/101/76 71/100/76 82/115/76
