# Blender v2.91.0 OBJ File: 'pine_tree.blend'
# www.blender.org
mtllib pine_tree.mtl
o Cube.004
v 0.202565 2.455161 -0.202565
v 0.289515 0.000000 -0.289515
v 0.202565 2.455161 0.202565
v 0.289515 0.000000 0.289515
v -0.202565 2.455161 -0.202565
v -0.289515 0.000000 -0.289515
v -0.202565 2.455161 0.202565
v -0.289515 0.000000 0.289515
v 0.000000 0.000000 -0.381276
v 0.000000 2.455161 0.266767
v 0.000000 0.000000 0.381276
v 0.000000 2.455161 -0.266767
v -0.381276 0.000000 0.000000
v 0.266767 2.455161 0.000000
v -0.266767 2.455161 0.000000
v 0.381276 0.000000 0.000000
v 0.000000 0.000000 0.000000
v 0.000000 2.455161 0.000000
v 0.288182 3.253607 -0.288182
v 0.288182 3.253607 0.288182
v -0.288182 3.253607 -0.288182
v -0.288182 3.253607 0.288182
v 0.000000 3.253607 0.379521
v 0.000000 3.253607 -0.379521
v 0.379521 3.253607 0.000000
v -0.379521 3.253607 0.000000
v 0.000000 3.253607 0.000000
v 0.824007 1.388435 -0.087478
v 0.267277 1.020842 -0.111090
v 0.824007 1.388435 0.022538
v 0.267277 1.020842 0.046150
v 0.766675 1.482332 -0.087478
v 0.185335 1.155044 -0.111090
v 0.766675 1.482332 0.022538
v 0.185335 1.155044 0.046150
v 0.226306 1.087943 -0.136009
v 0.795341 1.435383 0.039973
v 0.226306 1.087943 0.071069
v 0.795341 1.435383 -0.104913
v 0.172350 1.176312 -0.032470
v 0.833092 1.373555 -0.032470
v 0.757590 1.497212 -0.032470
v 0.280262 0.999574 -0.032470
v 0.226306 1.087943 -0.032470
v 0.795341 1.435383 -0.032470
vt 0.750000 0.625000
vt 0.875000 0.625000
vt 0.875000 0.750000
vt 0.750000 0.750000
vt 0.375000 0.875000
vt 0.625000 0.875000
vt 0.625000 1.000000
vt 0.375000 1.000000
vt 0.375000 0.125000
vt 0.625000 0.125000
vt 0.625000 0.250000
vt 0.375000 0.250000
vt 0.250000 0.625000
vt 0.375000 0.625000
vt 0.375000 0.750000
vt 0.250000 0.750000
vt 0.625000 0.625000
vt 0.625000 0.750000
vt 0.375000 0.375000
vt 0.625000 0.375000
vt 0.625000 0.500000
vt 0.375000 0.500000
vt 0.125000 0.625000
vt 0.125000 0.750000
vt 0.750000 0.500000
vt 0.125000 0.500000
vt 0.250000 0.500000
vt 0.375000 0.000000
vt 0.625000 0.000000
vt 0.875000 0.500000
vt 0.750000 0.625000
vt 0.875000 0.625000
vt 0.875000 0.750000
vt 0.750000 0.750000
vt 0.625000 0.625000
vt 0.625000 0.750000
vt 0.625000 0.500000
vt 0.750000 0.500000
vt 0.875000 0.500000
vt 0.750000 0.625000
vt 0.875000 0.625000
vt 0.875000 0.750000
vt 0.750000 0.750000
vt 0.375000 0.875000
vt 0.625000 0.875000
vt 0.625000 1.000000
vt 0.375000 1.000000
vt 0.375000 0.125000
vt 0.625000 0.125000
vt 0.625000 0.250000
vt 0.375000 0.250000
vt 0.250000 0.625000
vt 0.375000 0.625000
vt 0.375000 0.750000
vt 0.250000 0.750000
vt 0.625000 0.625000
vt 0.625000 0.750000
vt 0.375000 0.375000
vt 0.625000 0.375000
vt 0.625000 0.500000
vt 0.375000 0.500000
vt 0.125000 0.625000
vt 0.125000 0.750000
vt 0.750000 0.500000
vt 0.125000 0.500000
vt 0.250000 0.500000
vt 0.375000 0.000000
vt 0.625000 0.000000
vt 0.875000 0.500000
vn 0.0000 1.0000 0.0000
vn -0.7492 0.6623 0.0000
vn -0.5460 0.6354 0.5460
vn 0.0000 0.6623 0.7492
vn 0.0000 -0.6275 0.7786
vn -0.5668 -0.5978 0.5668
vn -0.7786 -0.6275 0.0000
vn -0.5460 0.6354 -0.5460
vn -0.5668 -0.5978 -0.5668
vn 0.0000 -1.0000 0.0000
vn 0.7786 -0.6275 0.0000
vn 0.5668 -0.5978 0.5668
vn 0.7492 0.6623 0.0000
vn 0.5460 0.6354 0.5460
vn 0.0000 -0.6275 -0.7786
vn 0.0000 0.6623 -0.7492
vn 0.5460 0.6354 -0.5460
vn 0.5668 -0.5978 -0.5668
vn 0.8535 0.5211 0.0000
vn 0.1748 0.9846 0.0000
vn 0.2578 0.7971 0.5460
vn 0.5653 0.3451 0.7492
vn -0.5355 -0.3270 0.7786
vn -0.8056 0.1722 0.5668
vn -0.9413 0.3375 0.0000
vn 0.2578 0.7971 -0.5460
vn -0.8056 0.1722 -0.5668
vn -0.8535 -0.5211 0.0000
vn -0.1298 -0.9915 0.0000
vn -0.2148 -0.7953 0.5668
vn 0.9557 -0.2943 0.0000
vn 0.8268 -0.1349 0.5460
vn -0.5355 -0.3270 -0.7786
vn 0.5653 0.3451 -0.7492
vn 0.8268 -0.1349 -0.5460
vn -0.2148 -0.7953 -0.5668
usemtl Material
s 1
f 18/1/1 15/2/2 7/3/3 10/4/4
f 11/5/5 10/6/4 7/7/3 8/8/6
f 13/9/7 15/10/2 5/11/8 6/12/9
f 17/13/10 16/14/11 4/15/12 11/16/5
f 16/14/11 14/17/13 3/18/14 4/15/12
f 9/19/15 12/20/16 1/21/17 2/22/18
f 6/12/9 5/11/8 12/20/16 9/19/15
f 13/23/7 17/13/10 11/16/5 8/24/6
f 4/15/12 3/18/14 10/6/4 11/5/5
f 14/17/13 18/1/1 10/4/4 3/18/14
f 1/21/17 12/25/16 18/1/1 14/17/13
f 6/26/9 9/27/15 17/13/10 13/23/7
f 2/22/18 1/21/17 14/17/13 16/14/11
f 9/27/15 2/22/18 16/14/11 17/13/10
f 8/28/6 7/29/3 15/10/2 13/9/7
f 12/25/16 5/30/8 15/2/2 18/1/1
f 27/31/1 26/32/1 22/33/1 23/34/1
f 25/35/1 27/31/1 23/34/1 20/36/1
f 19/37/1 24/38/1 27/31/1 25/35/1
f 24/38/1 21/39/1 26/32/1 27/31/1
f 45/40/19 42/41/20 34/42/21 37/43/22
f 38/44/23 37/45/22 34/46/21 35/47/24
f 40/48/25 42/49/20 32/50/26 33/51/27
f 44/52/28 43/53/29 31/54/30 38/55/23
f 43/53/29 41/56/31 30/57/32 31/54/30
f 36/58/33 39/59/34 28/60/35 29/61/36
f 33/51/27 32/50/26 39/59/34 36/58/33
f 40/62/25 44/52/28 38/55/23 35/63/24
f 31/54/30 30/57/32 37/45/22 38/44/23
f 41/56/31 45/40/19 37/43/22 30/57/32
f 28/60/35 39/64/34 45/40/19 41/56/31
f 33/65/27 36/66/33 44/52/28 40/62/25
f 29/61/36 28/60/35 41/56/31 43/53/29
f 36/66/33 29/61/36 43/53/29 44/52/28
f 35/67/24 34/68/21 42/49/20 40/48/25
f 39/64/34 32/69/26 42/41/20 45/40/19
o Cube.006
v 0.000000 1.578424 -0.000000
v 0.000000 2.480585 -1.231789
v 0.791779 1.817806 -0.943605
v 1.213076 2.098266 -0.213898
v 1.066761 2.318417 0.615895
v 0.421297 2.084704 1.157503
v -0.421297 2.066558 1.157503
v -1.066761 1.822830 0.615895
v -1.213076 2.122744 -0.213898
v -0.791779 1.973285 -0.943605
v 0.000000 2.852086 -0.000000
v 0.000000 3.944431 -1.179515
v 0.758177 3.555465 -0.903561
v 1.161595 3.941394 -0.204820
v 1.021490 3.436035 0.589757
v 0.444148 3.468979 1.042212
v -0.212130 3.335907 1.068965
v -0.893845 3.739569 0.516062
v -1.161595 4.018729 -0.204821
v -0.758178 3.676630 -0.903560
v 0.000000 5.865097 -0.000000
v -0.626940 4.055444 -0.747158
v 0.609332 4.008893 -0.726173
v 0.950844 4.290416 -0.167659
v 0.801080 3.960160 0.462504
v 0.000000 4.236793 -0.999970
v 0.173889 4.022611 0.833701
v -0.337210 3.834689 0.926475
v -0.823208 3.907541 0.475279
v -0.969608 4.323895 -0.170968
v -0.014421 3.385506 0.219169
v 0.014502 3.706648 0.990665
v -1.091542 3.727382 0.192468
v -0.896408 4.115718 0.152156
v 0.909585 2.755421 -0.160384
v 0.898570 2.697845 0.518790
v 0.000000 2.971333 -0.962451
v 0.344514 2.565901 0.946545
v -0.346713 2.537189 0.952585
v -0.755577 2.669411 0.436232
v -0.883382 2.829986 -0.155764
v -0.595590 2.655106 -0.709796
v 0.591641 2.552649 -0.705090
v 0.048877 2.733839 0.870390
v -0.870380 2.672631 0.089181
v 0.006767 2.075777 1.157503
vt 0.750000 0.250000
vt 0.750000 0.490000
vt 0.904269 0.433851
vt 0.250000 0.490000
vt 0.250000 0.437523
vt 0.365274 0.387379
vt 0.404269 0.433851
vt 0.986354 0.291676
vt 0.427222 0.281249
vt 0.486354 0.291676
vt 0.957846 0.130000
vt 0.425076 0.148920
vt 0.457846 0.130000
vt 0.832085 0.024474
vt 0.317125 0.065577
vt 0.332085 0.024474
vt 0.751318 0.024474
vt 0.667915 0.024474
vt 0.258935 0.080224
vt 0.251318 0.024474
vt 0.542154 0.130000
vt 0.167915 0.024474
vt 0.182447 0.064400
vt 0.102785 0.165005
vt 0.042154 0.130000
vt 0.513646 0.291676
vt 0.080416 0.232624
vt 0.077883 0.280349
vt 0.013646 0.291676
vt 0.595731 0.433851
vt 0.133956 0.388296
vt 0.095731 0.433851
vt 0.750000 0.250000
vt 0.750000 0.490000
vt 0.904269 0.433851
vt 0.250000 0.490000
vt 0.250000 0.453467
vt 0.373983 0.397757
vt 0.404269 0.433851
vt 0.986354 0.291676
vt 0.443472 0.284114
vt 0.486354 0.291676
vt 0.957846 0.130000
vt 0.412999 0.155893
vt 0.457846 0.130000
vt 0.832085 0.024474
vt 0.794995 0.126378
vt 0.317688 0.064028
vt 0.332085 0.024474
vt 0.793047 0.024474
vt 0.667915 0.024474
vt 0.541168 0.145685
vt 0.167915 0.024474
vt 0.181387 0.061487
vt 0.082499 0.153293
vt 0.068126 0.144995
vt 0.527900 0.210838
vt 0.513646 0.291676
vt 0.027900 0.210838
vt 0.067605 0.219040
vt 0.052710 0.284787
vt 0.013646 0.291676
vt 0.595731 0.433851
vt 0.122434 0.402027
vt 0.095731 0.433851
vt 0.250000 0.250000
vt 0.293047 0.024474
vn -0.4181 -0.7329 -0.5367
vn 0.5853 0.3901 -0.7108
vn 0.4081 -0.9060 0.1126
vn 0.7287 0.3828 -0.5678
vn 0.4200 -0.8561 0.3012
vn 0.9083 0.4154 0.0499
vn 0.4777 -0.8554 0.2002
vn 0.4924 0.4142 0.7655
vn 0.0198 -0.9186 0.3946
vn -0.0086 0.4003 0.9163
vn 0.0167 -0.9191 0.3937
vn -0.6744 0.3820 0.6318
vn -0.3564 -0.8970 -0.2614
vn -0.8755 0.3840 0.2932
vn -0.4024 -0.9144 -0.0450
vn -0.7578 0.3959 -0.5186
vn 0.2890 -0.7723 -0.5657
vn -0.5314 0.4076 -0.7426
vn -0.1280 -0.7277 -0.6739
vn 0.5008 0.4530 -0.7376
vn 0.6847 -0.7288 0.0072
vn 0.6407 0.4529 -0.6200
vn 0.6083 -0.7139 -0.3468
vn 0.7966 0.4365 0.4181
vn -0.1575 -0.8189 0.5518
vn 0.5253 0.4618 0.7147
vn 0.9453 -0.2538 0.2051
vn -0.6217 -0.7525 0.2172
vn -0.6034 0.1652 0.7801
vn -0.6312 -0.7729 -0.0649
vn -0.7749 0.4368 0.4569
vn -0.7023 -0.7095 -0.0581
vn -0.6437 0.4718 -0.6026
vn 0.0118 -0.7336 -0.6794
vn -0.4436 0.4690 -0.7637
vn 0.0133 0.4133 0.9105
vn 0.4965 0.3963 0.7723
vn -0.5848 0.4151 0.6969
vn -0.0449 0.3463 0.9370
vn -0.8412 -0.2255 0.4915
vn 0.9097 -0.3943 0.1300
usemtl Material
s off
f 46/70/37 47/71/37 48/72/37
f 47/73/38 82/74/38 88/75/38 48/76/38
f 46/70/39 48/72/39 49/77/39
f 48/76/40 88/75/40 80/78/40 49/79/40
f 46/70/41 49/77/41 50/80/41
f 49/79/42 80/78/42 81/81/42 50/82/42
f 46/70/43 50/80/43 51/83/43
f 50/82/44 81/81/44 83/84/44 51/85/44
f 46/70/45 51/83/45 91/86/45 52/87/45
f 51/85/46 83/84/46 89/88/46 91/89/46
f 46/70/47 52/87/47 53/90/47
f 52/91/48 84/92/48 85/93/48 53/94/48
f 46/70/49 53/90/49 54/95/49
f 53/94/50 85/93/50 90/96/50 86/97/50 54/98/50
f 46/70/51 54/95/51 55/99/51
f 54/98/52 86/97/52 87/100/52 55/101/52
f 46/70/53 55/99/53 47/71/53
f 55/101/54 87/100/54 82/74/54 47/73/54
f 56/102/55 57/103/55 58/104/55
f 57/105/56 71/106/56 68/107/56 58/108/56
f 56/102/57 58/104/57 59/109/57
f 58/108/58 68/107/58 69/110/58 59/111/58
f 56/102/59 59/109/59 60/112/59
f 59/111/60 69/110/60 70/113/60 60/114/60
f 56/102/61 60/112/61 61/115/61 76/116/61
f 60/114/62 70/113/62 72/117/62 61/118/62
f 56/102/63 76/116/63 77/119/63 62/120/63
f 56/102/64 62/120/64 63/121/64
f 62/122/65 73/123/65 74/124/65 63/125/65
f 56/102/66 63/121/66 78/126/66 64/127/66
f 78/128/67 79/129/67 75/130/67 64/131/67
f 56/102/68 64/127/68 65/132/68
f 64/131/69 75/130/69 67/133/69 65/134/69
f 56/102/70 65/132/70 57/103/70
f 65/134/71 67/133/71 71/106/71 57/105/71
f 73/123/72 72/117/72 66/135/72
f 75/130/67 79/129/67 74/124/67 66/135/67
f 69/110/58 68/107/58 66/135/58
f 71/106/71 67/133/71 66/135/71
f 72/117/73 70/113/73 66/135/73
f 74/124/74 73/123/74 66/135/74
f 68/107/56 71/106/56 66/135/56
f 67/133/69 75/130/69 66/135/69
f 70/113/60 69/110/60 66/135/60
f 77/136/75 72/117/75 73/123/75 62/122/75
f 61/115/76 72/117/76 76/116/76
f 77/119/77 76/116/77 72/117/77
f 63/125/67 74/124/67 79/129/67 78/128/67
f 91/89/46 89/88/46 84/92/46 52/91/46
o Cube.007_Cube.008
v 0.000000 4.724968 -0.000000
v 0.909585 2.755421 -0.160384
v 0.898570 2.697845 0.518790
v 0.000000 2.971333 -0.962451
v 0.344514 2.565901 0.946545
v -0.346713 2.537189 0.952585
v -0.755577 2.669411 0.436232
v -0.883382 2.829986 -0.155764
v -0.595590 2.655106 -0.709796
v 0.591641 2.552649 -0.705090
v 0.048877 2.733839 0.870390
v -0.870380 2.672631 0.089181
v 0.246049 3.182978 0.676015
v -0.239704 3.212422 0.658581
vt 0.345992 0.364399
vt 0.250000 0.411573
vt 0.250000 0.250000
vt 0.152858 0.365769
vt 0.109648 0.274748
vt 0.408871 0.158276
vt 0.397982 0.276093
vt 0.189633 0.084143
vt 0.263580 0.108077
vt 0.203296 0.121683
vt 0.108936 0.228931
vt 0.132766 0.182315
vt 0.309727 0.085902
vt 0.297940 0.118286
vn 0.5853 0.3901 -0.7108
vn -0.7578 0.3959 -0.5186
vn 0.9083 0.4154 0.0499
vn -0.0086 0.4003 0.9163
vn -0.8755 0.3840 0.2932
vn 0.7287 0.3828 -0.5678
vn -0.5314 0.4076 -0.7426
vn 0.4924 0.4142 0.7655
vn -0.6744 0.3820 0.6318
usemtl Material
s off
f 101/137/78 95/138/78 92/139/78
f 100/140/79 99/141/79 92/139/79
f 94/142/80 93/143/80 92/139/80
f 97/144/81 102/145/81 105/146/81
f 99/141/82 103/147/82 98/148/82 92/139/82
f 93/143/83 101/137/83 92/139/83
f 95/138/84 100/140/84 92/139/84
f 96/149/85 94/142/85 92/139/85 104/150/85
f 98/148/86 97/144/86 105/146/86 92/139/86
f 105/146/81 102/145/81 104/150/81 92/139/81
f 104/150/81 102/145/81 96/149/81
