# Blender v2.91.0 OBJ File: ''
# www.blender.org
mtllib snow_rock_2.mtl
o Cube
v 0.746713 1.050905 -1.057740
v 0.796452 0.095910 -1.115251
v 0.703161 1.050905 0.694745
v 0.750000 0.095910 0.750000
v -0.796777 1.050905 -0.971234
v -0.846076 0.095910 -1.023776
v -0.763874 1.050906 0.662688
v -0.811392 0.095910 0.715654
v 0.047717 0.063940 -1.336523
v -0.009400 1.125046 0.762340
v -0.008186 0.063940 0.828754
v 0.042776 1.125046 -1.258605
v -1.008960 0.063940 -0.133351
v 0.784131 1.125046 -0.079981
v -0.943656 1.125046 -0.135355
v 0.842222 0.063940 -0.074022
v -0.021562 0.000000 -0.118040
v -0.022041 1.273327 -0.121702
v 0.867329 0.467982 -1.199548
v -0.870572 0.467982 0.792416
v 0.821382 0.467982 0.819511
v -0.923097 0.467982 -1.073938
v 0.065772 0.467982 -1.578385
v -0.000379 0.467982 0.983864
v 0.992378 0.467982 -0.064675
v -1.198192 0.467982 -0.134881
v -0.941001 0.069417 0.395755
v -0.490825 0.069417 -1.212465
v 0.864099 0.214500 -1.195614
v -0.836616 0.810881 0.752198
v 0.817565 0.214500 0.817331
v -0.918819 0.214500 -1.074836
v -0.465097 1.112346 0.739651
v 0.764510 1.112346 0.417424
v 0.467341 0.069417 0.818486
v -0.909363 1.112346 -0.633240
v 0.492320 1.112346 -1.211037
v 0.846289 0.069417 -0.691313
v 0.529503 0.069417 -1.284409
v 0.434269 1.112346 0.753764
v -0.496730 0.069417 0.803189
v -0.459692 1.112346 -1.143509
v 0.064498 0.210356 -1.563112
v -0.022136 0.007993 0.453535
v -0.001071 0.210356 0.976577
v -0.022519 1.254792 0.404266
v -0.971140 0.069417 -0.667428
v 0.788808 1.112346 -0.655755
v -0.881015 1.112346 0.358298
v 0.820170 0.069417 0.459112
v 0.010008 0.007993 -0.791499
v 0.007063 1.254792 -0.741540
v 0.446378 1.254792 -0.100960
v -0.576955 0.007993 -0.129714
v 0.984379 0.210356 -0.064815
v 0.487475 0.007993 -0.095600
v -1.186905 0.210356 -0.134403
v -0.533218 1.254792 -0.132356
v 0.829918 0.810881 -1.155983
v -0.868962 0.214500 0.788629
v 0.785205 0.810881 0.779716
v -0.884684 0.810881 -1.039621
v 0.060931 0.820492 -1.508493
v -0.002076 0.820492 0.931969
v 0.944808 0.820492 -0.068644
v -1.141642 0.820492 -0.135512
v -1.107436 0.467982 0.389332
v 0.986714 0.467982 -0.669964
v 0.472133 0.467982 0.963320
v -0.474101 0.467982 -1.410506
v 0.544678 0.467982 -1.512104
v 0.966020 0.467982 0.462460
v -1.154442 0.467982 -0.638106
v -0.478946 0.467982 0.959933
v -0.506987 1.236943 0.381018
v -0.466463 0.818089 0.908766
v -1.100253 0.818089 -0.626190
v 0.475075 0.015689 0.463157
v 0.919887 0.818089 0.442477
v 0.524964 0.818089 -1.446412
v -0.461405 0.818089 -1.351446
v -0.547708 0.015689 0.427233
v 0.455677 0.818089 0.913403
v 0.435785 1.236943 0.414082
v 0.468697 1.236943 -0.711475
v -0.545613 0.015689 -0.741696
v 0.940537 0.818089 -0.655779
v 0.510803 0.015689 -0.757929
v -1.056674 0.818089 0.372463
v -0.505137 1.236943 -0.696370
v -1.098339 0.211392 0.394413
v 0.979758 0.211392 -0.676088
v 0.475459 0.211392 0.957053
v -0.479251 0.211392 -1.399592
v 0.547562 0.211392 -1.498291
v 0.958232 0.211392 0.467286
v -1.143614 0.211392 -0.645371
v -0.484553 0.211392 0.952161
vt 0.750000 0.625000
vt 0.812500 0.625000
vt 0.812500 0.687500
vt 0.750000 0.687500
vt 0.875000 0.625000
vt 0.875000 0.687500
vt 0.875000 0.750000
vt 0.812500 0.750000
vt 0.750000 0.750000
vt 0.448637 0.875000
vt 0.527188 0.875000
vt 0.527188 0.937500
vt 0.448637 0.937500
vt 0.625000 0.875000
vt 0.625000 0.937500
vt 0.625000 1.000000
vt 0.527188 1.000000
vt 0.448637 1.000000
vt 0.448637 0.125000
vt 0.527188 0.125000
vt 0.527188 0.187500
vt 0.448637 0.187500
vt 0.625000 0.125000
vt 0.625000 0.187500
vt 0.625000 0.250000
vt 0.527188 0.250000
vt 0.448637 0.250000
vt 0.250000 0.625000
vt 0.310895 0.625000
vt 0.310728 0.687934
vt 0.250000 0.687500
vt 0.362159 0.625000
vt 0.361493 0.689236
vt 0.354167 0.770833
vt 0.309896 0.752604
vt 0.250000 0.750000
vt 0.448637 0.625000
vt 0.525583 0.625000
vt 0.526284 0.687934
vt 0.448637 0.687500
vt 0.612159 0.625000
vt 0.614965 0.689236
vt 0.645833 0.770833
vt 0.528656 0.751736
vt 0.448637 0.750000
vt 0.448637 0.375000
vt 0.527188 0.375000
vt 0.527622 0.437066
vt 0.448637 0.437500
vt 0.625000 0.375000
vt 0.627604 0.434896
vt 0.645833 0.479167
vt 0.528656 0.498264
vt 0.448637 0.500000
vt 0.527188 0.312500
vt 0.448637 0.312500
vt 0.625000 0.312500
vt 0.125000 0.625000
vt 0.187500 0.625000
vt 0.187500 0.687500
vt 0.125000 0.687500
vt 0.187500 0.750000
vt 0.125000 0.750000
vt 0.527622 0.812934
vt 0.448637 0.812500
vt 0.627604 0.815104
vt 0.685895 0.625000
vt 0.686596 0.687934
vt 0.690104 0.752604
vt 0.690104 0.497396
vt 0.686596 0.562066
vt 0.614965 0.560764
vt 0.750000 0.500000
vt 0.750000 0.562500
vt 0.125000 0.500000
vt 0.187500 0.500000
vt 0.187500 0.562500
vt 0.125000 0.562500
vt 0.250000 0.500000
vt 0.250000 0.562500
vt 0.526284 0.562066
vt 0.448637 0.562500
vt 0.309896 0.497396
vt 0.310728 0.562066
vt 0.354167 0.479167
vt 0.361493 0.560764
vt 0.448637 0.000000
vt 0.527188 0.000000
vt 0.527188 0.062500
vt 0.448637 0.062500
vt 0.625000 0.000000
vt 0.625000 0.062500
vt 0.812500 0.500000
vt 0.812500 0.562500
vt 0.875000 0.500000
vt 0.875000 0.562500
vt 0.375000 0.000000
vt 0.402188 0.000000
vt 0.402188 0.062500
vt 0.375000 0.062500
vt 0.402188 0.125000
vt 0.375000 0.125000
vt 0.400184 0.498264
vt 0.400416 0.562066
vt 0.400583 0.625000
vt 0.400184 0.751736
vt 0.401754 0.812934
vt 0.372396 0.815104
vt 0.402188 0.875000
vt 0.375000 0.875000
vt 0.375000 0.250000
vt 0.402188 0.250000
vt 0.402188 0.312500
vt 0.375000 0.312500
vt 0.402188 0.375000
vt 0.375000 0.375000
vt 0.401754 0.437066
vt 0.372396 0.434896
vt 0.400416 0.687934
vt 0.402188 0.187500
vt 0.375000 0.187500
vt 0.402188 0.937500
vt 0.375000 0.937500
vt 0.402188 1.000000
vt 0.375000 1.000000
vn 0.0005 1.0000 0.0025
vn -0.1767 0.9843 0.0036
vn -0.1759 0.9660 0.1892
vn -0.0043 0.9817 0.1905
vn -0.6205 0.7839 0.0192
vn -0.6073 0.7565 0.2425
vn -0.5047 0.6551 0.5622
vn -0.1860 0.7463 0.6391
vn -0.0085 0.7610 0.6487
vn -0.0038 0.0589 0.9982
vn -0.0060 0.3206 0.9472
vn -0.2073 0.3118 0.9272
vn -0.2230 0.0619 0.9728
vn -0.6298 0.3045 0.7145
vn -0.6591 0.0667 0.7491
vn -0.9975 0.0579 0.0411
vn -0.9362 0.3496 0.0358
vn -0.9080 0.3335 -0.2535
vn -0.9586 0.0615 -0.2781
vn -0.6127 0.7639 -0.2025
vn -0.5589 0.6729 -0.4845
vn -0.7231 0.3092 -0.6177
vn -0.7584 0.0672 -0.6483
vn 0.0002 -1.0000 0.0010
vn 0.0858 -0.9963 0.0032
vn 0.0811 -0.9935 0.0802
vn -0.0019 -0.9967 0.0815
vn 0.4637 -0.8859 0.0112
vn 0.4727 -0.8728 0.1212
vn 0.4049 -0.8210 0.4024
vn 0.1191 -0.8747 0.4698
vn -0.0056 -0.8918 0.4524
vn 0.9984 0.0518 0.0206
vn 0.9526 0.3036 0.0207
vn 0.9334 0.2987 0.1986
vn 0.9750 0.0568 0.2147
vn 0.6635 0.7479 0.0170
vn 0.6465 0.7410 0.1816
vn 0.5407 0.6489 0.5352
vn 0.6752 0.3061 0.6711
vn 0.7073 0.0674 0.7037
vn -0.0779 0.0679 -0.9946
vn -0.0678 0.4049 -0.9118
vn 0.3880 0.3912 -0.8345
vn 0.4294 0.0721 -0.9002
vn -0.0385 0.8237 -0.5656
vn 0.2886 0.8044 -0.5192
vn 0.6501 0.6748 -0.3493
vn 0.8206 0.3215 -0.4725
vn 0.8669 0.0670 -0.4939
vn -0.4053 0.3549 -0.8424
vn -0.4468 0.0672 -0.8921
vn -0.2891 0.7790 -0.5563
vn -0.4180 -0.9083 0.0144
vn -0.0746 -0.9972 0.0015
vn -0.0775 -0.9934 0.0837
vn -0.4375 -0.8823 0.1735
vn -0.1292 -0.8756 0.4654
vn -0.3774 -0.8260 0.4185
vn 0.1961 0.3084 0.9308
vn 0.2136 0.0629 0.9749
vn 0.1785 0.7475 0.6398
vn 0.2003 0.9797 0.0076
vn 0.1843 0.9658 0.1821
vn 0.2063 0.9706 -0.1235
vn 0.6715 0.7342 -0.1001
vn -0.0044 0.9892 -0.1462
vn -0.4103 -0.8383 -0.3590
vn -0.2109 -0.8944 -0.3944
vn -0.0804 -0.9944 -0.0689
vn -0.4359 -0.8880 -0.1461
vn -0.0291 -0.9303 -0.3657
vn -0.0019 -0.9981 -0.0611
vn 0.9511 0.2912 -0.1030
vn 0.9919 0.0550 -0.1140
vn 0.2021 -0.9128 -0.3548
vn 0.0906 -0.9944 -0.0534
vn 0.4836 -0.8397 -0.2472
vn 0.4895 -0.8694 -0.0665
vn -0.8933 0.3241 0.3112
vn -0.9386 0.0616 0.3395
vn -0.1835 0.9703 -0.1573
vn -0.6191 -0.3470 0.7044
vn -0.8707 -0.3877 0.3026
vn -0.9034 -0.4274 0.0349
vn 0.8017 -0.3706 -0.4689
vn 0.9279 -0.3592 -0.1002
vn 0.9222 -0.3861 0.0200
vn 0.6648 -0.3455 0.6623
vn 0.1919 -0.3638 0.9115
vn -0.0054 -0.3940 0.9191
vn -0.7113 -0.3556 -0.6063
vn -0.3930 -0.4172 -0.8194
vn -0.0653 -0.4675 -0.8816
vn 0.3781 -0.4414 -0.8137
vn 0.9113 -0.3631 0.1941
vn -0.8834 -0.3991 -0.2456
vn -0.2008 -0.3710 0.9066
usemtl Material
s 1
f 18/1/1 58/2/2 75/3/3 46/4/4
f 58/2/2 15/5/5 49/6/6 75/3/3
f 75/3/3 49/6/6 7/7/7 33/8/8
f 46/4/4 75/3/3 33/8/8 10/9/9
f 24/10/10 64/11/11 76/12/12 74/13/13
f 64/11/11 10/14/9 33/15/8 76/12/12
f 76/12/12 33/15/8 7/16/7 30/17/14
f 74/13/13 76/12/12 30/17/14 20/18/15
f 26/19/16 66/20/17 77/21/18 73/22/19
f 66/20/17 15/23/5 36/24/20 77/21/18
f 77/21/18 36/24/20 5/25/21 62/26/22
f 73/22/19 77/21/18 62/26/22 22/27/23
f 17/28/24 56/29/25 78/30/26 44/31/27
f 56/29/25 16/32/28 50/33/29 78/30/26
f 78/30/26 50/33/29 4/34/30 35/35/31
f 44/31/27 78/30/26 35/35/31 11/36/32
f 25/37/33 65/38/34 79/39/35 72/40/36
f 65/38/34 14/41/37 34/42/38 79/39/35
f 79/39/35 34/42/38 3/43/39 61/44/40
f 72/40/36 79/39/35 61/44/40 21/45/41
f 23/46/42 63/47/43 80/48/44 71/49/45
f 63/47/43 12/50/46 37/51/47 80/48/44
f 80/48/44 37/51/47 1/52/48 59/53/49
f 71/49/45 80/48/44 59/53/49 19/54/50
f 22/27/23 62/26/22 81/55/51 70/56/52
f 62/26/22 5/25/21 42/57/53 81/55/51
f 81/55/51 42/57/53 12/50/46 63/47/43
f 70/56/52 81/55/51 63/47/43 23/46/42
f 13/58/54 54/59/55 82/60/56 27/61/57
f 54/59/55 17/28/24 44/31/27 82/60/56
f 82/60/56 44/31/27 11/36/32 41/62/58
f 27/61/57 82/60/56 41/62/58 8/63/59
f 21/45/41 61/44/40 83/64/60 69/65/61
f 61/44/40 3/43/39 40/66/62 83/64/60
f 83/64/60 40/66/62 10/14/9 64/11/11
f 69/65/61 83/64/60 64/11/11 24/10/10
f 14/41/37 53/67/63 84/68/64 34/42/38
f 53/67/63 18/1/1 46/4/4 84/68/64
f 84/68/64 46/4/4 10/9/9 40/69/62
f 34/42/38 84/68/64 40/69/62 3/43/39
f 1/52/48 37/70/47 85/71/65 48/72/66
f 37/70/47 12/73/46 52/74/67 85/71/65
f 85/71/65 52/74/67 18/1/1 53/67/63
f 48/72/66 85/71/65 53/67/63 14/41/37
f 6/75/68 28/76/69 86/77/70 47/78/71
f 28/76/69 9/79/72 51/80/73 86/77/70
f 86/77/70 51/80/73 17/28/24 54/59/55
f 47/78/71 86/77/70 54/59/55 13/58/54
f 19/54/50 59/53/49 87/81/74 68/82/75
f 59/53/49 1/52/48 48/72/66 87/81/74
f 87/81/74 48/72/66 14/41/37 65/38/34
f 68/82/75 87/81/74 65/38/34 25/37/33
f 9/79/72 39/83/76 88/84/77 51/80/73
f 39/83/76 2/85/78 38/86/79 88/84/77
f 88/84/77 38/86/79 16/32/28 56/29/25
f 51/80/73 88/84/77 56/29/25 17/28/24
f 20/87/15 30/88/14 89/89/80 67/90/81
f 30/88/14 7/91/7 49/92/6 89/89/80
f 89/89/80 49/92/6 15/23/5 66/20/17
f 67/90/81 89/89/80 66/20/17 26/19/16
f 12/73/46 42/93/53 90/94/82 52/74/67
f 42/93/53 5/95/21 36/96/20 90/94/82
f 90/94/82 36/96/20 15/5/5 58/2/2
f 52/74/67 90/94/82 58/2/2 18/1/1
f 8/97/59 60/98/83 91/99/84 27/100/57
f 60/98/83 20/87/15 67/90/81 91/99/84
f 91/99/84 67/90/81 26/19/16 57/101/85
f 27/100/57 91/99/84 57/101/85 13/102/54
f 2/85/78 29/103/86 92/104/87 38/86/79
f 29/103/86 19/54/50 68/82/75 92/104/87
f 92/104/87 68/82/75 25/37/33 55/105/88
f 38/86/79 92/104/87 55/105/88 16/32/28
f 4/34/30 31/106/89 93/107/90 35/108/31
f 31/106/89 21/45/41 69/65/61 93/107/90
f 93/107/90 69/65/61 24/10/10 45/109/91
f 35/108/31 93/107/90 45/109/91 11/110/32
f 6/111/68 32/112/92 94/113/93 28/114/69
f 32/112/92 22/27/23 70/56/52 94/113/93
f 94/113/93 70/56/52 23/46/42 43/115/94
f 28/114/69 94/113/93 43/115/94 9/116/72
f 9/116/72 43/115/94 95/117/95 39/118/76
f 43/115/94 23/46/42 71/49/45 95/117/95
f 95/117/95 71/49/45 19/54/50 29/103/86
f 39/118/76 95/117/95 29/103/86 2/85/78
f 16/32/28 55/105/88 96/119/96 50/33/29
f 55/105/88 25/37/33 72/40/36 96/119/96
f 96/119/96 72/40/36 21/45/41 31/106/89
f 50/33/29 96/119/96 31/106/89 4/34/30
f 13/102/54 57/101/85 97/120/97 47/121/71
f 57/101/85 26/19/16 73/22/19 97/120/97
f 97/120/97 73/22/19 22/27/23 32/112/92
f 47/121/71 97/120/97 32/112/92 6/111/68
f 11/110/32 45/109/91 98/122/98 41/123/58
f 45/109/91 24/10/10 74/13/13 98/122/98
f 98/122/98 74/13/13 20/18/15 60/124/83
f 41/123/58 98/122/98 60/124/83 8/125/59
o Cube.003
v 0.552180 1.328035 -0.844072
v 0.522773 1.328035 0.454110
v -0.599388 1.328035 -0.762477
v -0.565148 1.328035 0.437004
v -0.005899 1.328035 0.557868
v 0.036526 1.328035 -1.085397
v 0.630793 1.328035 -0.114599
v -0.774101 1.328035 -0.159624
v -0.019536 1.328035 -0.149215
v -0.312822 1.328035 0.542520
v 0.613888 1.328035 0.223472
v -0.746043 1.328035 -0.482362
v 0.343666 1.328035 -1.042889
v 0.297140 1.328035 0.544692
v -0.309714 1.328035 -0.977730
v -0.019252 1.328035 0.225804
v 0.627160 1.328035 -0.502793
v -0.715896 1.328035 0.176573
v 0.001961 1.328035 -0.595828
v 0.315401 1.328035 -0.134176
v -0.387046 1.328035 -0.156689
v -0.365082 1.328035 0.208465
v 0.307300 1.328035 0.231190
v 0.330400 1.328035 -0.571357
v -0.365006 1.328035 -0.558377
vt 0.750000 0.625000
vt 0.812500 0.625000
vt 0.812500 0.687500
vt 0.750000 0.687500
vt 0.875000 0.625000
vt 0.875000 0.687500
vt 0.875000 0.750000
vt 0.812500 0.750000
vt 0.750000 0.750000
vt 0.625000 0.625000
vt 0.687500 0.625000
vt 0.687500 0.687500
vt 0.625000 0.687500
vt 0.687500 0.750000
vt 0.625000 0.750000
vt 0.625000 0.500000
vt 0.687500 0.500000
vt 0.687500 0.562500
vt 0.625000 0.562500
vt 0.750000 0.500000
vt 0.750000 0.562500
vt 0.812500 0.500000
vt 0.812500 0.562500
vt 0.875000 0.500000
vt 0.875000 0.562500
vn 0.0000 1.0000 0.0000
usemtl Material
s 1
f 107/126/99 119/127/99 120/128/99 114/129/99
f 119/127/99 106/130/99 116/131/99 120/128/99
f 120/128/99 116/131/99 102/132/99 108/133/99
f 114/129/99 120/128/99 108/133/99 103/134/99
f 105/135/99 118/136/99 121/137/99 109/138/99
f 118/136/99 107/126/99 114/129/99 121/137/99
f 121/137/99 114/129/99 103/134/99 112/139/99
f 109/138/99 121/137/99 112/139/99 100/140/99
f 99/141/99 111/142/99 122/143/99 115/144/99
f 111/142/99 104/145/99 117/146/99 122/143/99
f 122/143/99 117/146/99 107/126/99 118/136/99
f 115/144/99 122/143/99 118/136/99 105/135/99
f 104/145/99 113/147/99 123/148/99 117/146/99
f 113/147/99 101/149/99 110/150/99 123/148/99
f 123/148/99 110/150/99 106/130/99 119/127/99
f 117/146/99 123/148/99 119/127/99 107/126/99
